<?xml version="1.0" standalone="no"?>
<!DOCTYPE svg PUBLIC "-//W3C//DTD SVG 1.1//EN" "http://www.w3.org/Graphics/SVG/1.1/DTD/svg11.dtd" >
<svg xmlns="http://www.w3.org/2000/svg">
<metadata></metadata>
<defs>
<font id="open_sanscondensed_light" horiz-adv-x="819" >
<font-face units-per-em="2048" ascent="1638" descent="-410" />
<missing-glyph horiz-adv-x="385" />
<glyph unicode="ff" horiz-adv-x="915" d="M20 1001v54l138 41v82q0 207 49 298t170 91q70 0 127 -25l-33 -88q-53 25 -96 25q-49 0 -74 -29t-37 -94t-12 -180v-91h170v-84h-170v-1001h-94v1001h-138zM483 1001v54l138 41v82q0 207 49 298t170 91q70 0 127 -25l-33 -88q-53 25 -96 25q-49 0 -74 -29t-37 -94 t-12 -180v-91h170v-84h-170v-1001h-94v1001h-138z" />
<glyph unicode="&#xfb01;" horiz-adv-x="838" d="M20 1001v54l138 41v82q0 207 49 298t170 91q70 0 127 -25l-33 -88q-53 25 -96 25q-49 0 -74 -29t-37 -94t-12 -180v-91h170v-84h-170v-1001h-94v1001h-138zM584 1386q0 45 18.5 70t47.5 25q27 0 43 -25t16 -70q0 -43 -16 -68.5t-43 -25.5q-29 0 -47.5 25.5t-18.5 68.5z M598 0v1085h95v-1085h-95z" />
<glyph unicode="&#xfb02;" horiz-adv-x="838" d="M20 1001v54l138 41v82q0 207 49 298t170 91q70 0 127 -25l-33 -88q-53 25 -96 25q-49 0 -74 -29t-37 -94t-12 -180v-91h170v-84h-170v-1001h-94v1001h-138zM598 0v1556h95v-1556h-95z" />
<glyph unicode="&#xfb03;" horiz-adv-x="1303" d="M20 1001v54l138 41v82q0 207 49 298t170 91q70 0 127 -25l-33 -88q-53 25 -96 25q-49 0 -74 -29t-37 -94t-12 -180v-91h170v-84h-170v-1001h-94v1001h-138zM489 1001v54l138 41v82q0 207 49 298t170 91q70 0 127 -25l-33 -88q-53 25 -96 25q-49 0 -74 -29t-37 -94 t-12 -180v-91h170v-84h-170v-1001h-94v1001h-138zM1049 1386q0 45 18.5 70t47.5 25q27 0 43 -25t16 -70q0 -43 -16 -68.5t-43 -25.5q-29 0 -47.5 25.5t-18.5 68.5zM1063 0v1085h95v-1085h-95z" />
<glyph unicode="&#xfb04;" horiz-adv-x="1303" d="M20 1001v54l138 41v82q0 207 49 298t170 91q70 0 127 -25l-33 -88q-53 25 -96 25q-49 0 -74 -29t-37 -94t-12 -180v-91h170v-84h-170v-1001h-94v1001h-138zM489 1001v54l138 41v82q0 207 49 298t170 91q70 0 127 -25l-33 -88q-53 25 -96 25q-49 0 -74 -29t-37 -94 t-12 -180v-91h170v-84h-170v-1001h-94v1001h-138zM1063 0v1556h95v-1556h-95z" />
<glyph unicode="&#xd;" horiz-adv-x="1044" />
<glyph unicode=" "  horiz-adv-x="385" />
<glyph unicode="&#x09;" horiz-adv-x="385" />
<glyph unicode="&#xa0;" horiz-adv-x="385" />
<glyph unicode="!" horiz-adv-x="451" d="M147 90q0 107 78 107q32 0 55 -24t23 -83q0 -57 -23 -81.5t-55 -24.5q-78 0 -78 106zM162 1462h125l-35 -1095h-55z" />
<glyph unicode="&#x22;" horiz-adv-x="686" d="M133 1462h123l-29 -528h-61zM430 1462h123l-29 -528h-61z" />
<glyph unicode="#" horiz-adv-x="868" d="M37 467v90h178l45 399h-178v86h188l47 420h82l-49 -420h236l49 420h76l-47 -420h165v-86h-176l-45 -399h174v-90h-184l-53 -467h-82l55 467h-233l-54 -467h-77l51 467h-168zM295 557h233l47 399h-235z" />
<glyph unicode="$" d="M94 176v103q52 -30 126.5 -47t146.5 -17v494q-148 62 -205.5 139t-57.5 201q0 125 73.5 213.5t189.5 107.5v186h82v-182q140 -4 258 -61l-37 -86q-117 54 -221 57v-508q151 -62 214.5 -139t63.5 -193q0 -123 -75.5 -208.5t-202.5 -106.5v-248h-82v242q-175 0 -273 53z M201 1055q0 -95 39.5 -149.5t126.5 -96.5v469q-75 -17 -120.5 -78.5t-45.5 -144.5zM449 223q82 19 131 78.5t49 136.5q0 85 -41.5 141t-138.5 97v-453z" />
<glyph unicode="%" horiz-adv-x="1208" d="M94 1026q0 221 50.5 339t150.5 118t152.5 -116.5t52.5 -340.5q0 -220 -54 -340.5t-151 -120.5q-99 0 -150 120t-51 341zM184 1028q0 -190 25.5 -284.5t87.5 -94.5q60 0 86.5 93.5t26.5 285.5q0 377 -117 377q-59 0 -84 -93.5t-25 -283.5zM322 0l475 1462h88l-475 -1462 h-88zM709 440q0 229 51.5 343t148.5 114q100 0 152.5 -116.5t52.5 -340.5q0 -223 -54 -341.5t-151 -118.5q-98 0 -149 121t-51 339zM799 442q0 -190 25 -284.5t87 -94.5q60 0 86.5 93.5t26.5 285.5q0 377 -117 377q-59 0 -83.5 -93.5t-24.5 -283.5z" />
<glyph unicode="&#x26;" horiz-adv-x="834" d="M66 356q0 91 22 162.5t65 132t132 137.5q-74 136 -96.5 222.5t-22.5 193.5q0 132 52 205.5t142 73.5q91 0 143 -75.5t52 -213.5t-38 -235t-126 -185l236 -422q57 118 57 293h94q0 -94 -29 -204t-69 -181l156 -260h-109l-98 178q-73 -110 -142 -154t-159 -44 q-122 0 -192 99t-70 277zM162 354q0 -135 47.5 -207.5t126.5 -72.5q72 0 131 46t113 142l-254 455q-95 -88 -129.5 -167.5t-34.5 -195.5zM260 1194q0 -87 24.5 -183t63.5 -161q65 66 89 152t24 192q0 199 -105 199q-46 0 -71 -51t-25 -148z" />
<glyph unicode="'" horiz-adv-x="389" d="M133 1462h123l-29 -528h-61z" />
<glyph unicode="(" horiz-adv-x="565" d="M104 561q0 259 78 494.5t219 406.5h80q-134 -198 -203 -429.5t-69 -469.5q0 -243 72.5 -479t197.5 -408h-78q-143 167 -220 397t-77 488z" />
<glyph unicode=")" horiz-adv-x="565" d="M84 1462h80q143 -170 220 -407t77 -494q0 -258 -76.5 -488.5t-220.5 -396.5h-78q129 181 199.5 415t70.5 472q0 239 -69 469.5t-203 429.5z" />
<glyph unicode="*" horiz-adv-x="745" d="M94 1255l17 107l229 -55l-27 249h121l-28 -249l231 57l14 -107l-227 -8l156 -227l-97 -45l-108 237l-117 -239l-92 47l149 227z" />
<glyph unicode="+" d="M59 682v82h310v434h82v-434h309v-82h-309v-432h-82v432h-310z" />
<glyph unicode="," horiz-adv-x="422" d="M78 -264q75 255 100 469h115l14 -23q-66 -225 -166 -446h-63z" />
<glyph unicode="-" horiz-adv-x="516" d="M53 502v102h410v-102h-410z" />
<glyph unicode="." horiz-adv-x="422" d="M133 90q0 107 78 107q32 0 55 -24t23 -83q0 -57 -23 -81.5t-55 -24.5q-78 0 -78 106z" />
<glyph unicode="/" horiz-adv-x="713" d="M51 0l527 1462h96l-522 -1462h-101z" />
<glyph unicode="0" d="M88 733q0 750 320 750q166 0 243.5 -186t77.5 -564q0 -371 -80.5 -562t-240.5 -191q-169 0 -244.5 176.5t-75.5 576.5zM190 733q0 -330 52.5 -494.5t165.5 -164.5q219 0 219 659q0 656 -219 656q-113 0 -165.5 -162t-52.5 -494z" />
<glyph unicode="1" d="M150 1202l282 260h80v-1462h-96v1075q0 131 8 283q-21 -28 -98 -105l-125 -114z" />
<glyph unicode="2" d="M74 0v78l295 446q136 207 182.5 332t46.5 279q0 118 -61 188t-166 70q-69 0 -120.5 -20.5t-103.5 -61.5l-53 75q70 53 134.5 75t148.5 22q151 0 235 -94t84 -254q0 -110 -24.5 -207t-69 -190t-147.5 -242l-269 -398v-8h543v-90h-655z" />
<glyph unicode="3" d="M76 1350q74 72 146.5 102.5t158.5 30.5q144 0 229.5 -95t85.5 -251q0 -137 -59 -232.5t-178 -138.5v-8q123 -27 191.5 -122.5t68.5 -240.5q0 -190 -96.5 -302.5t-262.5 -112.5q-168 0 -276 53v108q126 -73 276 -73q122 0 190 88.5t68 242.5q0 146 -79 229t-234 83h-74v92 h80q128 0 207.5 89.5t79.5 235.5q0 125 -56.5 196t-158.5 71q-69 0 -123.5 -23t-122.5 -86z" />
<glyph unicode="4" d="M37 332v84l479 1063h121v-1057h156v-90h-156v-332h-96v332h-504zM137 422h404v706q0 122 8 238h-6l-74 -188z" />
<glyph unicode="5" d="M98 35v110q110 -77 240 -77q133 0 211 109t78 284q0 164 -70 245.5t-192 81.5q-102 0 -207 -30l-49 63l43 641h495v-94h-414l-36 -514q90 20 174 20q164 0 260 -109t96 -300q0 -221 -105 -353t-280 -132q-156 0 -244 55z" />
<glyph unicode="6" d="M100 623q0 439 107 649.5t317 210.5q77 0 127 -23v-96q-58 25 -135 25q-144 0 -225.5 -165.5t-91.5 -482.5h8q34 76 93 119t136 43q136 0 214.5 -121t78.5 -333q0 -219 -83 -344t-224 -125q-157 0 -239.5 165t-82.5 478zM201 524q0 -125 28.5 -232.5t78 -162.5t116.5 -55 q99 0 152 92t53 278q0 178 -52 272.5t-155 94.5q-100 0 -160.5 -81t-60.5 -206z" />
<glyph unicode="7" d="M57 1368v94h691v-82l-451 -1380h-102l454 1368h-592z" />
<glyph unicode="8" d="M72 350q0 126 54.5 224.5t190.5 187.5q-211 162 -211 381q0 151 85.5 245.5t220.5 94.5q138 0 222.5 -89.5t84.5 -246.5q0 -242 -240 -385q107 -72 160 -128t82 -122.5t29 -149.5q0 -167 -92.5 -274.5t-235.5 -107.5q-154 0 -252 102.5t-98 267.5zM174 348 q0 -126 66 -202t174 -76q106 0 169.5 79.5t63.5 217.5q0 178 -207 321l-49 33q-121 -78 -169 -161.5t-48 -211.5zM207 1139q0 -103 45 -180t158 -152q109 65 158.5 147t49.5 185q0 120 -54.5 187t-153.5 67q-94 0 -148.5 -67t-54.5 -187z" />
<glyph unicode="9" d="M82 1014q0 218 84.5 343.5t234.5 125.5q153 0 231.5 -161.5t78.5 -463.5q0 -437 -109.5 -657.5t-320.5 -220.5q-37 0 -78.5 7t-57.5 15v96q55 -24 144 -24q145 0 229 168t94 479h-8q-34 -76 -93 -119t-136 -43q-137 0 -215 123t-78 332zM182 1018q0 -178 52 -272.5 t155 -94.5q100 0 160.5 84.5t60.5 225.5q0 125 -26.5 225t-74.5 151.5t-114 51.5q-98 0 -155.5 -92.5t-57.5 -278.5z" />
<glyph unicode=":" horiz-adv-x="422" d="M133 90q0 107 78 107q32 0 55 -24t23 -83q0 -57 -23 -81.5t-55 -24.5q-78 0 -78 106zM133 981q0 106 78 106t78 -106q0 -57 -23 -82t-55 -25q-78 0 -78 107z" />
<glyph unicode=";" horiz-adv-x="422" d="M78 -264q75 255 100 469h115l14 -23q-66 -225 -166 -446h-63zM133 981q0 106 78 106t78 -106q0 -57 -23 -82t-55 -25q-78 0 -78 107z" />
<glyph unicode="&#x3c;" d="M59 690v68l703 399v-100l-600 -334l600 -334v-102z" />
<glyph unicode="=" d="M59 465v82h701v-82h-701zM59 895v82h701v-82h-701z" />
<glyph unicode="&#x3e;" d="M57 287v102l600 334l-600 334v100l703 -399v-68z" />
<glyph unicode="?" horiz-adv-x="578" d="M35 1409q99 74 225 74q130 0 200 -83t70 -241q0 -121 -31 -202t-128 -228q-59 -88 -83 -157t-24 -169v-36h-74v51q0 114 20.5 187.5t78.5 160.5q88 134 114.5 213.5t26.5 173.5q0 116 -45.5 178t-124.5 62q-57 0 -97 -16t-81 -44zM156 90q0 107 77 107q32 0 55 -24 t23 -83q0 -57 -23 -81.5t-55 -24.5q-77 0 -77 106z" />
<glyph unicode="@" horiz-adv-x="1233" d="M111 580q0 274 66 476t190 309.5t288 107.5q138 0 247.5 -93t168.5 -261.5t59 -383.5q0 -504 -225 -504q-83 0 -119 54t-38 153h-9q-17 -108 -54 -157.5t-103 -49.5q-88 0 -136.5 93.5t-48.5 263.5q0 473 262 473q88 0 164 -29l-20 -477v-61q0 -91 26.5 -129.5 t75.5 -38.5q68 0 97.5 102t29.5 313q0 190 -47.5 336t-134 226.5t-197.5 80.5q-133 0 -236 -99t-158.5 -278.5t-55.5 -410.5q0 -326 102.5 -508t284.5 -182q69 0 128.5 20t96.5 49v-94q-50 -31 -104 -46t-127 -15q-230 0 -351.5 194.5t-121.5 565.5zM496 584 q0 -258 104 -258q45 0 70.5 83t34.5 257l16 305q-27 8 -72 8q-74 0 -113.5 -100t-39.5 -295z" />
<glyph unicode="A" horiz-adv-x="813" d="M0 0l352 1462h101l360 -1462h-100l-129 530h-355l-127 -530h-102zM248 629h313l-129 545q-20 92 -31 174q-9 -87 -28 -174z" />
<glyph unicode="B" horiz-adv-x="907" d="M160 0v1462h280q172 0 264.5 -88t92.5 -260q0 -297 -217 -340v-8q125 -26 186 -111.5t61 -238.5q0 -196 -87 -306t-244 -110h-336zM258 90h225q242 0 242 328q0 146 -71 224.5t-199 78.5h-197v-631zM258 811h184q137 0 195.5 75.5t58.5 229.5q0 124 -64.5 190t-191.5 66 h-182v-561z" />
<glyph unicode="C" horiz-adv-x="860" d="M111 735q0 350 124.5 550t339.5 200q134 0 234 -62l-45 -86q-84 54 -191 54q-165 0 -262.5 -174.5t-97.5 -483.5q0 -201 45 -350t129 -229t195 -80q114 0 196 41v-90q-78 -45 -205 -45q-139 0 -243.5 90t-161.5 260.5t-57 404.5z" />
<glyph unicode="D" horiz-adv-x="995" d="M160 0v1462h266q226 0 342.5 -182.5t116.5 -534.5q0 -745 -465 -745h-260zM258 90h156q190 0 279 166t89 483q0 309 -91 471t-269 162h-164v-1282z" />
<glyph unicode="E" horiz-adv-x="788" d="M160 0v1462h530v-94h-432v-555h408v-94h-408v-625h432v-94h-530z" />
<glyph unicode="F" horiz-adv-x="729" d="M160 0v1462h532v-94h-434v-620h410v-95h-410v-653h-98z" />
<glyph unicode="G" horiz-adv-x="1075" d="M111 735q0 356 136.5 552t383.5 196q166 0 313 -94l-47 -86q-138 88 -266 88q-205 0 -310.5 -168.5t-105.5 -489.5q0 -314 106.5 -486.5t301.5 -172.5q140 0 239 37v532h-221v94h320v-692q-167 -65 -347 -65q-239 0 -371 200t-132 555z" />
<glyph unicode="H" horiz-adv-x="1026" d="M160 0v1462h98v-649h510v649h98v-1462h-98v719h-510v-719h-98z" />
<glyph unicode="I" horiz-adv-x="418" d="M160 0v1462h98v-1462h-98z" />
<glyph unicode="J" horiz-adv-x="401" d="M-90 -252q49 -20 115 -20q63 0 94 57.5t31 189.5v1487h98v-1485q0 -172 -56 -259t-165 -87q-67 0 -117 25v92z" />
<glyph unicode="K" horiz-adv-x="825" d="M160 0v1462h98v-774q51 96 432 774h107l-367 -643l395 -819h-110l-344 729l-113 -149v-580h-98z" />
<glyph unicode="L" horiz-adv-x="711" d="M160 0v1462h98v-1368h412v-94h-510z" />
<glyph unicode="M" horiz-adv-x="1395" d="M160 0v1462h145l328 -1118q44 -148 57 -252h8q10 74 62 250l325 1120h150v-1462h-98v1057q0 62 10 272h-8l-387 -1329h-111l-389 1331h-8q10 -210 10 -266v-1065h-94z" />
<glyph unicode="N" horiz-adv-x="1090" d="M160 0v1462h127l549 -1296h6q-8 164 -8 274v1022h96v-1462h-125l-553 1311h-8q12 -136 12 -262v-1049h-96z" />
<glyph unicode="O" horiz-adv-x="1065" d="M111 735q0 378 106 563t318 185q204 0 311.5 -194.5t107.5 -555.5q0 -363 -108.5 -558t-313.5 -195q-207 0 -314 196.5t-107 558.5zM213 733q0 -326 81.5 -492.5t237.5 -166.5q157 0 238.5 165t81.5 494q0 325 -80 490.5t-237 165.5q-161 0 -241.5 -167.5t-80.5 -488.5z " />
<glyph unicode="P" horiz-adv-x="840" d="M160 0v1462h200q214 0 313 -101t99 -319q0 -226 -103.5 -332t-306.5 -106h-104v-604h-98zM258 694h98q172 0 244 81t72 267q0 177 -74.5 253.5t-230.5 76.5h-109v-678z" />
<glyph unicode="Q" horiz-adv-x="1065" d="M111 735q0 378 106 563t318 185q204 0 311.5 -194.5t107.5 -555.5q0 -291 -70.5 -476t-203.5 -247l213 -358h-125l-186 332l-50 -4q-207 0 -314 196.5t-107 558.5zM213 733q0 -326 81.5 -492.5t237.5 -166.5q157 0 238.5 165t81.5 494q0 325 -80 490.5t-237 165.5 q-161 0 -241.5 -167.5t-80.5 -488.5z" />
<glyph unicode="R" horiz-adv-x="870" d="M160 0v1462h200q214 0 313 -101t99 -302q0 -152 -54 -250t-181 -147l290 -662h-110l-273 639h-186v-639h-98zM258 729h137q133 0 205 82t72 244q0 165 -73.5 238t-231.5 73h-109v-637z" />
<glyph unicode="S" horiz-adv-x="809" d="M86 31v106q52 -29 129 -46t152 -17q112 0 184 85t72 216q0 121 -51 192t-195 142q-113 57 -169 110.5t-83 124.5t-27 170q0 108 44 192t123 130.5t173 46.5q85 0 154.5 -19t109.5 -41l-38 -94q-111 57 -226 57q-108 0 -175.5 -73.5t-67.5 -194.5q0 -123 49 -191t192 -141 q148 -72 216.5 -168.5t68.5 -234.5q0 -180 -100 -291.5t-254 -111.5q-175 0 -281 51z" />
<glyph unicode="T" horiz-adv-x="711" d="M14 1368v94h680v-94h-291v-1368h-98v1368h-291z" />
<glyph unicode="U" horiz-adv-x="1012" d="M147 475v987h99v-999q0 -190 68.5 -289.5t195.5 -99.5q126 0 191 99.5t65 293.5v995h98v-987q0 -495 -354 -495q-177 0 -270 128t-93 367z" />
<glyph unicode="V" horiz-adv-x="799" d="M0 1462h102l238 -1028q28 -118 37 -173.5t18 -139.5q8 58 17 114t17.5 94.5t268.5 1132.5h101l-346 -1462h-109z" />
<glyph unicode="W" horiz-adv-x="1395" d="M10 1462h103l206 -1007q48 -246 62 -344q22 160 57 340l205 1011h111l204 -1007q32 -164 46 -270l10 -74q29 211 57 344l213 1007h100l-311 -1462h-119l-223 1094q-6 27 -35 239l-14 -95l-23 -142l-219 -1096h-116z" />
<glyph unicode="X" horiz-adv-x="715" d="M20 0l306 776l-263 686h103l217 -608l211 608h100l-258 -708l258 -754h-102l-219 672l-254 -672h-99z" />
<glyph unicode="Y" horiz-adv-x="686" d="M0 1462h104l240 -755l238 755h104l-295 -891v-571h-98v571z" />
<glyph unicode="Z" horiz-adv-x="643" d="M57 0v88l424 1278h-418v96h527v-90l-430 -1278h442v-94h-545z" />
<glyph unicode="[" horiz-adv-x="645" d="M174 -324v1786h397v-90h-303v-1605h303v-91h-397z" />
<glyph unicode="\" horiz-adv-x="713" d="M51 1462h96l527 -1462h-101z" />
<glyph unicode="]" horiz-adv-x="645" d="M74 -233h303v1605h-303v90h397v-1786h-397v91z" />
<glyph unicode="^" d="M37 758l338 702h67l340 -702h-102l-270 590l-273 -590h-100z" />
<glyph unicode="_" horiz-adv-x="842" d="M-4 -184h850v-82h-850v82z" />
<glyph unicode="`" horiz-adv-x="1126" d="M434 1552v17h125q27 -63 82.5 -152t108.5 -155v-21h-48q-65 53 -148.5 148t-119.5 163z" />
<glyph unicode="a" horiz-adv-x="784" d="M78 291q0 155 93 245.5t261 98.5l117 6v90q0 152 -38 221.5t-126 69.5q-93 0 -190 -61l-41 75q113 70 237 70q134 0 193 -84.5t59 -282.5v-739h-78l-12 152h-4q-78 -172 -236 -172q-106 0 -170.5 84.5t-64.5 226.5zM178 289q0 -118 42 -173t114 -55q102 0 158.5 100.5 t56.5 284.5v113l-113 -6q-131 -7 -194.5 -72.5t-63.5 -191.5z" />
<glyph unicode="b" horiz-adv-x="893" d="M145 0v1556h95v-483l-4 -131h8q86 162 237 162q318 0 318 -559q0 -276 -79 -420.5t-228 -144.5q-78 0 -142 43t-106 127h-8l-13 -150h-78zM240 520q0 -454 241 -454q110 0 164.5 117t54.5 362q0 235 -53 353t-170 118q-125 0 -181 -110t-56 -361v-25z" />
<glyph unicode="c" horiz-adv-x="635" d="M96 537q0 278 83.5 423.5t246.5 145.5q101 0 168 -37l-37 -84q-67 31 -123 31q-239 0 -239 -477q0 -473 239 -473q71 0 154 32v-80q-33 -18 -81 -28t-83 -10q-163 0 -245.5 141.5t-82.5 415.5z" />
<glyph unicode="d" horiz-adv-x="893" d="M94 541q0 276 79 420.5t233 144.5q73 0 138.5 -42t104.5 -116h8l-4 121v487h95v-1556h-78l-8 152h-9q-39 -83 -101 -127.5t-142 -44.5q-316 0 -316 561zM193 539q0 -234 53 -355t170 -121q114 0 175.5 105.5t61.5 310.5v62q0 246 -59.5 360.5t-181.5 114.5 q-117 0 -168 -122.5t-51 -354.5z" />
<glyph unicode="e" horiz-adv-x="803" d="M96 535q0 278 82.5 424.5t237.5 146.5q135 0 213 -128.5t78 -346.5v-88h-514q2 -237 67 -355t197 -118q102 0 215 67v-92q-104 -65 -219 -65q-172 0 -264.5 146.5t-92.5 408.5zM195 629h417q0 179 -54.5 285t-147.5 106q-196 0 -215 -391z" />
<glyph unicode="f" horiz-adv-x="453" d="M20 1001v54l138 41v82q0 207 49 298t170 91q70 0 127 -25l-33 -88q-53 25 -96 25q-49 0 -74 -29t-37 -94t-12 -180v-91h170v-84h-170v-1001h-94v1001h-138z" />
<glyph unicode="g" horiz-adv-x="741" d="M35 -203q0 102 52 174.5t163 114.5q-50 22 -80.5 61t-30.5 93q0 49 32.5 87.5t92.5 82.5q-83 38 -125.5 123t-42.5 200q0 173 73 273t200 100q68 0 114 -21h230v-67l-148 -17q30 -39 49 -111.5t19 -148.5q0 -158 -71.5 -256t-188.5 -98h-24l-21 2q-48 -34 -75.5 -68 t-27.5 -79q0 -46 36 -71.5t97 -25.5h68q145 0 225 -75t80 -217q0 -159 -107.5 -252t-283.5 -93q-147 0 -226 74.5t-79 214.5zM129 -195q0 -103 53.5 -161t161.5 -58q134 0 212.5 70t78.5 192q0 98 -53.5 151.5t-155.5 53.5h-70q-98 0 -162.5 -68.5t-64.5 -179.5zM188 731 q0 -133 49 -201.5t130 -68.5q174 0 174 280q0 135 -44.5 211t-129.5 76q-87 0 -133 -78t-46 -219z" />
<glyph unicode="h" horiz-adv-x="870" d="M145 0v1556h95v-505q0 -69 -4 -115h8q32 81 96.5 125.5t134.5 44.5q138 0 196 -90t58 -268v-748h-94v748q0 147 -38.5 208.5t-125.5 61.5q-115 0 -173 -102t-58 -322v-594h-95z" />
<glyph unicode="i" horiz-adv-x="385" d="M131 1386q0 45 18.5 70t47.5 25q27 0 43 -25t16 -70q0 -43 -16 -68.5t-43 -25.5q-29 0 -47.5 25.5t-18.5 68.5zM145 0v1085h95v-1085h-95z" />
<glyph unicode="j" horiz-adv-x="385" d="M-4 -385q32 -16 63 -16q47 0 66.5 45.5t19.5 140.5v1300h95v-1286q0 -149 -43 -220t-134 -71q-42 0 -67 17v90zM131 1386q0 45 18.5 70t47.5 25q27 0 43 -25t16 -70q0 -43 -16 -68.5t-43 -25.5q-29 0 -47.5 25.5t-18.5 68.5z" />
<glyph unicode="k" horiz-adv-x="711" d="M145 0v1556h95v-837l-7 -182h9l61 110l268 438h103l-250 -399l272 -686h-100l-236 598l-120 -158v-440h-95z" />
<glyph unicode="l" horiz-adv-x="385" d="M145 0v1556h95v-1556h-95z" />
<glyph unicode="m" horiz-adv-x="1303" d="M145 0v1085h80l8 -151h9q65 172 221 172q90 0 142 -48t75 -140q39 100 96 144t148 44q123 0 180 -94.5t57 -302.5v-709h-94v739q0 273 -160 273q-110 0 -158.5 -95.5t-48.5 -281.5v-635h-94v739q0 138 -39 205.5t-121 67.5q-108 0 -157 -98t-49 -318v-596h-95z" />
<glyph unicode="n" horiz-adv-x="870" d="M145 0v1085h80l8 -151h9q34 82 98 127t137 45q126 0 189 -84.5t63 -271.5v-750h-94v748q0 270 -160 270q-122 0 -178.5 -101t-56.5 -321v-596h-95z" />
<glyph unicode="o" horiz-adv-x="850" d="M94 545q0 561 332 561q156 0 243 -147t87 -414q0 -274 -86.5 -419.5t-247.5 -145.5q-159 0 -243.5 145.5t-84.5 419.5zM193 545q0 -235 56 -355t175 -120q233 0 233 475q0 471 -233 471q-122 0 -176.5 -118t-54.5 -353z" />
<glyph unicode="p" horiz-adv-x="893" d="M145 -492v1577h78l10 -149h9q40 82 102.5 126t136.5 44q318 0 318 -561q0 -271 -78 -418t-227 -147q-82 0 -149.5 45.5t-102.5 124.5h-9l7 -119v-523h-95zM240 551q0 -250 59 -367.5t180 -117.5q112 0 166.5 116.5t54.5 362.5q0 235 -51 353t-174 118q-119 0 -177 -105 t-58 -329v-31z" />
<glyph unicode="q" horiz-adv-x="893" d="M94 541q0 287 84 426t232 139q156 0 239 -166h8l15 145h76v-1577h-95v469q0 67 9 181h-9q-86 -178 -247 -178q-151 0 -231.5 138.5t-80.5 422.5zM193 539q0 -249 54.5 -361t172.5 -112q111 0 172 108.5t61 317.5v49q0 246 -59.5 360.5t-181.5 114.5q-117 0 -168 -122.5 t-51 -354.5z" />
<glyph unicode="r" horiz-adv-x="559" d="M145 0v1085h78l10 -190h7q76 211 206 211q51 0 95 -14l-23 -95q-36 15 -74 15q-55 0 -102.5 -56.5t-74.5 -157.5t-27 -223v-575h-95z" />
<glyph unicode="s" horiz-adv-x="645" d="M74 41v111q37 -37 98 -59.5t125 -22.5q84 0 132 55t48 147q0 72 -34.5 121.5t-131.5 112.5q-111 70 -151.5 112t-63 94t-22.5 124q0 117 79 193.5t201 76.5q131 0 219 -62l-49 -83q-82 55 -174 55q-84 0 -134 -49.5t-50 -130.5q0 -72 34 -120.5t144 -117.5 q108 -71 148 -113.5t59.5 -94t19.5 -118.5q0 -137 -72 -214.5t-208 -77.5q-74 0 -130 19t-87 42z" />
<glyph unicode="t" horiz-adv-x="449" d="M43 1001v56l96 28l31 258h66v-258h172v-84h-172v-743q0 -110 24 -150t84 -40q44 0 78 12v-80q-44 -20 -113 -20q-168 0 -168 251v770h-98z" />
<glyph unicode="u" horiz-adv-x="870" d="M141 377v708h95v-708q0 -161 38.5 -235t118.5 -74q123 0 180.5 99.5t57.5 321.5v596h94v-1085h-80l-12 152h-8q-35 -83 -97 -127.5t-135 -44.5q-131 0 -191.5 93t-60.5 304z" />
<glyph unicode="v" horiz-adv-x="653" d="M10 1085h96l162 -698q28 -121 54 -264h8q7 52 20 116t197 846h96l-264 -1085h-113z" />
<glyph unicode="w" horiz-adv-x="1124" d="M20 1085h95l135 -632l63 -330h6q18 143 58 332l135 630h100l136 -632q16 -71 57 -330h6q3 33 29.5 166t169.5 796h94l-244 -1085h-112l-150 735q-2 8 -3.5 17t-31.5 192h-2l-14 -85l-23 -124l-155 -735h-113z" />
<glyph unicode="x" horiz-adv-x="676" d="M35 0l258 563l-238 522h103l182 -440l190 440h99l-242 -534l254 -551h-100l-203 469l-205 -469h-98z" />
<glyph unicode="y" horiz-adv-x="653" d="M-2 -389q40 -14 78 -14q60 0 95 51.5t62 165.5l48 188l-271 1083h96l164 -677q29 -122 56 -275h8q19 133 53 277l160 675h96l-317 -1290q-35 -143 -91.5 -215t-150.5 -72q-38 0 -86 17v86z" />
<glyph unicode="z" horiz-adv-x="541" d="M59 0v76l320 925h-299v84h399v-77l-319 -924h334v-84h-435z" />
<glyph unicode="{" horiz-adv-x="737" d="M109 535v69q77 0 121.5 20t64.5 62.5t20 132.5v324q0 148 84 231.5t234 87.5v-80q-112 -2 -165.5 -59t-53.5 -176v-316q0 -121 -45.5 -179.5t-149.5 -78.5v-8q106 -20 150.5 -78.5t44.5 -179.5v-315q0 -119 53.5 -176.5t165.5 -59.5v-80q-152 4 -235 89t-83 231v323 q0 89 -19.5 132t-63.5 63.5t-123 20.5z" />
<glyph unicode="|" d="M362 -492v2048h95v-2048h-95z" />
<glyph unicode="}" horiz-adv-x="737" d="M104 -244q112 2 166 59.5t54 176.5v315q0 121 44.5 179.5t149.5 78.5v8q-103 20 -148.5 78.5t-45.5 179.5v316q0 119 -54 176t-166 59v80q150 -4 234 -88t84 -231v-324q0 -90 20 -132t64.5 -62.5t122.5 -20.5v-69q-78 0 -122.5 -20.5t-64.5 -62.5t-20 -133v-323 q0 -147 -83.5 -231.5t-234.5 -88.5v80z" />
<glyph unicode="~" d="M59 618v99q75 106 185 106q39 0 75 -9.5t109 -49.5q49 -28 83 -40.5t69 -12.5q49 0 96 32.5t84 83.5v-98q-73 -104 -180 -104q-49 0 -83.5 10.5t-103.5 48.5q-59 33 -89 44t-62 11q-41 0 -90.5 -32.5t-92.5 -88.5z" />
<glyph unicode="&#xa1;" horiz-adv-x="451" d="M147 981q0 106 78 106q32 0 55 -24.5t23 -81.5q0 -59 -23 -83t-55 -24q-78 0 -78 107zM162 -391l35 1096h55l35 -1096h-125z" />
<glyph unicode="&#xa2;" d="M168 745q0 249 67 392.5t203 171.5v174h82v-168q88 -6 146 -37l-37 -86q-70 29 -123 29q-126 0 -182 -122t-56 -351q0 -469 238 -469q70 0 153 32v-84q-51 -30 -139 -39v-208h-82v213q-135 23 -202.5 164t-67.5 388z" />
<glyph unicode="&#xa3;" d="M80 682v86h158v354q0 183 64.5 272t203.5 89q134 0 235 -88l-55 -76q-53 43 -93 58.5t-89 15.5q-90 0 -129 -65.5t-39 -207.5v-352h250v-86h-250v-287q0 -214 -121 -301h522v-94h-645v82q68 29 107 110.5t39 200.5v289h-158z" />
<glyph unicode="&#xa4;" horiz-adv-x="1135" d="M125 1106l57 57l135 -137q109 90 250 90q139 0 246 -88l135 135l60 -57l-136 -135q89 -108 89 -248t-89 -248l136 -137l-58 -57l-137 135q-107 -86 -246 -86q-143 0 -250 88l-133 -135l-57 59l133 133q-86 110 -86 248q0 136 86 246zM252 723q0 -132 91 -223.5t224 -91.5 t225.5 92t92.5 223q0 85 -42 158t-116.5 116t-159.5 43t-158.5 -42.5t-115 -115.5t-41.5 -159z" />
<glyph unicode="&#xa5;" d="M106 1462h97l207 -766l202 766h99l-228 -807h197v-82h-221v-200h221v-82h-221v-291h-103v291h-215v82h215v198l-2 2h-213v82h191z" />
<glyph unicode="&#xa6;" d="M362 307h95v-799h-95v799zM362 758v798h95v-798h-95z" />
<glyph unicode="&#xa7;" horiz-adv-x="698" d="M82 154v100q40 -35 99 -54.5t124 -19.5q90 0 145.5 52t55.5 130q0 64 -33 107.5t-133 103.5l-94 55q-82 48 -123 103.5t-41 126.5q0 81 39.5 139.5t107.5 87.5q-127 89 -127 218q0 113 78 183t197 70q59 0 100.5 -10t104.5 -45l-39 -74q-50 30 -87.5 40t-82.5 10 q-81 0 -129.5 -45t-48.5 -117q0 -64 34 -107.5t144 -107.5q109 -63 148 -100t59 -81.5t20 -105.5q0 -71 -33 -134t-86 -95q65 -50 92 -101.5t27 -113.5q0 -123 -79.5 -197t-213.5 -74q-138 0 -225 56zM174 870q0 -65 53 -118t187 -117q92 53 92 172q0 50 -17 85t-54.5 65 t-135.5 83q-63 -20 -94 -65.5t-31 -104.5z" />
<glyph unicode="&#xa8;" horiz-adv-x="1126" d="M348 1389q0 43 19.5 62t44.5 19q23 0 42 -19t19 -62q0 -44 -19 -64t-42 -20q-25 0 -44.5 20t-19.5 64zM653 1389q0 43 19.5 62t42.5 19q25 0 44 -19t19 -62q0 -44 -19 -64t-44 -20q-23 0 -42.5 20t-19.5 64z" />
<glyph unicode="&#xa9;" horiz-adv-x="1704" d="M100 731q0 200 100 375t275 276t377 101q200 0 375 -100t276 -275t101 -377q0 -197 -97 -370t-272 -277t-383 -104q-207 0 -382 103.5t-272.5 276.5t-97.5 371zM193 731q0 -178 88.5 -329.5t240.5 -240.5t330 -89t329.5 88.5t240.5 240.5t89 330q0 174 -85.5 325 t-239 243t-334.5 92q-176 0 -328.5 -88.5t-241.5 -242.5t-89 -329zM489 725q0 208 111 332.5t297 124.5q119 0 227 -52l-37 -83q-98 45 -190 45q-142 0 -222.5 -94.5t-80.5 -264.5q0 -186 74.5 -275t220.5 -89q84 0 198 43v-88q-102 -45 -208 -45q-187 0 -288.5 115 t-101.5 331z" />
<glyph unicode="&#xaa;" horiz-adv-x="578" d="M57 989q0 91 55 140.5t177 60.5l92 8v72q0 74 -24 106.5t-81 32.5q-62 0 -133 -39l-28 64q81 45 170 45q96 0 137 -50t41 -157v-455h-57l-15 84h-8q-69 -96 -172 -96q-67 0 -110.5 49.5t-43.5 134.5zM143 987q0 -113 95 -113q68 0 105.5 51.5t37.5 143.5v66l-62 -7 q-95 -9 -135.5 -40.5t-40.5 -100.5z" />
<glyph unicode="&#xab;" horiz-adv-x="856" d="M82 514v27l287 366l61 -35l-219 -344l219 -344l-61 -37zM426 514v27l289 366l59 -35l-217 -344l217 -344l-59 -37z" />
<glyph unicode="&#xac;" d="M59 682v82h680v-514h-82v432h-598z" />
<glyph unicode="&#xad;" horiz-adv-x="516" d="M53 502v102h410v-102h-410z" />
<glyph unicode="&#xae;" horiz-adv-x="1704" d="M100 731q0 200 100 375t275 276t377 101q200 0 375 -100t276 -275t101 -377q0 -197 -97 -370t-272 -277t-383 -104q-207 0 -382 103.5t-272.5 276.5t-97.5 371zM193 731q0 -178 88.5 -329.5t240.5 -240.5t330 -89t329.5 88.5t240.5 240.5t89 330q0 174 -85.5 325 t-239 243t-334.5 92q-176 0 -328.5 -88.5t-241.5 -242.5t-89 -329zM608 291v880h211q143 0 222 -62t79 -191q0 -175 -147 -240l198 -387h-114l-174 360h-174v-360h-101zM709 731h112q91 0 143 46.5t52 135.5q0 172 -197 172h-110v-354z" />
<glyph unicode="&#xaf;" horiz-adv-x="842" d="M-8 1556v82h858v-82h-858z" />
<glyph unicode="&#xb0;" horiz-adv-x="877" d="M139 1184q0 132 86.5 215.5t212.5 83.5t212.5 -83.5t86.5 -215.5t-86.5 -215.5t-212.5 -83.5q-130 0 -214.5 83t-84.5 216zM229 1184q0 -91 61 -154t148 -63q86 0 147.5 62t61.5 155q0 92 -60 154.5t-149 62.5q-90 0 -149.5 -64t-59.5 -153z" />
<glyph unicode="&#xb1;" d="M59 0v82h701v-82h-701zM59 682v82h310v434h82v-434h309v-82h-309v-432h-82v432h-310z" />
<glyph unicode="&#xb2;" horiz-adv-x="614" d="M49 586v78l178 223q79 98 116.5 154.5t53 101t15.5 108.5q0 66 -37.5 106t-104.5 40q-88 0 -164 -82l-55 61q94 107 221 107q110 0 172 -62.5t62 -169.5q0 -87 -38 -164.5t-173 -242.5l-145 -176h370v-82h-471z" />
<glyph unicode="&#xb3;" horiz-adv-x="614" d="M47 1395q99 90 219 90q111 0 171.5 -61.5t60.5 -168.5q0 -72 -36.5 -125t-101.5 -77v-9q166 -46 166 -225q0 -110 -75.5 -180t-200.5 -70q-99 0 -197 43v95q95 -52 199 -52q94 0 137 45t43 119q0 90 -51.5 137.5t-153.5 47.5h-61v81h65q85 0 131 48t46 127 q0 66 -39.5 102.5t-110.5 36.5q-84 0 -158 -72z" />
<glyph unicode="&#xb4;" horiz-adv-x="1126" d="M434 1241v21q127 166 191 307h125v-17q-39 -70 -118.5 -161t-150.5 -150h-47z" />
<glyph unicode="&#xb5;" horiz-adv-x="874" d="M145 -492v1577h95v-733q0 -284 157 -284q123 0 180.5 99.5t57.5 321.5v596h94v-1085h-80l-12 152h-8q-34 -81 -95 -126.5t-128 -45.5q-118 0 -166 106h-9q9 -120 9 -183v-395h-95z" />
<glyph unicode="&#xb6;" horiz-adv-x="967" d="M150 1042q0 255 63 384.5t201 129.5h354v-1816h-94v1720h-146v-1720h-94v819q-30 -18 -69 -18q-111 0 -163 123t-52 378z" />
<glyph unicode="&#xb7;" horiz-adv-x="422" d="M133 721q0 106 78 106t78 -106q0 -57 -23 -82t-55 -25q-78 0 -78 107z" />
<glyph unicode="&#xb8;" horiz-adv-x="465" d="M59 -403q31 -11 78 -11q78 0 115 33.5t37 87.5q0 60 -44 90.5t-122 42.5l72 160h75l-51 -115q160 -39 160 -176q0 -100 -62.5 -150.5t-171.5 -50.5q-62 0 -86 11v78z" />
<glyph unicode="&#xb9;" horiz-adv-x="614" d="M82 1290l237 172h78v-876h-86v614q0 86 6 170q-33 -31 -55 -49t-131 -96z" />
<glyph unicode="&#xba;" horiz-adv-x="618" d="M70 1143q0 160 63.5 248t177.5 88q113 0 175.5 -82.5t62.5 -253.5q0 -165 -61 -251.5t-177 -86.5q-119 0 -180 86.5t-61 251.5zM160 1143q0 -139 36 -201.5t113 -62.5q82 0 116 62.5t34 201.5t-35.5 200.5t-114.5 61.5q-69 0 -109 -62.5t-40 -199.5z" />
<glyph unicode="&#xbb;" horiz-adv-x="856" d="M82 184l217 344l-217 344l59 35l289 -366v-27l-289 -367zM426 184l219 344l-219 344l61 35l287 -366v-27l-287 -367z" />
<glyph unicode="&#xbc;" horiz-adv-x="1430" d="M52 1290l237 172h78v-876h-86v614q0 86 6 170q-33 -31 -55 -49t-131 -96zM276 0l768 1462h92l-768 -1462h-92zM784 210v65l340 608h80v-591h100v-82h-100v-209h-86v209h-334zM885 292h233v282q0 122 4 170q-5 -12 -41.5 -87t-195.5 -365z" />
<glyph unicode="&#xbd;" horiz-adv-x="1430" d="M52 1290l237 172h78v-876h-86v614q0 86 6 170q-33 -31 -55 -49t-131 -96zM252 0l768 1462h92l-768 -1462h-92zM864 1v78l178 223q79 98 116.5 154.5t53 101t15.5 108.5q0 66 -37.5 106t-104.5 40q-88 0 -164 -82l-55 61q94 107 221 107q110 0 172 -62.5t62 -169.5 q0 -87 -38 -164.5t-173 -242.5l-145 -176h370v-82h-471z" />
<glyph unicode="&#xbe;" horiz-adv-x="1430" d="M47 1395q99 90 219 90q111 0 171.5 -61.5t60.5 -168.5q0 -72 -36.5 -125t-101.5 -77v-9q166 -46 166 -225q0 -110 -75.5 -180t-200.5 -70q-99 0 -197 43v95q95 -52 199 -52q94 0 137 45t43 119q0 90 -51.5 137.5t-153.5 47.5h-61v81h65q85 0 131 48t46 127 q0 66 -39.5 102.5t-110.5 36.5q-84 0 -158 -72zM317 0l768 1462h92l-768 -1462h-92zM823 210v65l340 608h80v-591h100v-82h-100v-209h-86v209h-334zM924 292h233v282q0 122 4 170q-5 -12 -41.5 -87t-195.5 -365z" />
<glyph unicode="&#xbf;" horiz-adv-x="578" d="M47 -88q0 76 11.5 132t37.5 112.5t111 185.5q59 92 81.5 158t22.5 166v39h76v-52q0 -115 -21 -189t-77 -159q-68 -103 -92 -155t-37 -107.5t-13 -124.5q0 -116 46 -178t124 -62q57 0 97 16t82 44l47 -76q-102 -74 -226 -74q-132 0 -201 85t-69 239zM266 981q0 57 23 81.5 t55 24.5q78 0 78 -106q0 -107 -78 -107q-32 0 -55 24t-23 83z" />
<glyph unicode="&#xc0;" horiz-adv-x="813" d="M0 0l352 1462h101l360 -1462h-100l-129 530h-355l-127 -530h-102zM146 1890v17h125q27 -63 82.5 -152t108.5 -155v-21h-48q-65 53 -148.5 148t-119.5 163zM248 629h313l-129 545q-20 92 -31 174q-9 -87 -28 -174z" />
<glyph unicode="&#xc1;" horiz-adv-x="813" d="M0 0l352 1462h101l360 -1462h-100l-129 530h-355l-127 -530h-102zM248 629h313l-129 545q-20 92 -31 174q-9 -87 -28 -174zM339 1579v21q127 166 191 307h125v-17q-39 -70 -118.5 -161t-150.5 -150h-47z" />
<glyph unicode="&#xc2;" horiz-adv-x="813" d="M0 0l352 1462h101l360 -1462h-100l-129 530h-355l-127 -530h-102zM167 1579v19q121 168 186 309h95q24 -55 78.5 -144.5t111.5 -164.5v-19h-47q-32 31 -91 101l-97 112q-50 -56 -100.5 -114.5t-92.5 -98.5h-43zM248 629h313l-129 545q-20 92 -31 174q-9 -87 -28 -174z " />
<glyph unicode="&#xc3;" horiz-adv-x="813" d="M0 0l352 1462h101l360 -1462h-100l-129 530h-355l-127 -530h-102zM126 1579q12 97 53 154t113 57q35 0 68 -20t63.5 -43.5t58 -43.5t52.5 -20q35 0 52.5 36t26.5 93h74q-9 -101 -51 -156t-109 -55q-35 0 -69 20t-65 43.5t-58.5 43.5t-50.5 20q-32 0 -53.5 -36t-30.5 -93 h-74zM248 629h313l-129 545q-20 92 -31 174q-9 -87 -28 -174z" />
<glyph unicode="&#xc4;" horiz-adv-x="813" d="M0 0l352 1462h101l360 -1462h-100l-129 530h-355l-127 -530h-102zM191 1727q0 43 19.5 62t44.5 19q23 0 42 -19t19 -62q0 -44 -19 -64t-42 -20q-25 0 -44.5 20t-19.5 64zM248 629h313l-129 545q-20 92 -31 174q-9 -87 -28 -174zM496 1727q0 43 19.5 62t42.5 19 q25 0 44 -19t19 -62q0 -44 -19 -64t-44 -20q-23 0 -42.5 20t-19.5 64z" />
<glyph unicode="&#xc5;" horiz-adv-x="813" d="M0 0l352 1462h101l360 -1462h-100l-129 530h-355l-127 -530h-102zM206 1585q0 85 53.5 135.5t145.5 50.5q87 0 143 -49.5t56 -132.5q0 -89 -54 -140t-145 -51q-93 0 -146 50.5t-53 136.5zM248 629h313l-129 545q-20 92 -31 174q-9 -87 -28 -174zM284 1585q0 -53 30.5 -85 t90.5 -32q54 0 87.5 32t33.5 85q0 51 -31 83.5t-90 32.5q-54 0 -87.5 -32.5t-33.5 -83.5z" />
<glyph unicode="&#xc6;" horiz-adv-x="1153" d="M0 0l434 1462h621v-96h-432v-553h407v-94h-407v-625h432v-94h-531v530h-268l-152 -530h-104zM283 629h241v735h-28z" />
<glyph unicode="&#xc7;" horiz-adv-x="860" d="M111 735q0 350 124.5 550t339.5 200q134 0 234 -62l-45 -86q-84 54 -191 54q-165 0 -262.5 -174.5t-97.5 -483.5q0 -201 45 -350t129 -229t195 -80q114 0 196 41v-90q-78 -45 -205 -45q-139 0 -243.5 90t-161.5 260.5t-57 404.5zM372 -403q31 -11 78 -11q78 0 115 33.5 t37 87.5q0 60 -44 90.5t-122 42.5l72 160h75l-51 -115q160 -39 160 -176q0 -100 -62.5 -150.5t-171.5 -50.5q-62 0 -86 11v78z" />
<glyph unicode="&#xc8;" horiz-adv-x="788" d="M160 0v1462h530v-94h-432v-555h408v-94h-408v-625h432v-94h-530zM199 1890v17h125q27 -63 82.5 -152t108.5 -155v-21h-48q-65 53 -148.5 148t-119.5 163z" />
<glyph unicode="&#xc9;" horiz-adv-x="788" d="M160 0v1462h530v-94h-432v-555h408v-94h-408v-625h432v-94h-530zM324 1579v21q127 166 191 307h125v-17q-39 -70 -118.5 -161t-150.5 -150h-47z" />
<glyph unicode="&#xca;" horiz-adv-x="788" d="M160 0v1462h530v-94h-432v-555h408v-94h-408v-625h432v-94h-530zM181 1579v19q121 168 186 309h95q24 -55 78.5 -144.5t111.5 -164.5v-19h-47q-32 31 -91 101l-97 112q-50 -56 -100.5 -114.5t-92.5 -98.5h-43z" />
<glyph unicode="&#xcb;" horiz-adv-x="788" d="M160 0v1462h530v-94h-432v-555h408v-94h-408v-625h432v-94h-530zM202 1727q0 43 19.5 62t44.5 19q23 0 42 -19t19 -62q0 -44 -19 -64t-42 -20q-25 0 -44.5 20t-19.5 64zM507 1727q0 43 19.5 62t42.5 19q25 0 44 -19t19 -62q0 -44 -19 -64t-44 -20q-23 0 -42.5 20 t-19.5 64z" />
<glyph unicode="&#xcc;" horiz-adv-x="418" d="M-34 1890v17h125q27 -63 82.5 -152t108.5 -155v-21h-48q-65 53 -148.5 148t-119.5 163zM160 0v1462h98v-1462h-98z" />
<glyph unicode="&#xcd;" horiz-adv-x="418" d="M154 1579v21q127 166 191 307h125v-17q-39 -70 -118.5 -161t-150.5 -150h-47zM160 0v1462h98v-1462h-98z" />
<glyph unicode="&#xce;" horiz-adv-x="418" d="M-26 1579v19q121 168 186 309h95q24 -55 78.5 -144.5t111.5 -164.5v-19h-47q-32 31 -91 101l-97 112q-50 -56 -100.5 -114.5t-92.5 -98.5h-43zM160 0v1462h98v-1462h-98z" />
<glyph unicode="&#xcf;" horiz-adv-x="418" d="M-5 1727q0 43 19.5 62t44.5 19q23 0 42 -19t19 -62q0 -44 -19 -64t-42 -20q-25 0 -44.5 20t-19.5 64zM160 0v1462h98v-1462h-98zM300 1727q0 43 19.5 62t42.5 19q25 0 44 -19t19 -62q0 -44 -19 -64t-44 -20q-23 0 -42.5 20t-19.5 64z" />
<glyph unicode="&#xd0;" horiz-adv-x="995" d="M61 700v91h99v671h266q226 0 342.5 -182.5t116.5 -534.5q0 -745 -465 -745h-260v700h-99zM258 90h156q190 0 279 166t89 483q0 309 -91 471t-269 162h-164v-581h225v-91h-225v-610z" />
<glyph unicode="&#xd1;" horiz-adv-x="1090" d="M160 0v1462h127l549 -1296h6q-8 164 -8 274v1022h96v-1462h-125l-553 1311h-8q12 -136 12 -262v-1049h-96zM284 1579q12 97 53 154t113 57q35 0 68 -20t63.5 -43.5t58 -43.5t52.5 -20q35 0 52.5 36t26.5 93h74q-9 -101 -51 -156t-109 -55q-35 0 -69 20t-65 43.5 t-58.5 43.5t-50.5 20q-32 0 -53.5 -36t-30.5 -93h-74z" />
<glyph unicode="&#xd2;" horiz-adv-x="1065" d="M111 735q0 378 106 563t318 185q204 0 311.5 -194.5t107.5 -555.5q0 -363 -108.5 -558t-313.5 -195q-207 0 -314 196.5t-107 558.5zM213 733q0 -326 81.5 -492.5t237.5 -166.5q157 0 238.5 165t81.5 494q0 325 -80 490.5t-237 165.5q-161 0 -241.5 -167.5t-80.5 -488.5z M283 1890v17h125q27 -63 82.5 -152t108.5 -155v-21h-48q-65 53 -148.5 148t-119.5 163z" />
<glyph unicode="&#xd3;" horiz-adv-x="1065" d="M111 735q0 378 106 563t318 185q204 0 311.5 -194.5t107.5 -555.5q0 -363 -108.5 -558t-313.5 -195q-207 0 -314 196.5t-107 558.5zM213 733q0 -326 81.5 -492.5t237.5 -166.5q157 0 238.5 165t81.5 494q0 325 -80 490.5t-237 165.5q-161 0 -241.5 -167.5t-80.5 -488.5z M459 1579v21q127 166 191 307h125v-17q-39 -70 -118.5 -161t-150.5 -150h-47z" />
<glyph unicode="&#xd4;" horiz-adv-x="1065" d="M111 735q0 378 106 563t318 185q204 0 311.5 -194.5t107.5 -555.5q0 -363 -108.5 -558t-313.5 -195q-207 0 -314 196.5t-107 558.5zM213 733q0 -326 81.5 -492.5t237.5 -166.5q157 0 238.5 165t81.5 494q0 325 -80 490.5t-237 165.5q-161 0 -241.5 -167.5t-80.5 -488.5z M296 1579v19q121 168 186 309h95q24 -55 78.5 -144.5t111.5 -164.5v-19h-47q-32 31 -91 101l-97 112q-50 -56 -100.5 -114.5t-92.5 -98.5h-43z" />
<glyph unicode="&#xd5;" horiz-adv-x="1065" d="M111 735q0 378 106 563t318 185q204 0 311.5 -194.5t107.5 -555.5q0 -363 -108.5 -558t-313.5 -195q-207 0 -314 196.5t-107 558.5zM213 733q0 -326 81.5 -492.5t237.5 -166.5q157 0 238.5 165t81.5 494q0 325 -80 490.5t-237 165.5q-161 0 -241.5 -167.5t-80.5 -488.5z M261 1579q12 97 53 154t113 57q35 0 68 -20t63.5 -43.5t58 -43.5t52.5 -20q35 0 52.5 36t26.5 93h74q-9 -101 -51 -156t-109 -55q-35 0 -69 20t-65 43.5t-58.5 43.5t-50.5 20q-32 0 -53.5 -36t-30.5 -93h-74z" />
<glyph unicode="&#xd6;" horiz-adv-x="1065" d="M111 735q0 378 106 563t318 185q204 0 311.5 -194.5t107.5 -555.5q0 -363 -108.5 -558t-313.5 -195q-207 0 -314 196.5t-107 558.5zM213 733q0 -326 81.5 -492.5t237.5 -166.5q157 0 238.5 165t81.5 494q0 325 -80 490.5t-237 165.5q-161 0 -241.5 -167.5t-80.5 -488.5z M326 1727q0 43 19.5 62t44.5 19q23 0 42 -19t19 -62q0 -44 -19 -64t-42 -20q-25 0 -44.5 20t-19.5 64zM631 1727q0 43 19.5 62t42.5 19q25 0 44 -19t19 -62q0 -44 -19 -64t-44 -20q-23 0 -42.5 20t-19.5 64z" />
<glyph unicode="&#xd7;" d="M59 432l291 291l-289 289l58 57l289 -289l292 293l60 -57l-293 -293l287 -289l-58 -57l-288 289l-291 -293z" />
<glyph unicode="&#xd8;" horiz-adv-x="1065" d="M96 -57l119 237q-104 194 -104 555q0 378 106 563t318 185q164 0 270 -131l96 190l82 -41l-123 -239q94 -190 94 -529q0 -363 -108.5 -558t-313.5 -195q-158 0 -260 114l-94 -188zM213 733q0 -282 59 -440l484 958q-79 138 -221 138q-161 0 -241.5 -167.5t-80.5 -488.5z M322 190q77 -116 210 -116q157 0 238.5 165t81.5 494q0 251 -49 412z" />
<glyph unicode="&#xd9;" horiz-adv-x="1012" d="M147 475v987h99v-999q0 -190 68.5 -289.5t195.5 -99.5q126 0 191 99.5t65 293.5v995h98v-987q0 -495 -354 -495q-177 0 -270 128t-93 367zM277 1890v17h125q27 -63 82.5 -152t108.5 -155v-21h-48q-65 53 -148.5 148t-119.5 163z" />
<glyph unicode="&#xda;" horiz-adv-x="1012" d="M147 475v987h99v-999q0 -190 68.5 -289.5t195.5 -99.5q126 0 191 99.5t65 293.5v995h98v-987q0 -495 -354 -495q-177 0 -270 128t-93 367zM423 1579v21q127 166 191 307h125v-17q-39 -70 -118.5 -161t-150.5 -150h-47z" />
<glyph unicode="&#xdb;" horiz-adv-x="1012" d="M147 475v987h99v-999q0 -190 68.5 -289.5t195.5 -99.5q126 0 191 99.5t65 293.5v995h98v-987q0 -495 -354 -495q-177 0 -270 128t-93 367zM271 1579v19q121 168 186 309h95q24 -55 78.5 -144.5t111.5 -164.5v-19h-47q-32 31 -91 101l-97 112q-50 -56 -100.5 -114.5 t-92.5 -98.5h-43z" />
<glyph unicode="&#xdc;" horiz-adv-x="1012" d="M147 475v987h99v-999q0 -190 68.5 -289.5t195.5 -99.5q126 0 191 99.5t65 293.5v995h98v-987q0 -495 -354 -495q-177 0 -270 128t-93 367zM292 1727q0 43 19.5 62t44.5 19q23 0 42 -19t19 -62q0 -44 -19 -64t-42 -20q-25 0 -44.5 20t-19.5 64zM597 1727q0 43 19.5 62 t42.5 19q25 0 44 -19t19 -62q0 -44 -19 -64t-44 -20q-23 0 -42.5 20t-19.5 64z" />
<glyph unicode="&#xdd;" horiz-adv-x="686" d="M0 1462h104l240 -755l238 755h104l-295 -891v-571h-98v571zM271 1579v21q127 166 191 307h125v-17q-39 -70 -118.5 -161t-150.5 -150h-47z" />
<glyph unicode="&#xde;" horiz-adv-x="840" d="M160 0v1462h98v-270h102q214 0 313 -99t99 -309q0 -450 -407 -450h-107v-334h-98zM258 428h98q170 0 243 77.5t73 266.5q0 173 -71.5 248.5t-233.5 75.5h-109v-668z" />
<glyph unicode="&#xdf;" horiz-adv-x="823" d="M145 0v1204q0 172 73 267.5t204 95.5q117 0 177 -71t60 -206q0 -120 -91 -238q-47 -61 -69 -105t-22 -85q0 -56 22 -100.5t89 -128.5l59 -70q53 -61 79 -125.5t26 -140.5q0 -150 -70.5 -233.5t-189.5 -83.5q-48 0 -96 13.5t-79 39.5v100q36 -25 77 -44t98 -19 q78 0 120.5 58.5t42.5 162.5q0 62 -23 117.5t-106 154.5q-77 94 -109 163.5t-32 135.5q0 51 20 96t69 106q46 58 67.5 112.5t21.5 117.5q0 183 -147 183q-85 0 -130.5 -67.5t-45.5 -195.5v-1214h-95z" />
<glyph unicode="&#xe0;" horiz-adv-x="784" d="M78 291q0 155 93 245.5t261 98.5l117 6v90q0 152 -38 221.5t-126 69.5q-93 0 -190 -61l-41 75q113 70 237 70q134 0 193 -84.5t59 -282.5v-739h-78l-12 152h-4q-78 -172 -236 -172q-106 0 -170.5 84.5t-64.5 226.5zM163 1552v17h125q27 -63 82.5 -152t108.5 -155v-21h-48 q-65 53 -148.5 148t-119.5 163zM178 289q0 -118 42 -173t114 -55q102 0 158.5 100.5t56.5 284.5v113l-113 -6q-131 -7 -194.5 -72.5t-63.5 -191.5z" />
<glyph unicode="&#xe1;" horiz-adv-x="784" d="M78 291q0 155 93 245.5t261 98.5l117 6v90q0 152 -38 221.5t-126 69.5q-93 0 -190 -61l-41 75q113 70 237 70q134 0 193 -84.5t59 -282.5v-739h-78l-12 152h-4q-78 -172 -236 -172q-106 0 -170.5 84.5t-64.5 226.5zM178 289q0 -118 42 -173t114 -55q102 0 158.5 100.5 t56.5 284.5v113l-113 -6q-131 -7 -194.5 -72.5t-63.5 -191.5zM290 1241v21q127 166 191 307h125v-17q-39 -70 -118.5 -161t-150.5 -150h-47z" />
<glyph unicode="&#xe2;" horiz-adv-x="784" d="M78 291q0 155 93 245.5t261 98.5l117 6v90q0 152 -38 221.5t-126 69.5q-93 0 -190 -61l-41 75q113 70 237 70q134 0 193 -84.5t59 -282.5v-739h-78l-12 152h-4q-78 -172 -236 -172q-106 0 -170.5 84.5t-64.5 226.5zM150 1243v19q121 168 186 309h95q24 -55 78.5 -144.5 t111.5 -164.5v-19h-47q-32 31 -91 101l-97 112q-50 -56 -100.5 -114.5t-92.5 -98.5h-43zM178 289q0 -118 42 -173t114 -55q102 0 158.5 100.5t56.5 284.5v113l-113 -6q-131 -7 -194.5 -72.5t-63.5 -191.5z" />
<glyph unicode="&#xe3;" horiz-adv-x="784" d="M78 291q0 155 93 245.5t261 98.5l117 6v90q0 152 -38 221.5t-126 69.5q-93 0 -190 -61l-41 75q113 70 237 70q134 0 193 -84.5t59 -282.5v-739h-78l-12 152h-4q-78 -172 -236 -172q-106 0 -170.5 84.5t-64.5 226.5zM116 1241q12 97 53 154t113 57q35 0 68 -20t63.5 -43.5 t58 -43.5t52.5 -20q35 0 52.5 36t26.5 93h74q-9 -101 -51 -156t-109 -55q-35 0 -69 20t-65 43.5t-58.5 43.5t-50.5 20q-32 0 -53.5 -36t-30.5 -93h-74zM178 289q0 -118 42 -173t114 -55q102 0 158.5 100.5t56.5 284.5v113l-113 -6q-131 -7 -194.5 -72.5t-63.5 -191.5z" />
<glyph unicode="&#xe4;" horiz-adv-x="784" d="M78 291q0 155 93 245.5t261 98.5l117 6v90q0 152 -38 221.5t-126 69.5q-93 0 -190 -61l-41 75q113 70 237 70q134 0 193 -84.5t59 -282.5v-739h-78l-12 152h-4q-78 -172 -236 -172q-106 0 -170.5 84.5t-64.5 226.5zM165 1389q0 43 19.5 62t44.5 19q23 0 42 -19t19 -62 q0 -44 -19 -64t-42 -20q-25 0 -44.5 20t-19.5 64zM178 289q0 -118 42 -173t114 -55q102 0 158.5 100.5t56.5 284.5v113l-113 -6q-131 -7 -194.5 -72.5t-63.5 -191.5zM470 1389q0 43 19.5 62t42.5 19q25 0 44 -19t19 -62q0 -44 -19 -64t-44 -20q-23 0 -42.5 20t-19.5 64z" />
<glyph unicode="&#xe5;" horiz-adv-x="784" d="M78 291q0 155 93 245.5t261 98.5l117 6v90q0 152 -38 221.5t-126 69.5q-93 0 -190 -61l-41 75q113 70 237 70q134 0 193 -84.5t59 -282.5v-739h-78l-12 152h-4q-78 -172 -236 -172q-106 0 -170.5 84.5t-64.5 226.5zM178 289q0 -118 42 -173t114 -55q102 0 158.5 100.5 t56.5 284.5v113l-113 -6q-131 -7 -194.5 -72.5t-63.5 -191.5zM185 1438q0 85 53.5 135.5t145.5 50.5q87 0 143 -49.5t56 -132.5q0 -89 -54 -140t-145 -51q-93 0 -146 50.5t-53 136.5zM263 1438q0 -53 30.5 -85t90.5 -32q54 0 87.5 32t33.5 85q0 51 -31 83.5t-90 32.5 q-54 0 -87.5 -32.5t-33.5 -83.5z" />
<glyph unicode="&#xe6;" horiz-adv-x="1260" d="M78 291q0 155 93 245.5t261 98.5l117 6v90q0 146 -39.5 218.5t-124.5 72.5q-93 0 -190 -61l-41 75q47 29 102.5 49.5t132.5 20.5q178 0 229 -172q84 172 250 172q137 0 216 -127.5t79 -347.5v-88h-514q9 -477 258 -477q50 0 109.5 17.5t111.5 49.5v-88q-100 -65 -223 -65 q-105 0 -185.5 63t-119.5 178q-46 -129 -117 -185t-170 -56q-106 0 -170.5 84.5t-64.5 226.5zM178 289q0 -118 42 -173t114 -55q102 0 158.5 100.5t56.5 284.5v113l-113 -6q-132 -7 -195 -69.5t-63 -194.5zM651 629h418v12q0 172 -55 274.5t-148 102.5q-194 0 -215 -389z " />
<glyph unicode="&#xe7;" horiz-adv-x="635" d="M96 537q0 278 83.5 423.5t246.5 145.5q101 0 168 -37l-37 -84q-67 31 -123 31q-239 0 -239 -477q0 -473 239 -473q71 0 154 32v-80q-33 -18 -81 -28t-83 -10q-163 0 -245.5 141.5t-82.5 415.5zM219 -403q31 -11 78 -11q78 0 115 33.5t37 87.5q0 60 -44 90.5t-122 42.5 l72 160h75l-51 -115q160 -39 160 -176q0 -100 -62.5 -150.5t-171.5 -50.5q-62 0 -86 11v78z" />
<glyph unicode="&#xe8;" horiz-adv-x="803" d="M96 535q0 278 82.5 424.5t237.5 146.5q135 0 213 -128.5t78 -346.5v-88h-514q2 -237 67 -355t197 -118q102 0 215 67v-92q-104 -65 -219 -65q-172 0 -264.5 146.5t-92.5 408.5zM195 629h417q0 179 -54.5 285t-147.5 106q-196 0 -215 -391zM197 1552v17h125 q27 -63 82.5 -152t108.5 -155v-21h-48q-65 53 -148.5 148t-119.5 163z" />
<glyph unicode="&#xe9;" horiz-adv-x="803" d="M96 535q0 278 82.5 424.5t237.5 146.5q135 0 213 -128.5t78 -346.5v-88h-514q2 -237 67 -355t197 -118q102 0 215 67v-92q-104 -65 -219 -65q-172 0 -264.5 146.5t-92.5 408.5zM195 629h417q0 179 -54.5 285t-147.5 106q-196 0 -215 -391zM343 1241v21q127 166 191 307 h125v-17q-39 -70 -118.5 -161t-150.5 -150h-47z" />
<glyph unicode="&#xea;" horiz-adv-x="803" d="M96 535q0 278 82.5 424.5t237.5 146.5q135 0 213 -128.5t78 -346.5v-88h-514q2 -237 67 -355t197 -118q102 0 215 67v-92q-104 -65 -219 -65q-172 0 -264.5 146.5t-92.5 408.5zM177 1241v19q121 168 186 309h95q24 -55 78.5 -144.5t111.5 -164.5v-19h-47q-32 31 -91 101 l-97 112q-50 -56 -100.5 -114.5t-92.5 -98.5h-43zM195 629h417q0 179 -54.5 285t-147.5 106q-196 0 -215 -391z" />
<glyph unicode="&#xeb;" horiz-adv-x="803" d="M96 535q0 278 82.5 424.5t237.5 146.5q135 0 213 -128.5t78 -346.5v-88h-514q2 -237 67 -355t197 -118q102 0 215 67v-92q-104 -65 -219 -65q-172 0 -264.5 146.5t-92.5 408.5zM195 629h417q0 179 -54.5 285t-147.5 106q-196 0 -215 -391zM195 1389q0 43 19.5 62t44.5 19 q23 0 42 -19t19 -62q0 -44 -19 -64t-42 -20q-25 0 -44.5 20t-19.5 64zM500 1389q0 43 19.5 62t42.5 19q25 0 44 -19t19 -62q0 -44 -19 -64t-44 -20q-23 0 -42.5 20t-19.5 64z" />
<glyph unicode="&#xec;" horiz-adv-x="385" d="M-32 1552v17h125q27 -63 82.5 -152t108.5 -155v-21h-48q-65 53 -148.5 148t-119.5 163zM145 0v1085h95v-1085h-95z" />
<glyph unicode="&#xed;" horiz-adv-x="385" d="M113 1241v21q127 166 191 307h125v-17q-39 -70 -118.5 -161t-150.5 -150h-47zM145 0v1085h95v-1085h-95z" />
<glyph unicode="&#xee;" horiz-adv-x="385" d="M-42 1241v19q121 168 186 309h95q24 -55 78.5 -144.5t111.5 -164.5v-19h-47q-32 31 -91 101l-97 112q-50 -56 -100.5 -114.5t-92.5 -98.5h-43zM145 0v1085h95v-1085h-95z" />
<glyph unicode="&#xef;" horiz-adv-x="385" d="M-20 1389q0 43 19.5 62t44.5 19q23 0 42 -19t19 -62q0 -44 -19 -64t-42 -20q-25 0 -44.5 20t-19.5 64zM145 0v1085h95v-1085h-95zM285 1389q0 43 19.5 62t42.5 19q25 0 44 -19t19 -62q0 -44 -19 -64t-44 -20q-23 0 -42.5 20t-19.5 64z" />
<glyph unicode="&#xf0;" horiz-adv-x="856" d="M94 469q0 233 80.5 359t231.5 126q153 0 227 -123h8q-53 295 -238 510l-174 -102l-39 66l160 94q-59 56 -112 96l47 61q73 -46 141 -112l188 110l39 -65l-174 -103q283 -325 283 -872q0 -534 -338 -534q-148 0 -239 135.5t-91 353.5zM190 461q0 -181 64.5 -288 t175.5 -107q122 0 179 103t57 314q0 166 -64.5 273.5t-169.5 107.5q-117 0 -179.5 -102t-62.5 -301z" />
<glyph unicode="&#xf1;" horiz-adv-x="870" d="M145 0v1085h80l8 -151h9q34 82 98 127t137 45q126 0 189 -84.5t63 -271.5v-750h-94v748q0 270 -160 270q-122 0 -178.5 -101t-56.5 -321v-596h-95zM165 1241q12 97 53 154t113 57q35 0 68 -20t63.5 -43.5t58 -43.5t52.5 -20q35 0 52.5 36t26.5 93h74q-9 -101 -51 -156 t-109 -55q-35 0 -69 20t-65 43.5t-58.5 43.5t-50.5 20q-32 0 -53.5 -36t-30.5 -93h-74z" />
<glyph unicode="&#xf2;" horiz-adv-x="850" d="M94 545q0 561 332 561q156 0 243 -147t87 -414q0 -274 -86.5 -419.5t-247.5 -145.5q-159 0 -243.5 145.5t-84.5 419.5zM193 545q0 -235 56 -355t175 -120q233 0 233 475q0 471 -233 471q-122 0 -176.5 -118t-54.5 -353zM206 1552v17h125q27 -63 82.5 -152t108.5 -155v-21 h-48q-65 53 -148.5 148t-119.5 163z" />
<glyph unicode="&#xf3;" horiz-adv-x="850" d="M94 545q0 561 332 561q156 0 243 -147t87 -414q0 -274 -86.5 -419.5t-247.5 -145.5q-159 0 -243.5 145.5t-84.5 419.5zM193 545q0 -235 56 -355t175 -120q233 0 233 475q0 471 -233 471q-122 0 -176.5 -118t-54.5 -353zM341 1241v21q127 166 191 307h125v-17 q-39 -70 -118.5 -161t-150.5 -150h-47z" />
<glyph unicode="&#xf4;" horiz-adv-x="850" d="M94 545q0 561 332 561q156 0 243 -147t87 -414q0 -274 -86.5 -419.5t-247.5 -145.5q-159 0 -243.5 145.5t-84.5 419.5zM191 1241v19q121 168 186 309h95q24 -55 78.5 -144.5t111.5 -164.5v-19h-47q-32 31 -91 101l-97 112q-50 -56 -100.5 -114.5t-92.5 -98.5h-43z M193 545q0 -235 56 -355t175 -120q233 0 233 475q0 471 -233 471q-122 0 -176.5 -118t-54.5 -353z" />
<glyph unicode="&#xf5;" horiz-adv-x="850" d="M94 545q0 561 332 561q156 0 243 -147t87 -414q0 -274 -86.5 -419.5t-247.5 -145.5q-159 0 -243.5 145.5t-84.5 419.5zM144 1241q12 97 53 154t113 57q35 0 68 -20t63.5 -43.5t58 -43.5t52.5 -20q35 0 52.5 36t26.5 93h74q-9 -101 -51 -156t-109 -55q-35 0 -69 20 t-65 43.5t-58.5 43.5t-50.5 20q-32 0 -53.5 -36t-30.5 -93h-74zM193 545q0 -235 56 -355t175 -120q233 0 233 475q0 471 -233 471q-122 0 -176.5 -118t-54.5 -353z" />
<glyph unicode="&#xf6;" horiz-adv-x="850" d="M94 545q0 561 332 561q156 0 243 -147t87 -414q0 -274 -86.5 -419.5t-247.5 -145.5q-159 0 -243.5 145.5t-84.5 419.5zM193 545q0 -235 56 -355t175 -120q233 0 233 475q0 471 -233 471q-122 0 -176.5 -118t-54.5 -353zM210 1389q0 43 19.5 62t44.5 19q23 0 42 -19 t19 -62q0 -44 -19 -64t-42 -20q-25 0 -44.5 20t-19.5 64zM515 1389q0 43 19.5 62t42.5 19q25 0 44 -19t19 -62q0 -44 -19 -64t-44 -20q-23 0 -42.5 20t-19.5 64z" />
<glyph unicode="&#xf7;" d="M59 682v82h701v-82h-701zM332 373q0 106 78 106q77 0 77 -106q0 -57 -22.5 -82t-54.5 -25q-78 0 -78 107zM332 1071q0 107 78 107q77 0 77 -107q0 -57 -22.5 -81.5t-54.5 -24.5q-78 0 -78 106z" />
<glyph unicode="&#xf8;" horiz-adv-x="850" d="M68 -102l112 227q-86 146 -86 420q0 561 332 561q117 0 197 -86l84 170l75 -41l-102 -209q76 -148 76 -395q0 -274 -86.5 -419.5t-247.5 -145.5q-113 0 -184 69l-95 -192zM193 545q0 -202 38 -314l347 699q-56 86 -154 86q-122 0 -176.5 -118t-54.5 -353zM283 137 q51 -67 141 -67q233 0 233 475q0 180 -32 284z" />
<glyph unicode="&#xf9;" horiz-adv-x="870" d="M141 377v708h95v-708q0 -161 38.5 -235t118.5 -74q123 0 180.5 99.5t57.5 321.5v596h94v-1085h-80l-12 152h-8q-35 -83 -97 -127.5t-135 -44.5q-131 0 -191.5 93t-60.5 304zM195 1552v17h125q27 -63 82.5 -152t108.5 -155v-21h-48q-65 53 -148.5 148t-119.5 163z" />
<glyph unicode="&#xfa;" horiz-adv-x="870" d="M141 377v708h95v-708q0 -161 38.5 -235t118.5 -74q123 0 180.5 99.5t57.5 321.5v596h94v-1085h-80l-12 152h-8q-35 -83 -97 -127.5t-135 -44.5q-131 0 -191.5 93t-60.5 304zM351 1241v21q127 166 191 307h125v-17q-39 -70 -118.5 -161t-150.5 -150h-47z" />
<glyph unicode="&#xfb;" horiz-adv-x="870" d="M141 377v708h95v-708q0 -161 38.5 -235t118.5 -74q123 0 180.5 99.5t57.5 321.5v596h94v-1085h-80l-12 152h-8q-35 -83 -97 -127.5t-135 -44.5q-131 0 -191.5 93t-60.5 304zM191 1241v19q121 168 186 309h95q24 -55 78.5 -144.5t111.5 -164.5v-19h-47q-32 31 -91 101 l-97 112q-50 -56 -100.5 -114.5t-92.5 -98.5h-43z" />
<glyph unicode="&#xfc;" horiz-adv-x="870" d="M141 377v708h95v-708q0 -161 38.5 -235t118.5 -74q123 0 180.5 99.5t57.5 321.5v596h94v-1085h-80l-12 152h-8q-35 -83 -97 -127.5t-135 -44.5q-131 0 -191.5 93t-60.5 304zM218 1389q0 43 19.5 62t44.5 19q23 0 42 -19t19 -62q0 -44 -19 -64t-42 -20q-25 0 -44.5 20 t-19.5 64zM523 1389q0 43 19.5 62t42.5 19q25 0 44 -19t19 -62q0 -44 -19 -64t-44 -20q-23 0 -42.5 20t-19.5 64z" />
<glyph unicode="&#xfd;" horiz-adv-x="653" d="M-2 -389q40 -14 78 -14q60 0 95 51.5t62 165.5l48 188l-271 1083h96l164 -677q29 -122 56 -275h8q19 133 53 277l160 675h96l-317 -1290q-35 -143 -91.5 -215t-150.5 -72q-38 0 -86 17v86zM253 1241v21q127 166 191 307h125v-17q-39 -70 -118.5 -161t-150.5 -150h-47z " />
<glyph unicode="&#xfe;" horiz-adv-x="893" d="M145 -492v2048h95v-484l-4 -136h4q39 81 103 125.5t138 44.5q318 0 318 -561q0 -271 -78 -418t-227 -147q-84 0 -152 46.5t-102 123.5h-7l11 -119v-523h-99zM240 551q0 -250 59 -367.5t180 -117.5q110 0 164.5 113t54.5 366q0 245 -52 358t-171 113t-177 -105t-58 -329 v-31z" />
<glyph unicode="&#xff;" horiz-adv-x="653" d="M-2 -389q40 -14 78 -14q60 0 95 51.5t62 165.5l48 188l-271 1083h96l164 -677q29 -122 56 -275h8q19 133 53 277l160 675h96l-317 -1290q-35 -143 -91.5 -215t-150.5 -72q-38 0 -86 17v86zM116 1389q0 43 19.5 62t44.5 19q23 0 42 -19t19 -62q0 -44 -19 -64t-42 -20 q-25 0 -44.5 20t-19.5 64zM421 1389q0 43 19.5 62t42.5 19q25 0 44 -19t19 -62q0 -44 -19 -64t-44 -20q-23 0 -42.5 20t-19.5 64z" />
<glyph unicode="&#x100;" horiz-adv-x="813" d="M0 0l352 1462h101l360 -1462h-100l-129 530h-355l-127 -530h-102zM181 1589v82h452v-82h-452zM248 629h313l-129 545q-20 92 -31 174q-9 -87 -28 -174z" />
<glyph unicode="&#x101;" horiz-adv-x="784" d="M78 291q0 155 93 245.5t261 98.5l117 6v90q0 152 -38 221.5t-126 69.5q-93 0 -190 -61l-41 75q113 70 237 70q134 0 193 -84.5t59 -282.5v-739h-78l-12 152h-4q-78 -172 -236 -172q-106 0 -170.5 84.5t-64.5 226.5zM175 1251v82h452v-82h-452zM178 289q0 -118 42 -173 t114 -55q102 0 158.5 100.5t56.5 284.5v113l-113 -6q-131 -7 -194.5 -72.5t-63.5 -191.5z" />
<glyph unicode="&#x102;" horiz-adv-x="813" d="M0 0l352 1462h101l360 -1462h-100l-129 530h-355l-127 -530h-102zM183 1817h68q7 -74 45.5 -112t101.5 -38q128 0 148 150h72q-3 -109 -61.5 -171.5t-162.5 -62.5q-198 0 -211 234zM248 629h313l-129 545q-20 92 -31 174q-9 -87 -28 -174z" />
<glyph unicode="&#x103;" horiz-adv-x="784" d="M78 291q0 155 93 245.5t261 98.5l117 6v90q0 152 -38 221.5t-126 69.5q-93 0 -190 -61l-41 75q113 70 237 70q134 0 193 -84.5t59 -282.5v-739h-78l-12 152h-4q-78 -172 -236 -172q-106 0 -170.5 84.5t-64.5 226.5zM175 1479h68q7 -74 45.5 -112t101.5 -38q128 0 148 150 h72q-3 -109 -61.5 -171.5t-162.5 -62.5q-198 0 -211 234zM178 289q0 -118 42 -173t114 -55q102 0 158.5 100.5t56.5 284.5v113l-113 -6q-131 -7 -194.5 -72.5t-63.5 -191.5z" />
<glyph unicode="&#x104;" horiz-adv-x="813" d="M0 0l352 1462h101l360 -1462h-100l-129 530h-355l-127 -530h-102zM248 629h313l-129 545q-20 92 -31 174q-9 -87 -28 -174zM566 -270q0 74 43 149t104 121h74q-71 -71 -101 -133t-30 -127q0 -109 96 -109q39 0 57 9v-74q-30 -12 -75 -12q-168 0 -168 176z" />
<glyph unicode="&#x105;" horiz-adv-x="784" d="M78 291q0 155 93 245.5t261 98.5l117 6v90q0 152 -38 221.5t-126 69.5q-93 0 -190 -61l-41 75q113 70 237 70q134 0 193 -84.5t59 -282.5v-739h-78l-12 152h-4q-78 -172 -236 -172q-106 0 -170.5 84.5t-64.5 226.5zM178 289q0 -118 42 -173t114 -55q102 0 158.5 100.5 t56.5 284.5v113l-113 -6q-131 -7 -194.5 -72.5t-63.5 -191.5zM418 -270q0 74 43 149t104 121h74q-71 -71 -101 -133t-30 -127q0 -109 96 -109q39 0 57 9v-74q-30 -12 -75 -12q-168 0 -168 176z" />
<glyph unicode="&#x106;" horiz-adv-x="860" d="M111 735q0 350 124.5 550t339.5 200q134 0 234 -62l-45 -86q-84 54 -191 54q-165 0 -262.5 -174.5t-97.5 -483.5q0 -201 45 -350t129 -229t195 -80q114 0 196 41v-90q-78 -45 -205 -45q-139 0 -243.5 90t-161.5 260.5t-57 404.5zM502 1579v21q127 166 191 307h125v-17 q-39 -70 -118.5 -161t-150.5 -150h-47z" />
<glyph unicode="&#x107;" horiz-adv-x="635" d="M96 537q0 278 83.5 423.5t246.5 145.5q101 0 168 -37l-37 -84q-67 31 -123 31q-239 0 -239 -477q0 -473 239 -473q71 0 154 32v-80q-33 -18 -81 -28t-83 -10q-163 0 -245.5 141.5t-82.5 415.5zM365 1241v21q127 166 191 307h125v-17q-39 -70 -118.5 -161t-150.5 -150h-47 z" />
<glyph unicode="&#x108;" horiz-adv-x="860" d="M111 735q0 350 124.5 550t339.5 200q134 0 234 -62l-45 -86q-84 54 -191 54q-165 0 -262.5 -174.5t-97.5 -483.5q0 -201 45 -350t129 -229t195 -80q114 0 196 41v-90q-78 -45 -205 -45q-139 0 -243.5 90t-161.5 260.5t-57 404.5zM329 1579v19q121 168 186 309h95 q24 -55 78.5 -144.5t111.5 -164.5v-19h-47q-32 31 -91 101l-97 112q-50 -56 -100.5 -114.5t-92.5 -98.5h-43z" />
<glyph unicode="&#x109;" horiz-adv-x="635" d="M96 537q0 278 83.5 423.5t246.5 145.5q101 0 168 -37l-37 -84q-67 31 -123 31q-239 0 -239 -477q0 -473 239 -473q71 0 154 32v-80q-33 -18 -81 -28t-83 -10q-163 0 -245.5 141.5t-82.5 415.5zM163 1241v19q121 168 186 309h95q24 -55 78.5 -144.5t111.5 -164.5v-19h-47 q-32 31 -91 101l-97 112q-50 -56 -100.5 -114.5t-92.5 -98.5h-43z" />
<glyph unicode="&#x10a;" horiz-adv-x="860" d="M111 735q0 350 124.5 550t339.5 200q134 0 234 -62l-45 -86q-84 54 -191 54q-165 0 -262.5 -174.5t-97.5 -483.5q0 -201 45 -350t129 -229t195 -80q114 0 196 41v-90q-78 -45 -205 -45q-139 0 -243.5 90t-161.5 260.5t-57 404.5zM510 1734q0 45 18.5 70t47.5 25 q27 0 43 -25t16 -70q0 -43 -16 -68.5t-43 -25.5q-29 0 -47.5 25.5t-18.5 68.5z" />
<glyph unicode="&#x10b;" horiz-adv-x="635" d="M96 537q0 278 83.5 423.5t246.5 145.5q101 0 168 -37l-37 -84q-67 31 -123 31q-239 0 -239 -477q0 -473 239 -473q71 0 154 32v-80q-33 -18 -81 -28t-83 -10q-163 0 -245.5 141.5t-82.5 415.5zM362 1386q0 45 18.5 70t47.5 25q27 0 43 -25t16 -70q0 -43 -16 -68.5 t-43 -25.5q-29 0 -47.5 25.5t-18.5 68.5z" />
<glyph unicode="&#x10c;" horiz-adv-x="860" d="M111 735q0 350 124.5 550t339.5 200q134 0 234 -62l-45 -86q-84 54 -191 54q-165 0 -262.5 -174.5t-97.5 -483.5q0 -201 45 -350t129 -229t195 -80q114 0 196 41v-90q-78 -45 -205 -45q-139 0 -243.5 90t-161.5 260.5t-57 404.5zM339 1888v19h43q42 -40 92.5 -98.5 t100.5 -114.5l49 55q108 129 139 158h47v-19q-58 -75 -112 -165t-78 -144h-95q-70 148 -186 309z" />
<glyph unicode="&#x10d;" horiz-adv-x="635" d="M96 537q0 278 83.5 423.5t246.5 145.5q101 0 168 -37l-37 -84q-67 31 -123 31q-239 0 -239 -477q0 -473 239 -473q71 0 154 32v-80q-33 -18 -81 -28t-83 -10q-163 0 -245.5 141.5t-82.5 415.5zM175 1550v19h43q42 -40 92.5 -98.5t100.5 -114.5l49 55q108 129 139 158h47 v-19q-58 -75 -112 -165t-78 -144h-95q-70 148 -186 309z" />
<glyph unicode="&#x10e;" horiz-adv-x="995" d="M160 0v1462h266q226 0 342.5 -182.5t116.5 -534.5q0 -745 -465 -745h-260zM206 1888v19h43q42 -40 92.5 -98.5t100.5 -114.5l49 55q108 129 139 158h47v-19q-58 -75 -112 -165t-78 -144h-95q-70 148 -186 309zM258 90h156q190 0 279 166t89 483q0 309 -91 471t-269 162 h-164v-1282z" />
<glyph unicode="&#x10f;" horiz-adv-x="893" d="M94 541q0 276 79 420.5t233 144.5q73 0 138.5 -42t104.5 -116h8l-4 121v487h95v-1556h-78l-8 152h-9q-39 -83 -101 -127.5t-142 -44.5q-316 0 -316 561zM193 539q0 -234 53 -355t170 -121q114 0 175.5 105.5t61.5 310.5v62q0 246 -59.5 360.5t-181.5 114.5 q-117 0 -168 -122.5t-51 -354.5zM823 1229v20q9 38 25.5 136.5t23.5 170.5h113v-20q-10 -56 -49.5 -154t-75.5 -153h-37z" />
<glyph unicode="&#x110;" horiz-adv-x="995" d="M61 700v91h99v671h266q226 0 342.5 -182.5t116.5 -534.5q0 -745 -465 -745h-260v700h-99zM258 90h156q190 0 279 166t89 483q0 309 -91 471t-269 162h-164v-581h225v-91h-225v-610z" />
<glyph unicode="&#x111;" horiz-adv-x="893" d="M94 541q0 276 79 420.5t233 144.5q73 0 138.5 -43t104.5 -117h8l-4 123v209h-262v82h262v196h95v-196h118v-82h-118v-1278h-78l-11 154h-8q-82 -174 -241 -174q-316 0 -316 561zM193 539q0 -234 53 -355t170 -121q113 0 175 109.5t62 335.5v33q0 246 -59.5 360.5 t-181.5 114.5q-117 0 -168 -122.5t-51 -354.5z" />
<glyph unicode="&#x112;" horiz-adv-x="788" d="M160 0v1462h530v-94h-432v-555h408v-94h-408v-625h432v-94h-530zM202 1589v82h452v-82h-452z" />
<glyph unicode="&#x113;" horiz-adv-x="803" d="M96 535q0 278 82.5 424.5t237.5 146.5q135 0 213 -128.5t78 -346.5v-88h-514q2 -237 67 -355t197 -118q102 0 215 67v-92q-104 -65 -219 -65q-172 0 -264.5 146.5t-92.5 408.5zM184 1251v82h452v-82h-452zM195 629h417q0 179 -54.5 285t-147.5 106q-196 0 -215 -391z" />
<glyph unicode="&#x114;" horiz-adv-x="788" d="M160 0v1462h530v-94h-432v-555h408v-94h-408v-625h432v-94h-530zM211 1817h68q7 -74 45.5 -112t101.5 -38q128 0 148 150h72q-3 -109 -61.5 -171.5t-162.5 -62.5q-198 0 -211 234z" />
<glyph unicode="&#x115;" horiz-adv-x="803" d="M96 535q0 278 82.5 424.5t237.5 146.5q135 0 213 -128.5t78 -346.5v-88h-514q2 -237 67 -355t197 -118q102 0 215 67v-92q-104 -65 -219 -65q-172 0 -264.5 146.5t-92.5 408.5zM189 1479h68q7 -74 45.5 -112t101.5 -38q128 0 148 150h72q-3 -109 -61.5 -171.5 t-162.5 -62.5q-198 0 -211 234zM195 629h417q0 179 -54.5 285t-147.5 106q-196 0 -215 -391z" />
<glyph unicode="&#x116;" horiz-adv-x="788" d="M160 0v1462h530v-94h-432v-555h408v-94h-408v-625h432v-94h-530zM375 1695q0 45 18.5 70t47.5 25q27 0 43 -25t16 -70q0 -43 -16 -68.5t-43 -25.5q-29 0 -47.5 25.5t-18.5 68.5z" />
<glyph unicode="&#x117;" horiz-adv-x="803" d="M96 535q0 278 82.5 424.5t237.5 146.5q135 0 213 -128.5t78 -346.5v-88h-514q2 -237 67 -355t197 -118q102 0 215 67v-92q-104 -65 -219 -65q-172 0 -264.5 146.5t-92.5 408.5zM195 629h417q0 179 -54.5 285t-147.5 106q-196 0 -215 -391zM342 1386q0 45 18.5 70t47.5 25 q27 0 43 -25t16 -70q0 -43 -16 -68.5t-43 -25.5q-29 0 -47.5 25.5t-18.5 68.5z" />
<glyph unicode="&#x118;" horiz-adv-x="788" d="M160 0v1462h530v-94h-432v-555h408v-94h-408v-625h432v-94h-530zM402 -270q0 74 43 149t104 121h74q-71 -71 -101 -133t-30 -127q0 -109 96 -109q39 0 57 9v-74q-30 -12 -75 -12q-168 0 -168 176z" />
<glyph unicode="&#x119;" horiz-adv-x="803" d="M96 535q0 278 82.5 424.5t237.5 146.5q135 0 213 -128.5t78 -346.5v-88h-514q2 -237 67 -355t197 -118q102 0 215 67v-92q-104 -65 -219 -65q-172 0 -264.5 146.5t-92.5 408.5zM195 629h417q0 179 -54.5 285t-147.5 106q-196 0 -215 -391zM426 -235q0 74 43 149t104 121 h74q-71 -71 -101 -133t-30 -127q0 -109 96 -109q39 0 57 9v-74q-30 -12 -75 -12q-168 0 -168 176z" />
<glyph unicode="&#x11a;" horiz-adv-x="788" d="M160 0v1462h530v-94h-432v-555h408v-94h-408v-625h432v-94h-530zM202 1888v19h43q42 -40 92.5 -98.5t100.5 -114.5l49 55q108 129 139 158h47v-19q-58 -75 -112 -165t-78 -144h-95q-70 148 -186 309z" />
<glyph unicode="&#x11b;" horiz-adv-x="803" d="M96 535q0 278 82.5 424.5t237.5 146.5q135 0 213 -128.5t78 -346.5v-88h-514q2 -237 67 -355t197 -118q102 0 215 67v-92q-104 -65 -219 -65q-172 0 -264.5 146.5t-92.5 408.5zM179 1550v19h43q42 -40 92.5 -98.5t100.5 -114.5l49 55q108 129 139 158h47v-19 q-58 -75 -112 -165t-78 -144h-95q-70 148 -186 309zM195 629h417q0 179 -54.5 285t-147.5 106q-196 0 -215 -391z" />
<glyph unicode="&#x11c;" horiz-adv-x="1075" d="M111 735q0 356 136.5 552t383.5 196q166 0 313 -94l-47 -86q-138 88 -266 88q-205 0 -310.5 -168.5t-105.5 -489.5q0 -314 106.5 -486.5t301.5 -172.5q140 0 239 37v532h-221v94h320v-692q-167 -65 -347 -65q-239 0 -371 200t-132 555zM377 1579v19q121 168 186 309h95 q24 -55 78.5 -144.5t111.5 -164.5v-19h-47q-32 31 -91 101l-97 112q-50 -56 -100.5 -114.5t-92.5 -98.5h-43z" />
<glyph unicode="&#x11d;" horiz-adv-x="741" d="M35 -203q0 102 52 174.5t163 114.5q-50 22 -80.5 61t-30.5 93q0 49 32.5 87.5t92.5 82.5q-83 38 -125.5 123t-42.5 200q0 173 73 273t200 100q68 0 114 -21h230v-67l-148 -17q30 -39 49 -111.5t19 -148.5q0 -158 -71.5 -256t-188.5 -98h-24l-21 2q-48 -34 -75.5 -68 t-27.5 -79q0 -46 36 -71.5t97 -25.5h68q145 0 225 -75t80 -217q0 -159 -107.5 -252t-283.5 -93q-147 0 -226 74.5t-79 214.5zM129 -195q0 -103 53.5 -161t161.5 -58q134 0 212.5 70t78.5 192q0 98 -53.5 151.5t-155.5 53.5h-70q-98 0 -162.5 -68.5t-64.5 -179.5zM136 1241 v19q121 168 186 309h95q24 -55 78.5 -144.5t111.5 -164.5v-19h-47q-32 31 -91 101l-97 112q-50 -56 -100.5 -114.5t-92.5 -98.5h-43zM188 731q0 -133 49 -201.5t130 -68.5q174 0 174 280q0 135 -44.5 211t-129.5 76q-87 0 -133 -78t-46 -219z" />
<glyph unicode="&#x11e;" horiz-adv-x="1075" d="M111 735q0 356 136.5 552t383.5 196q166 0 313 -94l-47 -86q-138 88 -266 88q-205 0 -310.5 -168.5t-105.5 -489.5q0 -314 106.5 -486.5t301.5 -172.5q140 0 239 37v532h-221v94h320v-692q-167 -65 -347 -65q-239 0 -371 200t-132 555zM393 1817h68q7 -74 45.5 -112 t101.5 -38q128 0 148 150h72q-3 -109 -61.5 -171.5t-162.5 -62.5q-198 0 -211 234z" />
<glyph unicode="&#x11f;" horiz-adv-x="741" d="M35 -203q0 102 52 174.5t163 114.5q-50 22 -80.5 61t-30.5 93q0 49 32.5 87.5t92.5 82.5q-83 38 -125.5 123t-42.5 200q0 173 73 273t200 100q68 0 114 -21h230v-67l-148 -17q30 -39 49 -111.5t19 -148.5q0 -158 -71.5 -256t-188.5 -98h-24l-21 2q-48 -34 -75.5 -68 t-27.5 -79q0 -46 36 -71.5t97 -25.5h68q145 0 225 -75t80 -217q0 -159 -107.5 -252t-283.5 -93q-147 0 -226 74.5t-79 214.5zM129 -195q0 -103 53.5 -161t161.5 -58q134 0 212.5 70t78.5 192q0 98 -53.5 151.5t-155.5 53.5h-70q-98 0 -162.5 -68.5t-64.5 -179.5zM152 1479 h68q7 -74 45.5 -112t101.5 -38q128 0 148 150h72q-3 -109 -61.5 -171.5t-162.5 -62.5q-198 0 -211 234zM188 731q0 -133 49 -201.5t130 -68.5q174 0 174 280q0 135 -44.5 211t-129.5 76q-87 0 -133 -78t-46 -219z" />
<glyph unicode="&#x120;" horiz-adv-x="1075" d="M111 735q0 356 136.5 552t383.5 196q166 0 313 -94l-47 -86q-138 88 -266 88q-205 0 -310.5 -168.5t-105.5 -489.5q0 -314 106.5 -486.5t301.5 -172.5q140 0 239 37v532h-221v94h320v-692q-167 -65 -347 -65q-239 0 -371 200t-132 555zM563 1724q0 45 18.5 70t47.5 25 q27 0 43 -25t16 -70q0 -43 -16 -68.5t-43 -25.5q-29 0 -47.5 25.5t-18.5 68.5z" />
<glyph unicode="&#x121;" horiz-adv-x="741" d="M35 -203q0 102 52 174.5t163 114.5q-50 22 -80.5 61t-30.5 93q0 49 32.5 87.5t92.5 82.5q-83 38 -125.5 123t-42.5 200q0 173 73 273t200 100q68 0 114 -21h230v-67l-148 -17q30 -39 49 -111.5t19 -148.5q0 -158 -71.5 -256t-188.5 -98h-24l-21 2q-48 -34 -75.5 -68 t-27.5 -79q0 -46 36 -71.5t97 -25.5h68q145 0 225 -75t80 -217q0 -159 -107.5 -252t-283.5 -93q-147 0 -226 74.5t-79 214.5zM129 -195q0 -103 53.5 -161t161.5 -58q134 0 212.5 70t78.5 192q0 98 -53.5 151.5t-155.5 53.5h-70q-98 0 -162.5 -68.5t-64.5 -179.5zM188 731 q0 -133 49 -201.5t130 -68.5q174 0 174 280q0 135 -44.5 211t-129.5 76q-87 0 -133 -78t-46 -219zM307 1386q0 45 18.5 70t47.5 25q27 0 43 -25t16 -70q0 -43 -16 -68.5t-43 -25.5q-29 0 -47.5 25.5t-18.5 68.5z" />
<glyph unicode="&#x122;" horiz-adv-x="1075" d="M111 735q0 356 136.5 552t383.5 196q166 0 313 -94l-47 -86q-138 88 -266 88q-205 0 -310.5 -168.5t-105.5 -489.5q0 -314 106.5 -486.5t301.5 -172.5q140 0 239 37v532h-221v94h320v-692q-167 -65 -347 -65q-239 0 -371 200t-132 555zM514 -432q22 60 46 150t30 157h111 v-20q-21 -78 -63 -165t-83 -143h-41v21z" />
<glyph unicode="&#x123;" horiz-adv-x="741" d="M35 -203q0 102 52 174.5t163 114.5q-50 22 -80.5 61t-30.5 93q0 49 32.5 87.5t92.5 82.5q-83 38 -125.5 123t-42.5 200q0 173 73 273t200 100q68 0 114 -21h230v-67l-148 -17q30 -39 49 -111.5t19 -148.5q0 -158 -71.5 -256t-188.5 -98h-24l-21 2q-48 -34 -75.5 -68 t-27.5 -79q0 -46 36 -71.5t97 -25.5h68q145 0 225 -75t80 -217q0 -159 -107.5 -252t-283.5 -93q-147 0 -226 74.5t-79 214.5zM129 -195q0 -103 53.5 -161t161.5 -58q134 0 212.5 70t78.5 192q0 98 -53.5 151.5t-155.5 53.5h-70q-98 0 -162.5 -68.5t-64.5 -179.5zM188 731 q0 -133 49 -201.5t130 -68.5q174 0 174 280q0 135 -44.5 211t-129.5 76q-87 0 -133 -78t-46 -219zM323 1241v21q12 64 60 161.5t102 145.5h43v-21q-24 -36 -57.5 -135.5t-41.5 -171.5h-106z" />
<glyph unicode="&#x124;" horiz-adv-x="1026" d="M160 0v1462h98v-649h510v649h98v-1462h-98v719h-510v-719h-98zM277 1579v19q121 168 186 309h95q24 -55 78.5 -144.5t111.5 -164.5v-19h-47q-32 31 -91 101l-97 112q-50 -56 -100.5 -114.5t-92.5 -98.5h-43z" />
<glyph unicode="&#x125;" horiz-adv-x="870" d="M145 0v1556h95v-505q0 -69 -4 -115h8q32 81 96.5 125.5t134.5 44.5q138 0 196 -90t58 -268v-748h-94v748q0 147 -38.5 208.5t-125.5 61.5q-115 0 -173 -102t-58 -322v-594h-95zM200 1634v19q121 168 186 309h95q24 -55 78.5 -144.5t111.5 -164.5v-19h-47q-32 31 -91 101 l-97 112q-50 -56 -100.5 -114.5t-92.5 -98.5h-43z" />
<glyph unicode="&#x126;" horiz-adv-x="1026" d="M0 1094v90h160v278h98v-278h510v278h98v-278h160v-90h-160v-1094h-98v717h-510v-717h-98v1094h-160zM258 815h510v279h-510v-279z" />
<glyph unicode="&#x127;" horiz-adv-x="870" d="M27 1270v84h118v202h95v-202h262v-84h-262v-219q0 -69 -4 -115h8q32 81 96.5 125.5t134.5 44.5q138 0 196 -90t58 -268v-748h-94v748q0 147 -38.5 208.5t-125.5 61.5q-115 0 -173 -102t-58 -322v-594h-95v1270h-118z" />
<glyph unicode="&#x128;" horiz-adv-x="418" d="M-71 1579q12 97 53 154t113 57q35 0 68 -20t63.5 -43.5t58 -43.5t52.5 -20q35 0 52.5 36t26.5 93h74q-9 -101 -51 -156t-109 -55q-35 0 -69 20t-65 43.5t-58.5 43.5t-50.5 20q-32 0 -53.5 -36t-30.5 -93h-74zM160 0v1462h98v-1462h-98z" />
<glyph unicode="&#x129;" horiz-adv-x="385" d="M-71 1241q12 97 53 154t113 57q35 0 68 -20t63.5 -43.5t58 -43.5t52.5 -20q35 0 52.5 36t26.5 93h74q-9 -101 -51 -156t-109 -55q-35 0 -69 20t-65 43.5t-58.5 43.5t-50.5 20q-32 0 -53.5 -36t-30.5 -93h-74zM145 0v1085h95v-1085h-95z" />
<glyph unicode="&#x12a;" horiz-adv-x="418" d="M-15 1589v82h452v-82h-452zM160 0v1462h98v-1462h-98z" />
<glyph unicode="&#x12b;" horiz-adv-x="385" d="M-31 1251v82h452v-82h-452zM145 0v1085h95v-1085h-95z" />
<glyph unicode="&#x12c;" horiz-adv-x="418" d="M-8 1817h68q7 -74 45.5 -112t101.5 -38q128 0 148 150h72q-3 -109 -61.5 -171.5t-162.5 -62.5q-198 0 -211 234zM160 0v1462h98v-1462h-98z" />
<glyph unicode="&#x12d;" horiz-adv-x="385" d="M-28 1479h68q7 -74 45.5 -112t101.5 -38q128 0 148 150h72q-3 -109 -61.5 -171.5t-162.5 -62.5q-198 0 -211 234zM145 0v1085h95v-1085h-95z" />
<glyph unicode="&#x12e;" horiz-adv-x="418" d="M38 -270q0 74 43 149t104 121h74q-71 -71 -101 -133t-30 -127q0 -109 96 -109q39 0 57 9v-74q-30 -12 -75 -12q-168 0 -168 176zM160 0v1462h98v-1462h-98z" />
<glyph unicode="&#x12f;" horiz-adv-x="385" d="M20 -270q0 74 43 149t104 121h74q-71 -71 -101 -133t-30 -127q0 -109 96 -109q39 0 57 9v-74q-30 -12 -75 -12q-168 0 -168 176zM131 1386q0 45 18.5 70t47.5 25q27 0 43 -25t16 -70q0 -43 -16 -68.5t-43 -25.5q-29 0 -47.5 25.5t-18.5 68.5zM145 0v1085h95v-1085h-95z " />
<glyph unicode="&#x130;" horiz-adv-x="418" d="M147 1724q0 45 18.5 70t47.5 25q27 0 43 -25t16 -70q0 -43 -16 -68.5t-43 -25.5q-29 0 -47.5 25.5t-18.5 68.5zM160 0v1462h98v-1462h-98z" />
<glyph unicode="&#x131;" horiz-adv-x="385" d="M145 0v1085h95v-1085h-95z" />
<glyph unicode="&#x132;" d="M160 0v1462h98v-1462h-98zM328 -252q49 -20 115 -20q63 0 94 57.5t31 189.5v1487h98v-1485q0 -172 -56 -259t-165 -87q-67 0 -117 25v92z" />
<glyph unicode="&#x133;" horiz-adv-x="770" d="M131 1386q0 45 18.5 70t47.5 25q27 0 43 -25t16 -70q0 -43 -16 -68.5t-43 -25.5q-29 0 -47.5 25.5t-18.5 68.5zM145 0v1085h95v-1085h-95zM381 -385q32 -16 63 -16q47 0 66.5 45.5t19.5 140.5v1300h95v-1286q0 -149 -43 -220t-134 -71q-42 0 -67 17v90zM516 1386 q0 45 18.5 70t47.5 25q27 0 43 -25t16 -70q0 -43 -16 -68.5t-43 -25.5q-29 0 -47.5 25.5t-18.5 68.5z" />
<glyph unicode="&#x134;" horiz-adv-x="401" d="M-90 -252q49 -20 115 -20q63 0 94 57.5t31 189.5v1487h98v-1485q0 -172 -56 -259t-165 -87q-67 0 -117 25v92zM-38 1579v19q121 168 186 309h95q24 -55 78.5 -144.5t111.5 -164.5v-19h-47q-32 31 -91 101l-97 112q-50 -56 -100.5 -114.5t-92.5 -98.5h-43z" />
<glyph unicode="&#x135;" horiz-adv-x="385" d="M-42 1241v19q121 168 186 309h95q24 -55 78.5 -144.5t111.5 -164.5v-19h-47q-32 31 -91 101l-97 112q-50 -56 -100.5 -114.5t-92.5 -98.5h-43zM-4 -385q32 -16 63 -16q47 0 66.5 45.5t19.5 140.5v1300h95v-1286q0 -149 -43 -220t-134 -71q-42 0 -67 17v90z" />
<glyph unicode="&#x136;" horiz-adv-x="825" d="M160 0v1462h98v-774q51 96 432 774h107l-367 -643l395 -819h-110l-344 729l-113 -149v-580h-98zM351 -432q22 60 46 150t30 157h111v-20q-21 -78 -63 -165t-83 -143h-41v21z" />
<glyph unicode="&#x137;" horiz-adv-x="711" d="M145 0v1556h95v-837l-7 -182h9l61 110l268 438h103l-250 -399l272 -686h-100l-236 598l-120 -158v-440h-95zM271 -432q22 60 46 150t30 157h111v-20q-21 -78 -63 -165t-83 -143h-41v21z" />
<glyph unicode="&#x138;" horiz-adv-x="711" d="M145 0v1085h95v-366q0 -107 -7 -182h9q22 43 42.5 79.5t286.5 468.5h103l-250 -399l272 -686h-100l-236 598l-120 -158v-440h-95z" />
<glyph unicode="&#x139;" horiz-adv-x="711" d="M160 0v1462h98v-1368h412v-94h-510zM185 1579v21q127 166 191 307h125v-17q-39 -70 -118.5 -161t-150.5 -150h-47z" />
<glyph unicode="&#x13a;" horiz-adv-x="385" d="M138 1636v21q127 166 191 307h125v-17q-39 -70 -118.5 -161t-150.5 -150h-47zM145 0v1556h95v-1556h-95z" />
<glyph unicode="&#x13b;" horiz-adv-x="711" d="M160 0v1462h98v-1368h412v-94h-510zM285 -432q22 60 46 150t30 157h111v-20q-21 -78 -63 -165t-83 -143h-41v21z" />
<glyph unicode="&#x13c;" horiz-adv-x="385" d="M62 -432q22 60 46 150t30 157h111v-20q-21 -78 -63 -165t-83 -143h-41v21zM145 0v1556h95v-1556h-95z" />
<glyph unicode="&#x13d;" horiz-adv-x="711" d="M160 0v1462h98v-1368h412v-94h-510zM422 1136v20q9 38 25.5 136.5t23.5 170.5h113v-20q-10 -56 -49.5 -154t-75.5 -153h-37z" />
<glyph unicode="&#x13e;" horiz-adv-x="385" d="M145 0v1556h95v-1556h-95zM321 1229v20q9 38 25.5 136.5t23.5 170.5h113v-20q-10 -56 -49.5 -154t-75.5 -153h-37z" />
<glyph unicode="&#x13f;" horiz-adv-x="711" d="M160 0v1462h98v-1368h412v-94h-510zM500 707q0 45 18.5 70t47.5 25q27 0 43 -25t16 -70q0 -43 -16 -68.5t-43 -25.5q-29 0 -47.5 25.5t-18.5 68.5z" />
<glyph unicode="&#x140;" horiz-adv-x="457" d="M145 0v1556h95v-1556h-95zM362 674q0 45 18.5 70t47.5 25q27 0 43 -25t16 -70q0 -43 -16 -68.5t-43 -25.5q-29 0 -47.5 25.5t-18.5 68.5z" />
<glyph unicode="&#x141;" horiz-adv-x="711" d="M6 510l154 92v860h98v-803l260 156l45 -76l-305 -180v-465h412v-94h-510v502h-2l-105 -64z" />
<glyph unicode="&#x142;" horiz-adv-x="385" d="M-35 641l180 129v786h95v-718l135 100l51 -70l-186 -135v-733h-95v666l-131 -95z" />
<glyph unicode="&#x143;" horiz-adv-x="1090" d="M160 0v1462h127l549 -1296h6q-8 164 -8 274v1022h96v-1462h-125l-553 1311h-8q12 -136 12 -262v-1049h-96zM479 1579v21q127 166 191 307h125v-17q-39 -70 -118.5 -161t-150.5 -150h-47z" />
<glyph unicode="&#x144;" horiz-adv-x="870" d="M145 0v1085h80l8 -151h9q34 82 98 127t137 45q126 0 189 -84.5t63 -271.5v-750h-94v748q0 270 -160 270q-122 0 -178.5 -101t-56.5 -321v-596h-95zM382 1241v21q127 166 191 307h125v-17q-39 -70 -118.5 -161t-150.5 -150h-47z" />
<glyph unicode="&#x145;" horiz-adv-x="1090" d="M160 0v1462h127l549 -1296h6q-8 164 -8 274v1022h96v-1462h-125l-553 1311h-8q12 -136 12 -262v-1049h-96zM407 -432q22 60 46 150t30 157h111v-20q-21 -78 -63 -165t-83 -143h-41v21z" />
<glyph unicode="&#x146;" horiz-adv-x="870" d="M145 0v1085h80l8 -151h9q34 82 98 127t137 45q126 0 189 -84.5t63 -271.5v-750h-94v748q0 270 -160 270q-122 0 -178.5 -101t-56.5 -321v-596h-95zM302 -432q22 60 46 150t30 157h111v-20q-21 -78 -63 -165t-83 -143h-41v21z" />
<glyph unicode="&#x147;" horiz-adv-x="1090" d="M160 0v1462h127l549 -1296h6q-8 164 -8 274v1022h96v-1462h-125l-553 1311h-8q12 -136 12 -262v-1049h-96zM284 1888v19h43q42 -40 92.5 -98.5t100.5 -114.5l49 55q108 129 139 158h47v-19q-58 -75 -112 -165t-78 -144h-95q-70 148 -186 309z" />
<glyph unicode="&#x148;" horiz-adv-x="870" d="M145 0v1085h80l8 -151h9q34 82 98 127t137 45q126 0 189 -84.5t63 -271.5v-750h-94v748q0 270 -160 270q-122 0 -178.5 -101t-56.5 -321v-596h-95zM193 1550v19h43q42 -40 92.5 -98.5t100.5 -114.5l49 55q108 129 139 158h47v-19q-58 -75 -112 -165t-78 -144h-95 q-70 148 -186 309z" />
<glyph unicode="&#x149;" horiz-adv-x="944" d="M1 993q75 255 100 469h115l14 -22q-64 -218 -166 -447h-63zM219 0v1085h80l8 -151h9q34 82 98 127t137 45q126 0 189 -84.5t63 -271.5v-750h-94v748q0 270 -160 270q-122 0 -178.5 -101t-56.5 -321v-596h-95z" />
<glyph unicode="&#x14a;" horiz-adv-x="1090" d="M160 0v1462h127l549 -1237h6q-8 152 -8 267v970h96v-1485q0 -172 -56 -259t-165 -87q-67 0 -117 25v92q49 -20 115 -20q63 0 95 57.5t32 189.5v25l-582 1311h-8q12 -136 12 -262v-1049h-96z" />
<glyph unicode="&#x14b;" horiz-adv-x="870" d="M145 0v1085h80l8 -151h7q33 80 97.5 126t139.5 46q135 0 193.5 -93.5t58.5 -303.5v-910q0 -291 -176 -291q-40 0 -68 17v90q35 -16 64 -16q86 0 86 186v963q0 264 -172 264q-117 0 -170 -100.5t-53 -315.5v-596h-95z" />
<glyph unicode="&#x14c;" horiz-adv-x="1065" d="M111 735q0 378 106 563t318 185q204 0 311.5 -194.5t107.5 -555.5q0 -363 -108.5 -558t-313.5 -195q-207 0 -314 196.5t-107 558.5zM213 733q0 -326 81.5 -492.5t237.5 -166.5q157 0 238.5 165t81.5 494q0 325 -80 490.5t-237 165.5q-161 0 -241.5 -167.5t-80.5 -488.5z M315 1589v82h452v-82h-452z" />
<glyph unicode="&#x14d;" horiz-adv-x="850" d="M94 545q0 561 332 561q156 0 243 -147t87 -414q0 -274 -86.5 -419.5t-247.5 -145.5q-159 0 -243.5 145.5t-84.5 419.5zM193 545q0 -235 56 -355t175 -120q233 0 233 475q0 471 -233 471q-122 0 -176.5 -118t-54.5 -353zM212 1251v82h452v-82h-452z" />
<glyph unicode="&#x14e;" horiz-adv-x="1065" d="M111 735q0 378 106 563t318 185q204 0 311.5 -194.5t107.5 -555.5q0 -363 -108.5 -558t-313.5 -195q-207 0 -314 196.5t-107 558.5zM213 733q0 -326 81.5 -492.5t237.5 -166.5q157 0 238.5 165t81.5 494q0 325 -80 490.5t-237 165.5q-161 0 -241.5 -167.5t-80.5 -488.5z M322 1817h68q7 -74 45.5 -112t101.5 -38q128 0 148 150h72q-3 -109 -61.5 -171.5t-162.5 -62.5q-198 0 -211 234z" />
<glyph unicode="&#x14f;" horiz-adv-x="850" d="M94 545q0 561 332 561q156 0 243 -147t87 -414q0 -274 -86.5 -419.5t-247.5 -145.5q-159 0 -243.5 145.5t-84.5 419.5zM193 545q0 -235 56 -355t175 -120q233 0 233 475q0 471 -233 471q-122 0 -176.5 -118t-54.5 -353zM205 1479h68q7 -74 45.5 -112t101.5 -38 q128 0 148 150h72q-3 -109 -61.5 -171.5t-162.5 -62.5q-198 0 -211 234z" />
<glyph unicode="&#x150;" horiz-adv-x="1065" d="M111 735q0 378 106 563t318 185q204 0 311.5 -194.5t107.5 -555.5q0 -363 -108.5 -558t-313.5 -195q-207 0 -314 196.5t-107 558.5zM213 733q0 -326 81.5 -492.5t237.5 -166.5q157 0 238.5 165t81.5 494q0 325 -80 490.5t-237 165.5q-161 0 -241.5 -167.5t-80.5 -488.5z M355 1579v21q45 59 93 149.5t77 157.5h119v-17q-42 -75 -110 -164.5t-132 -146.5h-47zM621 1579v21q45 59 93 149.5t77 157.5h119v-17q-38 -73 -109.5 -164.5t-132.5 -146.5h-47z" />
<glyph unicode="&#x151;" horiz-adv-x="850" d="M94 545q0 561 332 561q156 0 243 -147t87 -414q0 -274 -86.5 -419.5t-247.5 -145.5q-159 0 -243.5 145.5t-84.5 419.5zM193 545q0 -235 56 -355t175 -120q233 0 233 475q0 471 -233 471q-122 0 -176.5 -118t-54.5 -353zM214 1241v21q45 59 93 149.5t77 157.5h119v-17 q-42 -75 -110 -164.5t-132 -146.5h-47zM480 1241v21q45 59 93 149.5t77 157.5h119v-17q-38 -73 -109.5 -164.5t-132.5 -146.5h-47z" />
<glyph unicode="&#x152;" horiz-adv-x="1233" d="M111 735q0 364 123.5 548.5t359.5 184.5l115 -6h426v-94h-433v-555h408v-94h-408v-625h433v-94h-424l-125 -6q-475 0 -475 741zM215 733q0 -340 92.5 -492.5t296.5 -152.5v1286q-202 0 -295.5 -150t-93.5 -491z" />
<glyph unicode="&#x153;" horiz-adv-x="1362" d="M94 545q0 561 332 561q193 0 276 -227q79 227 273 227q135 0 213 -128.5t78 -346.5v-88h-514q4 -477 264 -477q102 0 215 67v-88q-104 -65 -219 -65q-219 0 -307 231q-80 -231 -283 -231q-159 0 -243.5 145.5t-84.5 419.5zM193 545q0 -479 231 -479t231 454v25 q0 471 -231 471q-122 0 -176.5 -118t-54.5 -353zM754 629h417v12q0 171 -54.5 274t-147.5 103q-196 0 -215 -389z" />
<glyph unicode="&#x154;" horiz-adv-x="870" d="M160 0v1462h200q214 0 313 -101t99 -302q0 -152 -54 -250t-181 -147l290 -662h-110l-273 639h-186v-639h-98zM258 729h137q133 0 205 82t72 244q0 165 -73.5 238t-231.5 73h-109v-637zM355 1579v21q127 166 191 307h125v-17q-39 -70 -118.5 -161t-150.5 -150h-47z" />
<glyph unicode="&#x155;" horiz-adv-x="559" d="M145 0v1085h78l10 -190h7q76 211 206 211q51 0 95 -14l-23 -95q-36 15 -74 15q-55 0 -102.5 -56.5t-74.5 -157.5t-27 -223v-575h-95zM255 1241v21q127 166 191 307h125v-17q-39 -70 -118.5 -161t-150.5 -150h-47z" />
<glyph unicode="&#x156;" horiz-adv-x="870" d="M160 0v1462h200q214 0 313 -101t99 -302q0 -152 -54 -250t-181 -147l290 -662h-110l-273 639h-186v-639h-98zM258 729h137q133 0 205 82t72 244q0 165 -73.5 238t-231.5 73h-109v-637zM324 -432q22 60 46 150t30 157h111v-20q-21 -78 -63 -165t-83 -143h-41v21z" />
<glyph unicode="&#x157;" horiz-adv-x="559" d="M68 -432q22 60 46 150t30 157h111v-20q-21 -78 -63 -165t-83 -143h-41v21zM145 0v1085h78l10 -190h7q76 211 206 211q51 0 95 -14l-23 -95q-36 15 -74 15q-55 0 -102.5 -56.5t-74.5 -157.5t-27 -223v-575h-95z" />
<glyph unicode="&#x158;" horiz-adv-x="870" d="M160 0v1462h200q214 0 313 -101t99 -302q0 -152 -54 -250t-181 -147l290 -662h-110l-273 639h-186v-639h-98zM202 1888v19h43q42 -40 92.5 -98.5t100.5 -114.5l49 55q108 129 139 158h47v-19q-58 -75 -112 -165t-78 -144h-95q-70 148 -186 309zM258 729h137q133 0 205 82 t72 244q0 165 -73.5 238t-231.5 73h-109v-637z" />
<glyph unicode="&#x159;" horiz-adv-x="559" d="M97 1550v19h43q42 -40 92.5 -98.5t100.5 -114.5l49 55q108 129 139 158h47v-19q-58 -75 -112 -165t-78 -144h-95q-70 148 -186 309zM145 0v1085h78l10 -190h7q76 211 206 211q51 0 95 -14l-23 -95q-36 15 -74 15q-55 0 -102.5 -56.5t-74.5 -157.5t-27 -223v-575h-95z" />
<glyph unicode="&#x15a;" horiz-adv-x="809" d="M86 31v106q52 -29 129 -46t152 -17q112 0 184 85t72 216q0 121 -51 192t-195 142q-113 57 -169 110.5t-83 124.5t-27 170q0 108 44 192t123 130.5t173 46.5q85 0 154.5 -19t109.5 -41l-38 -94q-111 57 -226 57q-108 0 -175.5 -73.5t-67.5 -194.5q0 -123 49 -191t192 -141 q148 -72 216.5 -168.5t68.5 -234.5q0 -180 -100 -291.5t-254 -111.5q-175 0 -281 51zM380 1579v21q127 166 191 307h125v-17q-39 -70 -118.5 -161t-150.5 -150h-47z" />
<glyph unicode="&#x15b;" horiz-adv-x="645" d="M74 41v111q37 -37 98 -59.5t125 -22.5q84 0 132 55t48 147q0 72 -34.5 121.5t-131.5 112.5q-111 70 -151.5 112t-63 94t-22.5 124q0 117 79 193.5t201 76.5q131 0 219 -62l-49 -83q-82 55 -174 55q-84 0 -134 -49.5t-50 -130.5q0 -72 34 -120.5t144 -117.5 q108 -71 148 -113.5t59.5 -94t19.5 -118.5q0 -137 -72 -214.5t-208 -77.5q-74 0 -130 19t-87 42zM273 1241v21q127 166 191 307h125v-17q-39 -70 -118.5 -161t-150.5 -150h-47z" />
<glyph unicode="&#x15c;" horiz-adv-x="809" d="M86 31v106q52 -29 129 -46t152 -17q112 0 184 85t72 216q0 121 -51 192t-195 142q-113 57 -169 110.5t-83 124.5t-27 170q0 108 44 192t123 130.5t173 46.5q85 0 154.5 -19t109.5 -41l-38 -94q-111 57 -226 57q-108 0 -175.5 -73.5t-67.5 -194.5q0 -123 49 -191t192 -141 q148 -72 216.5 -168.5t68.5 -234.5q0 -180 -100 -291.5t-254 -111.5q-175 0 -281 51zM191 1579v19q121 168 186 309h95q24 -55 78.5 -144.5t111.5 -164.5v-19h-47q-32 31 -91 101l-97 112q-50 -56 -100.5 -114.5t-92.5 -98.5h-43z" />
<glyph unicode="&#x15d;" horiz-adv-x="645" d="M74 41v111q37 -37 98 -59.5t125 -22.5q84 0 132 55t48 147q0 72 -34.5 121.5t-131.5 112.5q-111 70 -151.5 112t-63 94t-22.5 124q0 117 79 193.5t201 76.5q131 0 219 -62l-49 -83q-82 55 -174 55q-84 0 -134 -49.5t-50 -130.5q0 -72 34 -120.5t144 -117.5 q108 -71 148 -113.5t59.5 -94t19.5 -118.5q0 -137 -72 -214.5t-208 -77.5q-74 0 -130 19t-87 42zM99 1241v19q121 168 186 309h95q24 -55 78.5 -144.5t111.5 -164.5v-19h-47q-32 31 -91 101l-97 112q-50 -56 -100.5 -114.5t-92.5 -98.5h-43z" />
<glyph unicode="&#x15e;" horiz-adv-x="809" d="M86 31v106q52 -29 129 -46t152 -17q112 0 184 85t72 216q0 121 -51 192t-195 142q-113 57 -169 110.5t-83 124.5t-27 170q0 108 44 192t123 130.5t173 46.5q85 0 154.5 -19t109.5 -41l-38 -94q-111 57 -226 57q-108 0 -175.5 -73.5t-67.5 -194.5q0 -123 49 -191t192 -141 q148 -72 216.5 -168.5t68.5 -234.5q0 -180 -100 -291.5t-254 -111.5q-175 0 -281 51zM176 -403q31 -11 78 -11q78 0 115 33.5t37 87.5q0 60 -44 90.5t-122 42.5l72 160h75l-51 -115q160 -39 160 -176q0 -100 -62.5 -150.5t-171.5 -50.5q-62 0 -86 11v78z" />
<glyph unicode="&#x15f;" horiz-adv-x="645" d="M74 41v111q37 -37 98 -59.5t125 -22.5q84 0 132 55t48 147q0 72 -34.5 121.5t-131.5 112.5q-111 70 -151.5 112t-63 94t-22.5 124q0 117 79 193.5t201 76.5q131 0 219 -62l-49 -83q-82 55 -174 55q-84 0 -134 -49.5t-50 -130.5q0 -72 34 -120.5t144 -117.5 q108 -71 148 -113.5t59.5 -94t19.5 -118.5q0 -137 -72 -214.5t-208 -77.5q-74 0 -130 19t-87 42zM131 -403q31 -11 78 -11q78 0 115 33.5t37 87.5q0 60 -44 90.5t-122 42.5l72 160h75l-51 -115q160 -39 160 -176q0 -100 -62.5 -150.5t-171.5 -50.5q-62 0 -86 11v78z" />
<glyph unicode="&#x160;" horiz-adv-x="809" d="M86 31v106q52 -29 129 -46t152 -17q112 0 184 85t72 216q0 121 -51 192t-195 142q-113 57 -169 110.5t-83 124.5t-27 170q0 108 44 192t123 130.5t173 46.5q85 0 154.5 -19t109.5 -41l-38 -94q-111 57 -226 57q-108 0 -175.5 -73.5t-67.5 -194.5q0 -123 49 -191t192 -141 q148 -72 216.5 -168.5t68.5 -234.5q0 -180 -100 -291.5t-254 -111.5q-175 0 -281 51zM204 1888v19h43q42 -40 92.5 -98.5t100.5 -114.5l49 55q108 129 139 158h47v-19q-58 -75 -112 -165t-78 -144h-95q-70 148 -186 309z" />
<glyph unicode="&#x161;" horiz-adv-x="645" d="M74 41v111q37 -37 98 -59.5t125 -22.5q84 0 132 55t48 147q0 72 -34.5 121.5t-131.5 112.5q-111 70 -151.5 112t-63 94t-22.5 124q0 117 79 193.5t201 76.5q131 0 219 -62l-49 -83q-82 55 -174 55q-84 0 -134 -49.5t-50 -130.5q0 -72 34 -120.5t144 -117.5 q108 -71 148 -113.5t59.5 -94t19.5 -118.5q0 -137 -72 -214.5t-208 -77.5q-74 0 -130 19t-87 42zM101 1550v19h43q42 -40 92.5 -98.5t100.5 -114.5l49 55q108 129 139 158h47v-19q-58 -75 -112 -165t-78 -144h-95q-70 148 -186 309z" />
<glyph unicode="&#x162;" horiz-adv-x="711" d="M14 1368v94h680v-94h-291v-1368h-98v1368h-291zM184 -403q31 -11 78 -11q78 0 115 33.5t37 87.5q0 60 -44 90.5t-122 42.5l72 160h75l-51 -115q160 -39 160 -176q0 -100 -62.5 -150.5t-171.5 -50.5q-62 0 -86 11v78z" />
<glyph unicode="&#x163;" horiz-adv-x="449" d="M43 1001v56l96 28l31 258h66v-258h172v-84h-172v-743q0 -110 24 -150t84 -40q44 0 78 12v-80q-44 -20 -113 -20q-168 0 -168 251v770h-98zM114 -403q31 -11 78 -11q78 0 115 33.5t37 87.5q0 60 -44 90.5t-122 42.5l72 160h75l-51 -115q160 -39 160 -176 q0 -100 -62.5 -150.5t-171.5 -50.5q-62 0 -86 11v78z" />
<glyph unicode="&#x164;" horiz-adv-x="711" d="M14 1368v94h680v-94h-291v-1368h-98v1368h-291zM120 1888v19h43q42 -40 92.5 -98.5t100.5 -114.5l49 55q108 129 139 158h47v-19q-58 -75 -112 -165t-78 -144h-95q-70 148 -186 309z" />
<glyph unicode="&#x165;" horiz-adv-x="449" d="M43 1001v56l96 28l31 258h66v-258h172v-84h-172v-743q0 -110 24 -150t84 -40q44 0 78 12v-80q-44 -20 -113 -20q-168 0 -168 251v770h-98zM378 1229v20q9 38 25.5 136.5t23.5 170.5h113v-20q-10 -56 -49.5 -154t-75.5 -153h-37z" />
<glyph unicode="&#x166;" horiz-adv-x="711" d="M14 1366v96h680v-96h-291v-575h226v-91h-226v-700h-98v700h-225v91h225v575h-291z" />
<glyph unicode="&#x167;" horiz-adv-x="449" d="M43 604v84h98v313h-98v56l96 28l31 258h66v-258h172v-84h-172v-313h172v-84h-172v-346q0 -110 24 -150t84 -40q44 0 78 12v-80q-44 -20 -113 -20q-168 0 -168 251v373h-98z" />
<glyph unicode="&#x168;" horiz-adv-x="1012" d="M147 475v987h99v-999q0 -190 68.5 -289.5t195.5 -99.5q126 0 191 99.5t65 293.5v995h98v-987q0 -495 -354 -495q-177 0 -270 128t-93 367zM235 1579q12 97 53 154t113 57q35 0 68 -20t63.5 -43.5t58 -43.5t52.5 -20q35 0 52.5 36t26.5 93h74q-9 -101 -51 -156t-109 -55 q-35 0 -69 20t-65 43.5t-58.5 43.5t-50.5 20q-32 0 -53.5 -36t-30.5 -93h-74z" />
<glyph unicode="&#x169;" horiz-adv-x="870" d="M141 377v708h95v-708q0 -161 38.5 -235t118.5 -74q123 0 180.5 99.5t57.5 321.5v596h94v-1085h-80l-12 152h-8q-35 -83 -97 -127.5t-135 -44.5q-131 0 -191.5 93t-60.5 304zM169 1241q12 97 53 154t113 57q35 0 68 -20t63.5 -43.5t58 -43.5t52.5 -20q35 0 52.5 36 t26.5 93h74q-9 -101 -51 -156t-109 -55q-35 0 -69 20t-65 43.5t-58.5 43.5t-50.5 20q-32 0 -53.5 -36t-30.5 -93h-74z" />
<glyph unicode="&#x16a;" horiz-adv-x="1012" d="M147 475v987h99v-999q0 -190 68.5 -289.5t195.5 -99.5q126 0 191 99.5t65 293.5v995h98v-987q0 -495 -354 -495q-177 0 -270 128t-93 367zM296 1589v82h452v-82h-452z" />
<glyph unicode="&#x16b;" horiz-adv-x="870" d="M141 377v708h95v-708q0 -161 38.5 -235t118.5 -74q123 0 180.5 99.5t57.5 321.5v596h94v-1085h-80l-12 152h-8q-35 -83 -97 -127.5t-135 -44.5q-131 0 -191.5 93t-60.5 304zM218 1251v82h452v-82h-452z" />
<glyph unicode="&#x16c;" horiz-adv-x="1012" d="M147 475v987h99v-999q0 -190 68.5 -289.5t195.5 -99.5q126 0 191 99.5t65 293.5v995h98v-987q0 -495 -354 -495q-177 0 -270 128t-93 367zM285 1817h68q7 -74 45.5 -112t101.5 -38q128 0 148 150h72q-3 -109 -61.5 -171.5t-162.5 -62.5q-198 0 -211 234z" />
<glyph unicode="&#x16d;" horiz-adv-x="870" d="M141 377v708h95v-708q0 -161 38.5 -235t118.5 -74q123 0 180.5 99.5t57.5 321.5v596h94v-1085h-80l-12 152h-8q-35 -83 -97 -127.5t-135 -44.5q-131 0 -191.5 93t-60.5 304zM209 1479h68q7 -74 45.5 -112t101.5 -38q128 0 148 150h72q-3 -109 -61.5 -171.5t-162.5 -62.5 q-198 0 -211 234z" />
<glyph unicode="&#x16e;" horiz-adv-x="1012" d="M147 475v987h99v-999q0 -190 68.5 -289.5t195.5 -99.5q126 0 191 99.5t65 293.5v995h98v-987q0 -495 -354 -495q-177 0 -270 128t-93 367zM308 1776q0 85 53.5 135.5t145.5 50.5q87 0 143 -49.5t56 -132.5q0 -89 -54 -140t-145 -51q-93 0 -146 50.5t-53 136.5zM386 1776 q0 -53 30.5 -85t90.5 -32q54 0 87.5 32t33.5 85q0 51 -31 83.5t-90 32.5q-54 0 -87.5 -32.5t-33.5 -83.5z" />
<glyph unicode="&#x16f;" horiz-adv-x="870" d="M141 377v708h95v-708q0 -161 38.5 -235t118.5 -74q123 0 180.5 99.5t57.5 321.5v596h94v-1085h-80l-12 152h-8q-35 -83 -97 -127.5t-135 -44.5q-131 0 -191.5 93t-60.5 304zM234 1438q0 85 53.5 135.5t145.5 50.5q87 0 143 -49.5t56 -132.5q0 -89 -54 -140t-145 -51 q-93 0 -146 50.5t-53 136.5zM312 1438q0 -53 30.5 -85t90.5 -32q54 0 87.5 32t33.5 85q0 51 -31 83.5t-90 32.5q-54 0 -87.5 -32.5t-33.5 -83.5z" />
<glyph unicode="&#x170;" horiz-adv-x="1012" d="M147 475v987h99v-999q0 -190 68.5 -289.5t195.5 -99.5q126 0 191 99.5t65 293.5v995h98v-987q0 -495 -354 -495q-177 0 -270 128t-93 367zM289 1579v21q45 59 93 149.5t77 157.5h119v-17q-42 -75 -110 -164.5t-132 -146.5h-47zM555 1579v21q45 59 93 149.5t77 157.5h119 v-17q-38 -73 -109.5 -164.5t-132.5 -146.5h-47z" />
<glyph unicode="&#x171;" horiz-adv-x="870" d="M141 377v708h95v-708q0 -161 38.5 -235t118.5 -74q123 0 180.5 99.5t57.5 321.5v596h94v-1085h-80l-12 152h-8q-35 -83 -97 -127.5t-135 -44.5q-131 0 -191.5 93t-60.5 304zM231 1241v21q45 59 93 149.5t77 157.5h119v-17q-42 -75 -110 -164.5t-132 -146.5h-47zM497 1241 v21q45 59 93 149.5t77 157.5h119v-17q-38 -73 -109.5 -164.5t-132.5 -146.5h-47z" />
<glyph unicode="&#x172;" horiz-adv-x="1012" d="M147 475v987h99v-999q0 -190 68.5 -289.5t195.5 -99.5q126 0 191 99.5t65 293.5v995h98v-987q0 -495 -354 -495q-177 0 -270 128t-93 367zM394 -270q0 74 43 149t104 121h74q-71 -71 -101 -133t-30 -127q0 -109 96 -109q39 0 57 9v-74q-30 -12 -75 -12q-168 0 -168 176z " />
<glyph unicode="&#x173;" horiz-adv-x="870" d="M141 377v708h95v-708q0 -161 38.5 -235t118.5 -74q123 0 180.5 99.5t57.5 321.5v596h94v-1085h-80l-12 152h-8q-35 -83 -97 -127.5t-135 -44.5q-131 0 -191.5 93t-60.5 304zM498 -270q0 74 43 149t104 121h74q-71 -71 -101 -133t-30 -127q0 -109 96 -109q39 0 57 9v-74 q-30 -12 -75 -12q-168 0 -168 176z" />
<glyph unicode="&#x174;" horiz-adv-x="1395" d="M10 1462h103l206 -1007q48 -246 62 -344q22 160 57 340l205 1011h111l204 -1007q32 -164 46 -270l10 -74q29 211 57 344l213 1007h100l-311 -1462h-119l-223 1094q-6 27 -35 239l-14 -95l-23 -142l-219 -1096h-116zM459 1579v19q121 168 186 309h95q24 -55 78.5 -144.5 t111.5 -164.5v-19h-47q-32 31 -91 101l-97 112q-50 -56 -100.5 -114.5t-92.5 -98.5h-43z" />
<glyph unicode="&#x175;" horiz-adv-x="1124" d="M20 1085h95l135 -632l63 -330h6q18 143 58 332l135 630h100l136 -632q16 -71 57 -330h6q3 33 29.5 166t169.5 796h94l-244 -1085h-112l-150 735q-2 8 -3.5 17t-31.5 192h-2l-14 -85l-23 -124l-155 -735h-113zM329 1241v19q121 168 186 309h95q24 -55 78.5 -144.5 t111.5 -164.5v-19h-47q-32 31 -91 101l-97 112q-50 -56 -100.5 -114.5t-92.5 -98.5h-43z" />
<glyph unicode="&#x176;" horiz-adv-x="686" d="M0 1462h104l240 -755l238 755h104l-295 -891v-571h-98v571zM110 1579v19q121 168 186 309h95q24 -55 78.5 -144.5t111.5 -164.5v-19h-47q-32 31 -91 101l-97 112q-50 -56 -100.5 -114.5t-92.5 -98.5h-43z" />
<glyph unicode="&#x177;" horiz-adv-x="653" d="M-2 -389q40 -14 78 -14q60 0 95 51.5t62 165.5l48 188l-271 1083h96l164 -677q29 -122 56 -275h8q19 133 53 277l160 675h96l-317 -1290q-35 -143 -91.5 -215t-150.5 -72q-38 0 -86 17v86zM93 1241v19q121 168 186 309h95q24 -55 78.5 -144.5t111.5 -164.5v-19h-47 q-32 31 -91 101l-97 112q-50 -56 -100.5 -114.5t-92.5 -98.5h-43z" />
<glyph unicode="&#x178;" horiz-adv-x="686" d="M0 1462h104l240 -755l238 755h104l-295 -891v-571h-98v571zM130 1727q0 43 19.5 62t44.5 19q23 0 42 -19t19 -62q0 -44 -19 -64t-42 -20q-25 0 -44.5 20t-19.5 64zM435 1727q0 43 19.5 62t42.5 19q25 0 44 -19t19 -62q0 -44 -19 -64t-44 -20q-23 0 -42.5 20t-19.5 64z " />
<glyph unicode="&#x179;" horiz-adv-x="643" d="M57 0v88l424 1278h-418v96h527v-90l-430 -1278h442v-94h-545zM238 1579v21q127 166 191 307h125v-17q-39 -70 -118.5 -161t-150.5 -150h-47z" />
<glyph unicode="&#x17a;" horiz-adv-x="541" d="M59 0v76l320 925h-299v84h399v-77l-319 -924h334v-84h-435zM185 1241v21q127 166 191 307h125v-17q-39 -70 -118.5 -161t-150.5 -150h-47z" />
<glyph unicode="&#x17b;" horiz-adv-x="643" d="M57 0v88l424 1278h-418v96h527v-90l-430 -1278h442v-94h-545zM244 1724q0 45 18.5 70t47.5 25q27 0 43 -25t16 -70q0 -43 -16 -68.5t-43 -25.5q-29 0 -47.5 25.5t-18.5 68.5z" />
<glyph unicode="&#x17c;" horiz-adv-x="541" d="M59 0v76l320 925h-299v84h399v-77l-319 -924h334v-84h-435zM209 1386q0 45 18.5 70t47.5 25q27 0 43 -25t16 -70q0 -43 -16 -68.5t-43 -25.5q-29 0 -47.5 25.5t-18.5 68.5z" />
<glyph unicode="&#x17d;" horiz-adv-x="643" d="M57 0v88l424 1278h-418v96h527v-90l-430 -1278h442v-94h-545zM91 1888v19h43q42 -40 92.5 -98.5t100.5 -114.5l49 55q108 129 139 158h47v-19q-58 -75 -112 -165t-78 -144h-95q-70 148 -186 309z" />
<glyph unicode="&#x17e;" horiz-adv-x="541" d="M50 1550v19h43q42 -40 92.5 -98.5t100.5 -114.5l49 55q108 129 139 158h47v-19q-58 -75 -112 -165t-78 -144h-95q-70 148 -186 309zM59 0v76l320 925h-299v84h399v-77l-319 -924h334v-84h-435z" />
<glyph unicode="&#x17f;" horiz-adv-x="389" d="M145 0v1178q0 209 50 299t170 90q70 0 127 -25l-33 -88q-50 25 -94 25q-51 0 -76 -29.5t-37 -96.5t-12 -177v-1176h-95z" />
<glyph unicode="&#x192;" d="M80 -385q72 -18 121 -18q83 0 118 63t35 193v993h-161v53l161 39v188q0 179 50.5 268t168.5 89q75 0 158 -39l-41 -86q-63 33 -112 33q-51 0 -77 -27.5t-39 -89.5t-13 -164v-180h190v-84h-190v-957q0 -199 -55.5 -290t-186.5 -91q-67 0 -127 13v94z" />
<glyph unicode="&#x1a0;" horiz-adv-x="1053" d="M111 735q0 378 106 563t318 185q213 0 323 -217q74 16 106.5 82.5t34.5 207.5h86l17 -26q-9 -146 -62 -229t-149 -113q63 -179 63 -455q0 -363 -108.5 -558t-313.5 -195q-207 0 -314 196.5t-107 558.5zM213 733q0 -326 81.5 -492.5t237.5 -166.5q157 0 238.5 165 t81.5 494q0 325 -80 490.5t-237 165.5q-161 0 -241.5 -167.5t-80.5 -488.5z" />
<glyph unicode="&#x1a1;" horiz-adv-x="850" d="M94 545q0 561 332 561q157 0 242 -148q62 26 88 94t28 191h86l17 -26q-7 -140 -52 -219.5t-130 -112.5q51 -138 51 -340q0 -274 -86.5 -419.5t-247.5 -145.5q-159 0 -243.5 145.5t-84.5 419.5zM193 545q0 -479 231 -479q233 0 233 479q0 471 -233 471q-122 0 -176.5 -118 t-54.5 -353z" />
<glyph unicode="&#x1af;" horiz-adv-x="1077" d="M147 475v987h99v-999q0 -190 68.5 -289.5t195.5 -99.5q126 0 191 99.5t65 293.5v995h98v-200q88 15 123 81t37 213h86l16 -26q-18 -319 -262 -354v-701q0 -495 -354 -495q-177 0 -270 128t-93 367z" />
<glyph unicode="&#x1b0;" horiz-adv-x="950" d="M141 377v708h95v-708q0 -161 38.5 -235t118.5 -74q123 0 180.5 99.5t57.5 321.5v596h94v-137q87 15 122.5 80.5t37.5 214.5h86l16 -26q-10 -169 -73 -250.5t-189 -102.5v-864h-80l-12 152h-8q-35 -83 -97 -127.5t-135 -44.5q-131 0 -191.5 93t-60.5 304z" />
<glyph unicode="&#x1f0;" horiz-adv-x="385" d="M-38 1550v19h43q42 -40 92.5 -98.5t100.5 -114.5l49 55q108 129 139 158h47v-19q-58 -75 -112 -165t-78 -144h-95q-70 148 -186 309zM-4 -385q32 -16 63 -16q47 0 66.5 45.5t19.5 140.5v1300h95v-1286q0 -149 -43 -220t-134 -71q-42 0 -67 17v90z" />
<glyph unicode="&#x1fa;" horiz-adv-x="813" d="M0 0l336 1255q-62 16 -97.5 61t-35.5 118q0 85 53.5 135.5t144.5 50.5q87 0 143 -49.5t56 -132.5q0 -75 -36.5 -121t-96.5 -62l346 -1255h-104l-113 424h-383l-107 -424h-106zM240 522h329l-137 527q-24 105 -31 153q-5 -53 -12 -85.5t-149 -594.5zM281 1434 q0 -53 30 -85t90 -32q54 0 87.5 32t33.5 85q0 51 -31 83.5t-90 32.5q-54 0 -87 -32.5t-33 -83.5zM326 1663v20l49 61q102 124 141 216h125v-16q-26 -49 -85 -113t-183 -168h-47z" />
<glyph unicode="&#x1fb;" horiz-adv-x="784" d="M78 291q0 155 93 245.5t261 98.5l117 6v90q0 152 -38 221.5t-126 69.5q-93 0 -190 -61l-41 75q113 70 237 70q134 0 193 -84.5t59 -282.5v-739h-78l-12 152h-4q-78 -172 -236 -172q-106 0 -170.5 84.5t-64.5 226.5zM178 289q0 -118 42 -173t114 -55q102 0 158.5 100.5 t56.5 284.5v113l-113 -6q-131 -7 -194.5 -72.5t-63.5 -191.5zM210 1398q0 85 53.5 135.5t145.5 50.5q87 0 143 -49.5t56 -132.5q0 -89 -54 -140t-145 -51q-93 0 -146 50.5t-53 136.5zM288 1398q0 -53 30.5 -85t90.5 -32q54 0 87.5 32t33.5 85q0 51 -31 83.5t-90 32.5 q-54 0 -87.5 -32.5t-33.5 -83.5zM333 1626v21q127 166 191 307h125v-17q-39 -70 -118.5 -161t-150.5 -150h-47z" />
<glyph unicode="&#x1fc;" horiz-adv-x="1153" d="M0 0l434 1462h621v-96h-432v-553h407v-94h-407v-625h432v-94h-531v530h-268l-152 -530h-104zM283 629h241v735h-28zM559 1579v21q127 166 191 307h125v-17q-39 -70 -118.5 -161t-150.5 -150h-47z" />
<glyph unicode="&#x1fd;" horiz-adv-x="1260" d="M78 291q0 155 93 245.5t261 98.5l117 6v90q0 146 -39.5 218.5t-124.5 72.5q-93 0 -190 -61l-41 75q47 29 102.5 49.5t132.5 20.5q178 0 229 -172q84 172 250 172q137 0 216 -127.5t79 -347.5v-88h-514q9 -477 258 -477q50 0 109.5 17.5t111.5 49.5v-88q-100 -65 -223 -65 q-105 0 -185.5 63t-119.5 178q-46 -129 -117 -185t-170 -56q-106 0 -170.5 84.5t-64.5 226.5zM178 289q0 -118 42 -173t114 -55q102 0 158.5 100.5t56.5 284.5v113l-113 -6q-132 -7 -195 -69.5t-63 -194.5zM543 1241v21q127 166 191 307h125v-17q-39 -70 -118.5 -161 t-150.5 -150h-47zM651 629h418v12q0 172 -55 274.5t-148 102.5q-194 0 -215 -389z" />
<glyph unicode="&#x1fe;" horiz-adv-x="1065" d="M96 -57l119 237q-104 194 -104 555q0 378 106 563t318 185q164 0 270 -131l96 190l82 -41l-123 -239q94 -190 94 -529q0 -363 -108.5 -558t-313.5 -195q-158 0 -260 114l-94 -188zM213 733q0 -282 59 -440l484 958q-79 138 -221 138q-161 0 -241.5 -167.5t-80.5 -488.5z M322 190q77 -116 210 -116q157 0 238.5 165t81.5 494q0 251 -49 412zM429 1579v21q127 166 191 307h125v-17q-39 -70 -118.5 -161t-150.5 -150h-47z" />
<glyph unicode="&#x1ff;" horiz-adv-x="850" d="M68 -102l112 227q-86 146 -86 420q0 561 332 561q117 0 197 -86l84 170l75 -41l-102 -209q76 -148 76 -395q0 -274 -86.5 -419.5t-247.5 -145.5q-113 0 -184 69l-95 -192zM193 545q0 -202 38 -314l347 699q-56 86 -154 86q-122 0 -176.5 -118t-54.5 -353zM283 137 q51 -67 141 -67q233 0 233 475q0 180 -32 284zM300 1241v21q127 166 191 307h125v-17q-39 -70 -118.5 -161t-150.5 -150h-47z" />
<glyph unicode="&#x218;" horiz-adv-x="809" d="M86 31v106q52 -29 129 -46t152 -17q112 0 184 85t72 216q0 121 -51 192t-195 142q-113 57 -169 110.5t-83 124.5t-27 170q0 108 44 192t123 130.5t173 46.5q85 0 154.5 -19t109.5 -41l-38 -94q-111 57 -226 57q-108 0 -175.5 -73.5t-67.5 -194.5q0 -123 49 -191t192 -141 q148 -72 216.5 -168.5t68.5 -234.5q0 -180 -100 -291.5t-254 -111.5q-175 0 -281 51zM257 -432q22 60 46 150t30 157h111v-20q-21 -78 -63 -165t-83 -143h-41v21z" />
<glyph unicode="&#x219;" horiz-adv-x="645" d="M74 41v111q37 -37 98 -59.5t125 -22.5q84 0 132 55t48 147q0 72 -34.5 121.5t-131.5 112.5q-111 70 -151.5 112t-63 94t-22.5 124q0 117 79 193.5t201 76.5q131 0 219 -62l-49 -83q-82 55 -174 55q-84 0 -134 -49.5t-50 -130.5q0 -72 34 -120.5t144 -117.5 q108 -71 148 -113.5t59.5 -94t19.5 -118.5q0 -137 -72 -214.5t-208 -77.5q-74 0 -130 19t-87 42zM181 -432q22 60 46 150t30 157h111v-20q-21 -78 -63 -165t-83 -143h-41v21z" />
<glyph unicode="&#x21a;" horiz-adv-x="711" d="M14 1368v94h680v-94h-291v-1368h-98v1368h-291zM222 -432q22 60 46 150t30 157h111v-20q-21 -78 -63 -165t-83 -143h-41v21z" />
<glyph unicode="&#x21b;" horiz-adv-x="449" d="M43 1001v56l96 28l31 258h66v-258h172v-84h-172v-743q0 -110 24 -150t84 -40q44 0 78 12v-80q-44 -20 -113 -20q-168 0 -168 251v770h-98zM140 -432q22 60 46 150t30 157h111v-20q-21 -78 -63 -165t-83 -143h-41v21z" />
<glyph unicode="&#x237;" horiz-adv-x="385" d="M-4 -385q32 -16 63 -16q47 0 66.5 45.5t19.5 140.5v1300h95v-1286q0 -149 -43 -220t-134 -71q-42 0 -67 17v90z" />
<glyph unicode="&#x2bc;" horiz-adv-x="315" d="M43 993q75 255 100 469h115l14 -22q-64 -218 -166 -447h-63z" />
<glyph unicode="&#x2c6;" horiz-adv-x="1157" d="M342 1241v19q121 168 186 309h95q24 -55 78.5 -144.5t111.5 -164.5v-19h-47q-32 31 -91 101l-97 112q-50 -56 -100.5 -114.5t-92.5 -98.5h-43z" />
<glyph unicode="&#x2c7;" horiz-adv-x="1157" d="M342 1550v19h43q42 -40 92.5 -98.5t100.5 -114.5l49 55q108 129 139 158h47v-19q-58 -75 -112 -165t-78 -144h-95q-70 148 -186 309z" />
<glyph unicode="&#x2c9;" horiz-adv-x="1112" d="M330 1251v82h452v-82h-452z" />
<glyph unicode="&#x2d8;" horiz-adv-x="1157" d="M360 1479h68q7 -74 45.5 -112t101.5 -38q128 0 148 150h72q-3 -109 -61.5 -171.5t-162.5 -62.5q-198 0 -211 234z" />
<glyph unicode="&#x2d9;" horiz-adv-x="385" d="M131 1386q0 45 18.5 70t47.5 25q27 0 43 -25t16 -70q0 -43 -16 -68.5t-43 -25.5q-29 0 -47.5 25.5t-18.5 68.5z" />
<glyph unicode="&#x2da;" horiz-adv-x="1182" d="M393 1438q0 85 53.5 135.5t145.5 50.5q87 0 143 -49.5t56 -132.5q0 -89 -54 -140t-145 -51q-93 0 -146 50.5t-53 136.5zM471 1438q0 -53 30.5 -85t90.5 -32q54 0 87.5 32t33.5 85q0 51 -31 83.5t-90 32.5q-54 0 -87.5 -32.5t-33.5 -83.5z" />
<glyph unicode="&#x2db;" horiz-adv-x="383" d="M68 -270q0 74 43 149t104 121h74q-71 -71 -101 -133t-30 -127q0 -109 96 -109q39 0 57 9v-74q-30 -12 -75 -12q-168 0 -168 176z" />
<glyph unicode="&#x2dc;" horiz-adv-x="1157" d="M297 1241q12 97 53 154t113 57q35 0 68 -20t63.5 -43.5t58 -43.5t52.5 -20q35 0 52.5 36t26.5 93h74q-9 -101 -51 -156t-109 -55q-35 0 -69 20t-65 43.5t-58.5 43.5t-50.5 20q-32 0 -53.5 -36t-30.5 -93h-74z" />
<glyph unicode="&#x2dd;" horiz-adv-x="1161" d="M289 1241v21q45 59 93 149.5t77 157.5h119v-17q-42 -75 -110 -164.5t-132 -146.5h-47zM555 1241v21q45 59 93 149.5t77 157.5h119v-17q-38 -73 -109.5 -164.5t-132.5 -146.5h-47z" />
<glyph unicode="&#x2f3;" horiz-adv-x="682" d="M141 -319q0 85 53.5 135.5t145.5 50.5q87 0 143 -49.5t56 -132.5q0 -89 -54 -140t-145 -51q-93 0 -146 50.5t-53 136.5zM219 -319q0 -53 30.5 -85t90.5 -32q54 0 87.5 32t33.5 85q0 51 -31 83.5t-90 32.5q-54 0 -87.5 -32.5t-33.5 -83.5z" />
<glyph unicode="&#x300;" horiz-adv-x="0" d="M-743 1552v17h125q27 -63 82.5 -152t108.5 -155v-21h-48q-65 53 -148.5 148t-119.5 163z" />
<glyph unicode="&#x301;" horiz-adv-x="0" d="M-614 1241v21q127 166 191 307h125v-17q-39 -70 -118.5 -161t-150.5 -150h-47z" />
<glyph unicode="&#x303;" horiz-adv-x="0" d="M-796 1241q12 97 53 154t113 57q35 0 68 -20t63.5 -43.5t58 -43.5t52.5 -20q35 0 52.5 36t26.5 93h74q-9 -101 -51 -156t-109 -55q-35 0 -69 20t-65 43.5t-58.5 43.5t-50.5 20q-32 0 -53.5 -36t-30.5 -93h-74z" />
<glyph unicode="&#x309;" horiz-adv-x="0" d="M-737 1593v70q48 12 100 12q101 0 154 -43.5t53 -126.5q0 -139 -156 -176l-10 -121h-70l-6 178q66 0 111 31.5t45 83.5q0 101 -137 101q-39 0 -84 -9z" />
<glyph unicode="&#x30f;" horiz-adv-x="0" d="M-952 1552v17h118q93 -205 170 -307v-21h-47q-57 51 -129.5 144t-111.5 167zM-686 1552v17h119q38 -90 86.5 -176.5t83.5 -130.5v-21h-47q-55 47 -128 141t-114 170z" />
<glyph unicode="&#x323;" horiz-adv-x="0" d="M-657 -225q0 45 18 69.5t47 24.5q28 0 44 -24.5t16 -69.5q0 -44 -16 -69t-44 -25q-29 0 -47 25t-18 69z" />
<glyph unicode="&#x384;" horiz-adv-x="1182" d="M537 1241v21q24 66 55 179.5t41 168.5h110v-21q-23 -68 -66 -167.5t-85 -180.5h-55z" />
<glyph unicode="&#x385;" horiz-adv-x="1126" d="M336 1286q0 43 19.5 62.5t43.5 19.5q23 0 42.5 -19.5t19.5 -62.5t-19.5 -63.5t-42.5 -20.5q-24 0 -43.5 20.5t-19.5 63.5zM516 1286v21q22 57 47 154.5t29 152.5h104v-21q-10 -50 -54.5 -155t-76.5 -152h-49zM666 1286q0 43 19 62.5t42 19.5q25 0 44.5 -19.5t19.5 -62.5 t-19.5 -63.5t-44.5 -20.5q-23 0 -42 20.5t-19 63.5z" />
<glyph unicode="&#x386;" horiz-adv-x="813" d="M0 0l352 1462h101l360 -1462h-100l-129 530h-355l-127 -530h-102zM1 1136v21q24 66 55 179.5t41 168.5h110v-21q-23 -68 -66 -167.5t-85 -180.5h-55zM248 629h313l-129 545q-20 92 -31 174q-9 -87 -28 -174z" />
<glyph unicode="&#x387;" horiz-adv-x="422" d="M133 721q0 107 78 107q32 0 55 -24t23 -83q0 -57 -23 -81.5t-55 -24.5q-78 0 -78 106z" />
<glyph unicode="&#x388;" horiz-adv-x="922" d="M1 1136v21q24 66 55 179.5t41 168.5h110v-21q-23 -68 -66 -167.5t-85 -180.5h-55zM293 0v1462h530v-94h-432v-555h408v-94h-408v-625h432v-94h-530z" />
<glyph unicode="&#x389;" horiz-adv-x="1163" d="M1 1136v21q24 66 55 179.5t41 168.5h110v-21q-23 -68 -66 -167.5t-85 -180.5h-55zM297 0v1462h98v-649h510v649h98v-1462h-98v719h-510v-719h-98z" />
<glyph unicode="&#x38a;" horiz-adv-x="559" d="M1 1136v21q24 66 55 179.5t41 168.5h110v-21q-23 -68 -66 -167.5t-85 -180.5h-55zM301 0v1462h98v-1462h-98z" />
<glyph unicode="&#x38c;" horiz-adv-x="1167" d="M1 1136v21q24 66 55 179.5t41 168.5h110v-21q-23 -68 -66 -167.5t-85 -180.5h-55zM213 735q0 378 106 563t318 185q204 0 311.5 -194.5t107.5 -555.5q0 -363 -108.5 -558t-313.5 -195q-207 0 -314 196.5t-107 558.5zM315 733q0 -326 81.5 -492.5t237.5 -166.5 q157 0 238.5 165t81.5 494q0 325 -80 490.5t-237 165.5q-161 0 -241.5 -167.5t-80.5 -488.5z" />
<glyph unicode="&#x38e;" horiz-adv-x="924" d="M1 1136v21q24 66 55 179.5t41 168.5h110v-21q-23 -68 -66 -167.5t-85 -180.5h-55zM238 1462h104l240 -755l238 755h104l-295 -891v-571h-98v571z" />
<glyph unicode="&#x38f;" horiz-adv-x="1184" d="M1 1136v21q24 66 55 179.5t41 168.5h110v-21q-23 -68 -66 -167.5t-85 -180.5h-55zM168 0v94h256q-92 109 -147.5 298.5t-55.5 418.5q0 327 107 499.5t315 172.5q200 0 311 -179t111 -493q0 -460 -203 -717h256v-94h-393v51q139 182 188 336.5t49 423.5q0 278 -84 428 t-235 150q-156 0 -238 -151t-82 -427q0 -259 53.5 -432.5t184.5 -327.5v-51h-393z" />
<glyph unicode="&#x390;" horiz-adv-x="446" d="M-30 1286q0 43 19.5 62.5t43.5 19.5q23 0 42.5 -19.5t19.5 -62.5t-19.5 -63.5t-42.5 -20.5q-24 0 -43.5 20.5t-19.5 63.5zM145 221v864h95v-864q0 -84 18.5 -117.5t63.5 -33.5q23 0 54.5 6.5t37.5 9.5v-86q-51 -20 -111 -20q-83 0 -120.5 57.5t-37.5 183.5zM150 1286v21 q22 57 47 154.5t29 152.5h104v-21q-10 -50 -54.5 -155t-76.5 -152h-49zM300 1286q0 43 19 62.5t42 19.5q25 0 44.5 -19.5t19.5 -62.5t-19.5 -63.5t-44.5 -20.5q-23 0 -42 20.5t-19 63.5z" />
<glyph unicode="&#x391;" horiz-adv-x="813" d="M0 0l352 1462h101l360 -1462h-100l-129 530h-355l-127 -530h-102zM248 629h313l-129 545q-20 92 -31 174q-9 -87 -28 -174z" />
<glyph unicode="&#x392;" horiz-adv-x="907" d="M160 0v1462h280q172 0 264.5 -88t92.5 -260q0 -297 -217 -340v-8q125 -26 186 -111.5t61 -238.5q0 -196 -87 -306t-244 -110h-336zM258 90h225q242 0 242 328q0 146 -71 224.5t-199 78.5h-197v-631zM258 811h184q137 0 195.5 75.5t58.5 229.5q0 124 -64.5 190t-191.5 66 h-182v-561z" />
<glyph unicode="&#x393;" horiz-adv-x="686" d="M160 0v1462h510v-94h-412v-1368h-98z" />
<glyph unicode="&#x394;" horiz-adv-x="805" d="M23 0v96l325 1366h103l331 -1378v-84h-759zM131 94h543l-195 842q-61 273 -82 379q-13 -69 -24.5 -127.5t-241.5 -1093.5z" />
<glyph unicode="&#x395;" horiz-adv-x="788" d="M160 0v1462h530v-94h-432v-555h408v-94h-408v-625h432v-94h-530z" />
<glyph unicode="&#x396;" horiz-adv-x="643" d="M57 0v88l424 1278h-418v96h527v-90l-430 -1278h442v-94h-545z" />
<glyph unicode="&#x397;" horiz-adv-x="1026" d="M160 0v1462h98v-649h510v649h98v-1462h-98v719h-510v-719h-98z" />
<glyph unicode="&#x398;" horiz-adv-x="1065" d="M111 735q0 378 106 563t318 185q204 0 311.5 -194.5t107.5 -555.5q0 -363 -108.5 -558t-313.5 -195q-207 0 -314 196.5t-107 558.5zM213 733q0 -326 81.5 -492.5t237.5 -166.5q157 0 238.5 165t81.5 494q0 325 -80 490.5t-237 165.5q-161 0 -241.5 -167.5t-80.5 -488.5z M340 698v95h385v-95h-385z" />
<glyph unicode="&#x399;" horiz-adv-x="418" d="M160 0v1462h98v-1462h-98z" />
<glyph unicode="&#x39a;" horiz-adv-x="825" d="M160 0v1462h98v-774q51 96 432 774h107l-367 -643l395 -819h-110l-344 729l-113 -149v-580h-98z" />
<glyph unicode="&#x39b;" horiz-adv-x="813" d="M0 0l352 1462h101l360 -1462h-100l-281 1174q-20 92 -31 174q-8 -84 -28 -174l-271 -1174h-102z" />
<glyph unicode="&#x39c;" horiz-adv-x="1395" d="M160 0v1462h145l328 -1118q44 -148 57 -252h8q10 74 62 250l325 1120h150v-1462h-98v1057q0 62 10 272h-8l-387 -1329h-111l-389 1331h-8q10 -210 10 -266v-1065h-94z" />
<glyph unicode="&#x39d;" horiz-adv-x="1090" d="M160 0v1462h127l549 -1296h6q-8 164 -8 274v1022h96v-1462h-125l-553 1311h-8q12 -136 12 -262v-1049h-96z" />
<glyph unicode="&#x39e;" horiz-adv-x="758" d="M98 0v94h561v-94h-561zM119 1368v94h520v-94h-520zM156 719v94h446v-94h-446z" />
<glyph unicode="&#x39f;" horiz-adv-x="1065" d="M111 735q0 378 106 563t318 185q204 0 311.5 -194.5t107.5 -555.5q0 -363 -108.5 -558t-313.5 -195q-207 0 -314 196.5t-107 558.5zM213 733q0 -326 81.5 -492.5t237.5 -166.5q157 0 238.5 165t81.5 494q0 325 -80 490.5t-237 165.5q-161 0 -241.5 -167.5t-80.5 -488.5z " />
<glyph unicode="&#x3a0;" horiz-adv-x="1026" d="M160 0v1462h706v-1462h-98v1368h-510v-1368h-98z" />
<glyph unicode="&#x3a1;" horiz-adv-x="840" d="M160 0v1462h200q214 0 313 -101t99 -319q0 -226 -103.5 -332t-306.5 -106h-104v-604h-98zM258 694h98q172 0 244 81t72 267q0 177 -74.5 253.5t-230.5 76.5h-109v-678z" />
<glyph unicode="&#x3a3;" horiz-adv-x="754" d="M61 0v84l340 676l-327 620v82h604v-94h-492l326 -608l-342 -666h539v-94h-648z" />
<glyph unicode="&#x3a4;" horiz-adv-x="711" d="M14 1368v94h680v-94h-291v-1368h-98v1368h-291z" />
<glyph unicode="&#x3a5;" horiz-adv-x="686" d="M0 1462h104l240 -755l238 755h104l-295 -891v-571h-98v571z" />
<glyph unicode="&#x3a6;" horiz-adv-x="1204" d="M106 766q0 153 54.5 276t156 192t236.5 69v180h98v-180q210 0 328.5 -144t118.5 -393q0 -259 -119 -410t-328 -151v-225h-98v225q-138 0 -239 70.5t-154.5 198.5t-53.5 292zM209 766q0 -226 88 -348.5t256 -122.5v917q-167 0 -255.5 -117t-88.5 -329zM651 295 q168 0 256 122.5t88 348.5q0 446 -344 446v-917z" />
<glyph unicode="&#x3a7;" horiz-adv-x="715" d="M20 0l306 776l-263 686h103l217 -608l211 608h100l-258 -708l258 -754h-102l-219 672l-254 -672h-99z" />
<glyph unicode="&#x3a8;" horiz-adv-x="1180" d="M143 1004v458h99v-456q0 -167 30 -267.5t92 -147t177 -46.5v917h98v-917q113 0 176 45.5t93 145.5t30 270v456h98v-458q0 -288 -94 -420.5t-303 -132.5v-451h-98v451q-210 0 -304 132.5t-94 420.5z" />
<glyph unicode="&#x3a9;" horiz-adv-x="1081" d="M66 0v94h256q-92 109 -147.5 298.5t-55.5 418.5q0 327 107 499.5t315 172.5q200 0 311 -179t111 -493q0 -460 -203 -717h256v-94h-393v51q139 182 188 336.5t49 423.5q0 278 -84 428t-235 150q-156 0 -238 -151t-82 -427q0 -259 53.5 -432.5t184.5 -327.5v-51h-393z" />
<glyph unicode="&#x3aa;" horiz-adv-x="418" d="M-5 1727q0 43 19.5 62t44.5 19q23 0 42 -19t19 -62q0 -44 -19 -64t-42 -20q-25 0 -44.5 20t-19.5 64zM160 0v1462h98v-1462h-98zM300 1727q0 43 19.5 62t42.5 19q25 0 44 -19t19 -62q0 -44 -19 -64t-44 -20q-23 0 -42.5 20t-19.5 64z" />
<glyph unicode="&#x3ab;" horiz-adv-x="686" d="M0 1462h104l240 -755l238 755h104l-295 -891v-571h-98v571zM130 1727q0 43 19.5 62t44.5 19q23 0 42 -19t19 -62q0 -44 -19 -64t-42 -20q-25 0 -44.5 20t-19.5 64zM435 1727q0 43 19.5 62t42.5 19q25 0 44 -19t19 -62q0 -44 -19 -64t-44 -20q-23 0 -42.5 20t-19.5 64z " />
<glyph unicode="&#x3ac;" horiz-adv-x="907" d="M96 541q0 287 84 426t232 139q165 0 252 -180h8q3 36 16.5 82t30.5 77h65q-34 -102 -34 -348v-524q0 -156 77 -156q35 0 64 13v-74q-26 -16 -68 -16q-72 0 -111 40.5t-48 135.5h-9q-39 -85 -104 -130.5t-143 -45.5q-151 0 -231.5 138.5t-80.5 422.5zM195 539 q0 -249 54.5 -361t172.5 -112q114 0 173.5 117.5t59.5 330.5v27q0 246 -59.5 360.5t-181.5 114.5q-117 0 -168 -122.5t-51 -354.5zM370 1241v21q24 66 55 179.5t41 168.5h110v-21q-23 -68 -66 -167.5t-85 -180.5h-55z" />
<glyph unicode="&#x3ad;" horiz-adv-x="643" d="M86 295q0 108 49 180t139 100v9q-149 62 -149 254q0 120 74 194t192 74q105 0 199 -62l-47 -79q-74 51 -154 51q-83 0 -126.5 -49.5t-43.5 -132.5q0 -103 49.5 -159.5t137.5 -56.5h43v-86h-56q-103 0 -156 -63t-53 -180q0 -73 24.5 -121t66.5 -73t94 -25q51 0 109 16.5 t102 48.5v-94q-43 -30 -95.5 -45.5t-128.5 -15.5q-122 0 -196 84.5t-74 230.5zM325 1241v21q24 66 55 179.5t41 168.5h110v-21q-23 -68 -66 -167.5t-85 -180.5h-55z" />
<glyph unicode="&#x3ae;" horiz-adv-x="870" d="M145 0v1085h80l8 -151h9q34 82 98 127t137 45q126 0 189 -84.5t63 -271.5v-1242h-94v1240q0 270 -160 270q-122 0 -178.5 -101t-56.5 -321v-596h-95zM376 1241v21q24 66 55 179.5t41 168.5h110v-21q-23 -68 -66 -167.5t-85 -180.5h-55z" />
<glyph unicode="&#x3af;" horiz-adv-x="446" d="M139 1241v21q24 66 55 179.5t41 168.5h110v-21q-23 -68 -66 -167.5t-85 -180.5h-55zM145 221v864h95v-864q0 -84 18.5 -117.5t63.5 -33.5q23 0 54.5 6.5t37.5 9.5v-86q-51 -20 -111 -20q-83 0 -120.5 57.5t-37.5 183.5z" />
<glyph unicode="&#x3b0;" horiz-adv-x="834" d="M141 451v634h95v-641q0 -204 41.5 -290t142.5 -86q233 0 233 454q0 172 -14 301.5t-49 261.5h96q35 -166 44 -237t13.5 -153.5t4.5 -170.5q0 -265 -82.5 -404.5t-239.5 -139.5q-108 0 -168 45.5t-88.5 147t-28.5 278.5zM194 1286q0 43 19.5 62.5t43.5 19.5 q23 0 42.5 -19.5t19.5 -62.5t-19.5 -63.5t-42.5 -20.5q-24 0 -43.5 20.5t-19.5 63.5zM374 1286v21q22 57 47 154.5t29 152.5h104v-21q-10 -50 -54.5 -155t-76.5 -152h-49zM524 1286q0 43 19 62.5t42 19.5q25 0 44.5 -19.5t19.5 -62.5t-19.5 -63.5t-44.5 -20.5 q-23 0 -42 20.5t-19 63.5z" />
<glyph unicode="&#x3b1;" horiz-adv-x="907" d="M96 541q0 287 84 426t232 139q165 0 252 -180h8q3 36 16.5 82t30.5 77h65q-34 -102 -34 -348v-524q0 -156 77 -156q35 0 64 13v-74q-26 -16 -68 -16q-72 0 -111 40.5t-48 135.5h-9q-39 -85 -104 -130.5t-143 -45.5q-151 0 -231.5 138.5t-80.5 422.5zM195 539 q0 -249 54.5 -361t172.5 -112q114 0 173.5 117.5t59.5 330.5v27q0 246 -59.5 360.5t-181.5 114.5q-117 0 -168 -122.5t-51 -354.5z" />
<glyph unicode="&#x3b2;" horiz-adv-x="889" d="M145 -492v1661q0 191 81.5 294.5t224.5 103.5q135 0 211.5 -99t76.5 -274q0 -174 -49.5 -261.5t-163.5 -105.5v-8q140 -18 204.5 -120.5t64.5 -301.5q0 -203 -87.5 -310t-246.5 -107q-63 0 -111 13.5t-110 57.5v-543h-95zM240 147q46 -38 104.5 -57.5t112.5 -19.5 q125 0 182 84.5t57 255.5q0 187 -65.5 276.5t-202.5 89.5h-43v90h37q119 0 171 76t52 244q0 145 -52 218t-144 73q-98 0 -153.5 -79t-55.5 -224v-1027z" />
<glyph unicode="&#x3b3;" horiz-adv-x="645" d="M10 1085h96l130 -540q27 -119 52.5 -227t35.5 -199h8q29 199 82 430l125 536h96l-238 -1003q-35 -153 -56.5 -311.5t-21.5 -262.5h-94q0 93 17.5 229t38.5 234z" />
<glyph unicode="&#x3b4;" horiz-adv-x="866" d="M96 442q0 173 90.5 310t235.5 192q-125 130 -168 208t-43 159q0 110 78 176.5t203 66.5q78 0 140 -20t99 -43l-41 -84q-94 57 -203 57q-82 0 -131 -43t-49 -112q0 -46 19.5 -91t58.5 -95t145 -156q137 -137 189.5 -254.5t52.5 -261.5q0 -223 -92 -347t-250 -124 q-154 0 -244 124.5t-90 337.5zM195 438q0 -161 65.5 -266.5t169.5 -105.5q118 0 181 100.5t63 286.5q0 115 -46 219.5t-151 212.5q-134 -52 -208 -171.5t-74 -275.5z" />
<glyph unicode="&#x3b5;" horiz-adv-x="643" d="M86 295q0 108 49 180t139 100v9q-149 62 -149 254q0 120 74 194t192 74q105 0 199 -62l-47 -79q-74 51 -154 51q-83 0 -126.5 -49.5t-43.5 -132.5q0 -103 49.5 -159.5t137.5 -56.5h43v-86h-56q-103 0 -156 -63t-53 -180q0 -73 24.5 -121t66.5 -73t94 -25q51 0 109 16.5 t102 48.5v-94q-43 -30 -95.5 -45.5t-128.5 -15.5q-122 0 -196 84.5t-74 230.5z" />
<glyph unicode="&#x3b6;" horiz-adv-x="637" d="M96 457q0 244 90 468t318 552q-77 -7 -209 -7h-166v86h471v-79q-145 -194 -233 -366.5t-130 -323t-42 -318.5q0 -102 15 -165t49 -105.5t112 -85.5q87 -50 133 -88.5t64 -76.5t18 -104q0 -46 -33.5 -122.5t-85.5 -143.5h-100q53 69 86.5 139.5t33.5 120.5q0 58 -41 103 t-122 88q-97 52 -140.5 104.5t-65.5 129.5t-22 194z" />
<glyph unicode="&#x3b7;" horiz-adv-x="870" d="M145 0v1085h80l8 -151h9q34 82 98 127t137 45q126 0 189 -84.5t63 -271.5v-1242h-94v1240q0 270 -160 270q-122 0 -178.5 -101t-56.5 -321v-596h-95z" />
<glyph unicode="&#x3b8;" horiz-adv-x="891" d="M96 780q0 393 91 596t262 203q348 0 348 -797q0 -802 -355 -802q-346 0 -346 800zM195 760q10 -690 249 -690q244 0 254 690h-503zM195 846h503q-8 316 -69.5 479.5t-184.5 163.5q-120 0 -180.5 -162.5t-68.5 -480.5z" />
<glyph unicode="&#x3b9;" horiz-adv-x="446" d="M145 221v864h95v-864q0 -84 18.5 -117.5t63.5 -33.5q23 0 54.5 6.5t37.5 9.5v-86q-51 -20 -111 -20q-83 0 -120.5 57.5t-37.5 183.5z" />
<glyph unicode="&#x3ba;" horiz-adv-x="711" d="M145 0v1085h95v-366q0 -107 -7 -182h9q22 43 42.5 79.5t286.5 468.5h103l-250 -399l272 -686h-100l-236 598l-120 -158v-440h-95z" />
<glyph unicode="&#x3bb;" horiz-adv-x="715" d="M20 0l287 1090l-47 225q-18 89 -45 128.5t-78 39.5q-36 0 -59 -10v83q28 13 69 13q83 0 129.5 -59t69.5 -167l232 -1110q18 -87 40.5 -127t63.5 -40q33 0 53 10v-84q-27 -12 -65 -12q-73 0 -114 59t-64 166l-97 463q-14 62 -24 129t-23 123h-8q-9 -57 -24.5 -123.5 t-200.5 -796.5h-95z" />
<glyph unicode="&#x3bc;" horiz-adv-x="874" d="M145 -492v1577h95v-733q0 -284 157 -284q123 0 180.5 99.5t57.5 321.5v596h94v-1085h-80l-12 152h-8q-34 -81 -95 -126.5t-128 -45.5q-118 0 -166 106h-9q9 -120 9 -183v-395h-95z" />
<glyph unicode="&#x3bd;" horiz-adv-x="723" d="M31 1085h96l142 -692q39 -188 50 -284h9q243 394 243 976h95q0 -325 -76.5 -584t-241.5 -501h-88z" />
<glyph unicode="&#x3be;" horiz-adv-x="643" d="M96 412q0 168 66 278t184 127v8q-112 20 -161.5 96.5t-49.5 229.5q0 115 63 204.5t162 121.5q-74 -7 -147 -7h-104v86h462v-79h-22q-140 0 -230 -92t-90 -234q0 -156 55.5 -219.5t182.5 -63.5h74v-92h-90q-122 0 -189 -86t-67 -264q0 -133 39 -202.5t137 -110.5 q113 -49 164 -109.5t51 -159.5q0 -46 -33.5 -122.5t-85.5 -143.5h-100q53 69 86.5 139.5t33.5 120.5q0 127 -163 191q-123 50 -175.5 140t-52.5 243z" />
<glyph unicode="&#x3bf;" horiz-adv-x="850" d="M94 545q0 561 332 561q156 0 243 -147t87 -414q0 -274 -86.5 -419.5t-247.5 -145.5q-159 0 -243.5 145.5t-84.5 419.5zM193 545q0 -235 56 -355t175 -120q233 0 233 475q0 471 -233 471q-122 0 -176.5 -118t-54.5 -353z" />
<glyph unicode="&#x3c0;" horiz-adv-x="870" d="M14 999v35l78 51h742v-86h-154v-766q0 -85 20.5 -121t65.5 -36l53 4v-84q-19 -8 -76 -8q-83 0 -121 61t-38 184v766h-322v-999h-96v999h-152z" />
<glyph unicode="&#x3c1;" horiz-adv-x="885" d="M141 -492v1059q0 539 326 539q157 0 240.5 -137.5t83.5 -421.5q0 -279 -85.5 -423t-252.5 -144q-148 0 -220 92h-8l5 -87q6 -114 6 -180v-297h-95zM236 170q77 -104 204 -104q133 0 192.5 124.5t59.5 356.5t-55.5 350.5t-175.5 118.5q-116 0 -170.5 -111.5t-54.5 -341.5 v-393z" />
<glyph unicode="&#x3c2;" horiz-adv-x="614" d="M96 537q0 278 83.5 423.5t246.5 145.5q101 0 168 -37l-35 -86q-79 33 -125 33q-239 0 -239 -477q0 -130 14 -207t46.5 -124.5t115.5 -94.5q87 -50 133 -88.5t64 -76.5t18 -104q0 -46 -33.5 -122.5t-85.5 -143.5h-100q53 69 86.5 139.5t33.5 120.5q0 58 -41 103t-122 88 q-100 53 -143 113t-64 155.5t-21 239.5z" />
<glyph unicode="&#x3c3;" horiz-adv-x="860" d="M96 522q0 563 398 563h329v-86h-182q104 -198 104 -493q0 -261 -86.5 -393.5t-240.5 -132.5q-153 0 -237.5 138t-84.5 404zM195 528q0 -462 225 -462q113 0 170 112.5t57 327.5q0 259 -92 493h-63q-154 0 -225.5 -113.5t-71.5 -357.5z" />
<glyph unicode="&#x3c4;" horiz-adv-x="547" d="M0 999v35l76 51h440v-86h-242v-700q0 -117 30.5 -176.5t96.5 -59.5q57 0 105 17v-84q-10 -7 -48 -14t-63 -7q-114 0 -164.5 78t-50.5 238v708h-180z" />
<glyph unicode="&#x3c5;" horiz-adv-x="834" d="M141 451v634h95v-641q0 -204 41.5 -290t142.5 -86q233 0 233 454q0 172 -14 301.5t-49 261.5h96q35 -166 44 -237t13.5 -153.5t4.5 -170.5q0 -265 -82.5 -404.5t-239.5 -139.5q-108 0 -168 45.5t-88.5 147t-28.5 278.5z" />
<glyph unicode="&#x3c6;" horiz-adv-x="1083" d="M96 553q0 308 201 537l74 -58q-176 -195 -176 -479q0 -224 75.5 -347t221.5 -140v716q0 328 215 328q130 0 206 -141.5t76 -384.5q0 -268 -106 -427.5t-297 -176.5v-472h-94v472q-196 17 -296 161t-100 412zM586 66q91 10 161 75.5t107 178t37 262.5q0 132 -24 232.5 t-67 154t-95 53.5q-66 0 -92.5 -61.5t-26.5 -190.5v-704z" />
<glyph unicode="&#x3c7;" horiz-adv-x="692" d="M10 -492l295 836l-117 500q-23 101 -45.5 134.5t-58.5 33.5q-34 0 -53 -11v84q26 13 65 13q64 0 107.5 -52.5t70.5 -173.5l91 -383l200 596h99l-265 -745l136 -578q19 -87 41 -127.5t63 -40.5q31 0 53 11v-84q-30 -13 -65 -13q-64 0 -107.5 52.5t-70.5 173.5l-109 461 l-229 -687h-101z" />
<glyph unicode="&#x3c8;" horiz-adv-x="977" d="M133 512v573h94v-565q0 -216 55.5 -329t170.5 -123v1488h94v-1488q120 8 176.5 139t56.5 387q0 241 -63 491h96q66 -258 66 -495q0 -290 -85 -446t-247 -164v-472h-94v472q-156 4 -238 141t-82 391z" />
<glyph unicode="&#x3c9;" horiz-adv-x="971" d="M98 524q0 292 97 561h92q-94 -270 -94 -563q0 -452 129 -452q58 0 88 86.5t30 246.5v273h90v-273q0 -160 30 -246.5t89 -86.5q129 0 129 452q0 293 -94 563h92q96 -266 96 -561q0 -176 -25.5 -297t-73.5 -184t-114 -63t-110.5 47t-61.5 129h-4q-17 -82 -63 -129t-115 -47 q-100 0 -153.5 139.5t-53.5 404.5z" />
<glyph unicode="&#x3ca;" horiz-adv-x="446" d="M-13 1389q0 43 19.5 62t44.5 19q23 0 42 -19t19 -62q0 -44 -19 -64t-42 -20q-25 0 -44.5 20t-19.5 64zM145 221v864h95v-864q0 -84 18.5 -117.5t63.5 -33.5q23 0 54.5 6.5t37.5 9.5v-86q-51 -20 -111 -20q-83 0 -120.5 57.5t-37.5 183.5zM292 1389q0 43 19.5 62t42.5 19 q25 0 44 -19t19 -62q0 -44 -19 -64t-44 -20q-23 0 -42.5 20t-19.5 64z" />
<glyph unicode="&#x3cb;" horiz-adv-x="834" d="M141 451v634h95v-641q0 -204 41.5 -290t142.5 -86q233 0 233 454q0 172 -14 301.5t-49 261.5h96q35 -166 44 -237t13.5 -153.5t4.5 -170.5q0 -265 -82.5 -404.5t-239.5 -139.5q-108 0 -168 45.5t-88.5 147t-28.5 278.5zM212 1389q0 43 19.5 62t44.5 19q23 0 42 -19 t19 -62q0 -44 -19 -64t-42 -20q-25 0 -44.5 20t-19.5 64zM517 1389q0 43 19.5 62t42.5 19q25 0 44 -19t19 -62q0 -44 -19 -64t-44 -20q-23 0 -42.5 20t-19.5 64z" />
<glyph unicode="&#x3cc;" horiz-adv-x="850" d="M94 545q0 561 332 561q156 0 243 -147t87 -414q0 -274 -86.5 -419.5t-247.5 -145.5q-159 0 -243.5 145.5t-84.5 419.5zM193 545q0 -235 56 -355t175 -120q233 0 233 475q0 471 -233 471q-122 0 -176.5 -118t-54.5 -353zM358 1241v21q24 66 55 179.5t41 168.5h110v-21 q-23 -68 -66 -167.5t-85 -180.5h-55z" />
<glyph unicode="&#x3cd;" horiz-adv-x="834" d="M141 451v634h95v-641q0 -204 41.5 -290t142.5 -86q233 0 233 454q0 172 -14 301.5t-49 261.5h96q35 -166 44 -237t13.5 -153.5t4.5 -170.5q0 -265 -82.5 -404.5t-239.5 -139.5q-108 0 -168 45.5t-88.5 147t-28.5 278.5zM368 1241v21q24 66 55 179.5t41 168.5h110v-21 q-23 -68 -66 -167.5t-85 -180.5h-55z" />
<glyph unicode="&#x3ce;" horiz-adv-x="971" d="M98 524q0 292 97 561h92q-94 -270 -94 -563q0 -452 129 -452q58 0 88 86.5t30 246.5v273h90v-273q0 -160 30 -246.5t89 -86.5q129 0 129 452q0 293 -94 563h92q96 -266 96 -561q0 -176 -25.5 -297t-73.5 -184t-114 -63t-110.5 47t-61.5 129h-4q-17 -82 -63 -129t-115 -47 q-100 0 -153.5 139.5t-53.5 404.5zM429 1241v21q24 66 55 179.5t41 168.5h110v-21q-23 -68 -66 -167.5t-85 -180.5h-55z" />
<glyph unicode="&#x3d1;" horiz-adv-x="971" d="M16 848q23 12 58.5 21.5t66.5 9.5q79 0 113.5 -48.5t34.5 -142.5l-3 -78q-18 -213 -18 -286q0 -123 44 -188.5t130 -65.5q139 0 204 174.5t65 511.5v56l-2 50q-238 3 -367 110.5t-129 307.5q0 133 63 216t175 83q148 0 235.5 -154t120.5 -473h139v-90h-135l4 -104 q0 -384 -94 -581t-281 -197q-133 0 -201.5 89t-68.5 261q0 77 10 192t10 166q0 56 -15.5 80.5t-49.5 24.5q-32 0 -78 -23zM311 1278q0 -156 101 -240t290 -86q-20 255 -83 396t-160 141q-72 0 -110 -54.5t-38 -156.5z" />
<glyph unicode="&#x3d2;" horiz-adv-x="686" d="M0 1462h104l240 -760q93 405 124 514.5t54 162t51.5 74.5t75.5 22q23 0 47 -11v-90q-18 6 -34 6q-30 0 -51.5 -36.5t-49.5 -126.5t-72 -257t-98 -389v-571h-98v571z" />
<glyph unicode="&#x3d6;" horiz-adv-x="946" d="M16 999v35l78 51h815v-86h-155q50 -160 68 -273.5t18 -225.5q0 -255 -55.5 -387.5t-155.5 -132.5q-62 0 -98.5 37t-53.5 118h-8q-17 -78 -52 -116.5t-100 -38.5q-103 0 -157 134t-54 386q0 122 19.5 238.5t64.5 260.5h-174zM201 500q0 -214 32 -324t91 -110t81.5 91.5 t22.5 286.5v232h90v-232q0 -198 23 -288t82 -90q58 0 90 110t32 324q0 130 -16 234.5t-65 264.5h-381q-50 -154 -66 -257.5t-16 -241.5z" />
<glyph unicode="&#x400;" horiz-adv-x="788" d="M160 0v1462h530v-94h-432v-555h408v-94h-408v-625h432v-94h-530zM199 1890v17h125q27 -63 82.5 -152t108.5 -155v-21h-48q-65 53 -148.5 148t-119.5 163z" />
<glyph unicode="&#x401;" horiz-adv-x="788" d="M160 0v1462h530v-94h-432v-555h408v-94h-408v-625h432v-94h-530zM202 1727q0 43 19.5 62t44.5 19q23 0 42 -19t19 -62q0 -44 -19 -64t-42 -20q-25 0 -44.5 20t-19.5 64zM507 1727q0 43 19.5 62t42.5 19q25 0 44 -19t19 -62q0 -44 -19 -64t-44 -20q-23 0 -42.5 20 t-19.5 64z" />
<glyph unicode="&#x402;" horiz-adv-x="930" d="M14 1368v94h617v-94h-279v-491h131q169 0 250.5 -80.5t81.5 -253.5v-244q0 -153 -61 -236t-172 -83q-55 0 -97 20v94q49 -20 95 -20q69 0 103 55.5t34 173.5v240q0 125 -54 182t-176 57h-135v-782h-98v1368h-240z" />
<glyph unicode="&#x403;" horiz-adv-x="686" d="M160 0v1462h510v-94h-412v-1368h-98zM324 1579v21q127 166 191 307h125v-17q-39 -70 -118.5 -161t-150.5 -150h-47z" />
<glyph unicode="&#x404;" horiz-adv-x="860" d="M111 735q0 349 120 549.5t330 200.5q143 0 250 -74l-47 -84q-95 64 -205 64q-150 0 -241 -153.5t-103 -424.5h457v-94h-459q2 -301 97 -473t255 -172q76 0 123 15.5t84 37.5v-90q-85 -57 -215 -57q-134 0 -235.5 90.5t-156 262.5t-54.5 402z" />
<glyph unicode="&#x405;" horiz-adv-x="809" d="M86 31v106q52 -29 129 -46t152 -17q112 0 184 85t72 216q0 121 -51 192t-195 142q-113 57 -169 110.5t-83 124.5t-27 170q0 108 44 192t123 130.5t173 46.5q85 0 154.5 -19t109.5 -41l-38 -94q-111 57 -226 57q-108 0 -175.5 -73.5t-67.5 -194.5q0 -123 49 -191t192 -141 q148 -72 216.5 -168.5t68.5 -234.5q0 -180 -100 -291.5t-254 -111.5q-175 0 -281 51z" />
<glyph unicode="&#x406;" horiz-adv-x="418" d="M160 0v1462h98v-1462h-98z" />
<glyph unicode="&#x407;" horiz-adv-x="418" d="M-5 1727q0 43 19.5 62t44.5 19q23 0 42 -19t19 -62q0 -44 -19 -64t-42 -20q-25 0 -44.5 20t-19.5 64zM160 0v1462h98v-1462h-98zM300 1727q0 43 19.5 62t42.5 19q25 0 44 -19t19 -62q0 -44 -19 -64t-44 -20q-23 0 -42.5 20t-19.5 64z" />
<glyph unicode="&#x408;" horiz-adv-x="401" d="M-90 -252q49 -20 115 -20q63 0 94 57.5t31 189.5v1487h98v-1485q0 -172 -56 -259t-165 -87q-67 0 -117 25v92z" />
<glyph unicode="&#x409;" horiz-adv-x="1284" d="M-20 4v92q23 -16 69 -16q33 0 55.5 13t41 50.5t33 107.5t28 184t92.5 1027h410v-649h114q194 0 288.5 -96t94.5 -307q0 -191 -100.5 -300.5t-280.5 -109.5h-215v1368h-225l-39 -476q-43 -520 -71 -655t-76.5 -193t-143.5 -58q-46 0 -75 18zM709 90h120q135 0 206 82.5 t71 237.5q0 161 -68 237t-211 76h-118v-633z" />
<glyph unicode="&#x40a;" horiz-adv-x="1341" d="M160 0v1462h98v-649h414v649h98v-649h115q196 0 289.5 -97.5t93.5 -305.5q0 -192 -101.5 -301t-279.5 -109h-215v723h-414v-723h-98zM770 90h121q134 0 205 82.5t71 237.5q0 161 -67 237t-211 76h-119v-633z" />
<glyph unicode="&#x40b;" horiz-adv-x="950" d="M14 1368v94h617v-94h-279v-491h135q166 0 247 -80.5t81 -253.5v-543h-98v543q0 125 -54 182t-176 57h-135v-782h-98v1368h-240z" />
<glyph unicode="&#x40c;" horiz-adv-x="811" d="M160 0v1462h98v-706l414 706h106l-418 -706l451 -756h-113l-440 748v-748h-98zM359 1579v21q127 166 191 307h125v-17q-39 -70 -118.5 -161t-150.5 -150h-47z" />
<glyph unicode="&#x40d;" horiz-adv-x="1090" d="M160 0v1462h96v-1022q0 -34 -0.5 -67.5t-9.5 -206.5h8l549 1296h127v-1462h-96v1049q0 126 12 262h-8l-553 -1311h-125zM335 1890v17h125q27 -63 82.5 -152t108.5 -155v-21h-48q-65 53 -148.5 148t-119.5 163z" />
<glyph unicode="&#x40e;" horiz-adv-x="686" d="M0 1462h102l222 -749q11 -39 34 -144h9q12 85 28 144l189 749h102l-326 -1220q-37 -139 -92 -200.5t-143 -61.5q-48 0 -88 20v92q44 -18 86 -18q50 0 84 44.5t63 147.5l43 162zM89 1860h92q11 -113 49.5 -160t118.5 -47q84 0 122.5 50t47.5 157h92q-17 -281 -262 -281 q-122 0 -186 66.5t-74 214.5z" />
<glyph unicode="&#x40f;" horiz-adv-x="1026" d="M160 0v1462h98v-1368h510v1368h98v-1462h-305v-369h-94v369h-307z" />
<glyph unicode="&#x410;" horiz-adv-x="813" d="M0 0l352 1462h101l360 -1462h-100l-129 530h-355l-127 -530h-102zM248 629h313l-129 545q-20 92 -31 174q-9 -87 -28 -174z" />
<glyph unicode="&#x411;" horiz-adv-x="864" d="M160 0v1462h571v-94h-473v-555h156q196 0 289.5 -97.5t93.5 -305.5q0 -192 -101.5 -301t-279.5 -109h-256zM258 90h162q134 0 205 82.5t71 237.5q0 161 -67 237t-211 76h-160v-633z" />
<glyph unicode="&#x412;" horiz-adv-x="907" d="M160 0v1462h280q172 0 264.5 -88t92.5 -260q0 -297 -217 -340v-8q125 -26 186 -111.5t61 -238.5q0 -196 -87 -306t-244 -110h-336zM258 90h225q242 0 242 328q0 146 -71 224.5t-199 78.5h-197v-631zM258 811h184q137 0 195.5 75.5t58.5 229.5q0 124 -64.5 190t-191.5 66 h-182v-561z" />
<glyph unicode="&#x413;" horiz-adv-x="686" d="M160 0v1462h510v-94h-412v-1368h-98z" />
<glyph unicode="&#x414;" horiz-adv-x="938" d="M10 94h88q118 359 167.5 670t49.5 698h457v-1368h125v-463h-94v369h-699v-369h-94v463zM199 94h475v1274h-260q-22 -705 -215 -1274z" />
<glyph unicode="&#x415;" horiz-adv-x="788" d="M160 0v1462h530v-94h-432v-555h408v-94h-408v-625h432v-94h-530z" />
<glyph unicode="&#x416;" horiz-adv-x="1122" d="M0 0l412 756l-400 706h107l393 -706v706h98v-706l394 706h106l-399 -706l411 -756h-110l-402 748v-748h-98v748l-401 -748h-111z" />
<glyph unicode="&#x417;" horiz-adv-x="813" d="M57 35v108q51 -32 119 -50.5t137 -18.5q271 0 271 315q0 166 -78 244t-242 78h-100v94h106q141 0 218 82t77 241q0 132 -58.5 196.5t-164.5 64.5q-59 0 -108.5 -26t-83.5 -67l-66 68q110 119 266 119q149 0 232.5 -94.5t83.5 -260.5q0 -143 -67.5 -239.5t-182.5 -126.5 v-8q133 -17 201.5 -111t68.5 -252q0 -195 -98 -303t-275 -108q-140 0 -256 55z" />
<glyph unicode="&#x418;" horiz-adv-x="1090" d="M160 0v1462h96v-1022q0 -34 -0.5 -67.5t-9.5 -206.5h8l549 1296h127v-1462h-96v1049q0 126 12 262h-8l-553 -1311h-125z" />
<glyph unicode="&#x419;" horiz-adv-x="1090" d="M160 0v1462h96v-1022q0 -34 -0.5 -67.5t-9.5 -206.5h8l549 1296h127v-1462h-96v1049q0 126 12 262h-8l-553 -1311h-125zM284 1860h92q11 -113 49.5 -160t118.5 -47q84 0 122.5 50t47.5 157h92q-17 -281 -262 -281q-122 0 -186 66.5t-74 214.5z" />
<glyph unicode="&#x41a;" horiz-adv-x="811" d="M160 0v1462h98v-706l414 706h106l-418 -706l451 -756h-113l-440 748v-748h-98z" />
<glyph unicode="&#x41b;" horiz-adv-x="930" d="M-20 4v92q23 -16 69 -16q33 0 55.5 13t41 50.5t33 107.5t28 184t92.5 1027h471v-1462h-98v1368h-287l-39 -476q-43 -520 -71 -655t-76.5 -193t-143.5 -58q-46 0 -75 18z" />
<glyph unicode="&#x41c;" horiz-adv-x="1395" d="M160 0v1462h145l328 -1118q44 -148 57 -252h8q10 74 62 250l325 1120h150v-1462h-98v1057q0 62 10 272h-8l-387 -1329h-111l-389 1331h-8q10 -210 10 -266v-1065h-94z" />
<glyph unicode="&#x41d;" horiz-adv-x="1026" d="M160 0v1462h98v-649h510v649h98v-1462h-98v719h-510v-719h-98z" />
<glyph unicode="&#x41e;" horiz-adv-x="1065" d="M111 735q0 378 106 563t318 185q204 0 311.5 -194.5t107.5 -555.5q0 -363 -108.5 -558t-313.5 -195q-207 0 -314 196.5t-107 558.5zM213 733q0 -326 81.5 -492.5t237.5 -166.5q157 0 238.5 165t81.5 494q0 325 -80 490.5t-237 165.5q-161 0 -241.5 -167.5t-80.5 -488.5z " />
<glyph unicode="&#x41f;" horiz-adv-x="1026" d="M160 0v1462h706v-1462h-98v1368h-510v-1368h-98z" />
<glyph unicode="&#x420;" horiz-adv-x="840" d="M160 0v1462h200q214 0 313 -101t99 -319q0 -226 -103.5 -332t-306.5 -106h-104v-604h-98zM258 694h98q172 0 244 81t72 267q0 177 -74.5 253.5t-230.5 76.5h-109v-678z" />
<glyph unicode="&#x421;" horiz-adv-x="860" d="M111 735q0 350 124.5 550t339.5 200q134 0 234 -62l-45 -86q-84 54 -191 54q-165 0 -262.5 -174.5t-97.5 -483.5q0 -201 45 -350t129 -229t195 -80q114 0 196 41v-90q-78 -45 -205 -45q-139 0 -243.5 90t-161.5 260.5t-57 404.5z" />
<glyph unicode="&#x422;" horiz-adv-x="711" d="M14 1368v94h680v-94h-291v-1368h-98v1368h-291z" />
<glyph unicode="&#x423;" horiz-adv-x="686" d="M0 1462h102l222 -749q11 -39 34 -144h9q12 85 28 144l189 749h102l-326 -1220q-37 -139 -92 -200.5t-143 -61.5q-48 0 -88 20v92q44 -18 86 -18q50 0 84 44.5t63 147.5l43 162z" />
<glyph unicode="&#x424;" horiz-adv-x="1204" d="M106 766q0 153 54.5 276t156 192t236.5 69v180h98v-180q210 0 328.5 -144t118.5 -393q0 -259 -119 -410t-328 -151v-225h-98v225q-138 0 -239 70.5t-154.5 198.5t-53.5 292zM209 766q0 -226 88 -348.5t256 -122.5v917q-167 0 -255.5 -117t-88.5 -329zM651 295 q168 0 256 122.5t88 348.5q0 446 -344 446v-917z" />
<glyph unicode="&#x425;" horiz-adv-x="715" d="M20 0l306 776l-263 686h103l217 -608l211 608h100l-258 -708l258 -754h-102l-219 672l-254 -672h-99z" />
<glyph unicode="&#x426;" horiz-adv-x="1032" d="M160 0v1462h98v-1368h510v1368h98v-1368h111v-463h-94v369h-723z" />
<glyph unicode="&#x427;" horiz-adv-x="1001" d="M135 899v563h98v-567q0 -135 48.5 -201.5t150.5 -66.5q77 0 144.5 16.5t166.5 69.5v749h99v-1462h-99v627q-168 -95 -319 -95q-289 0 -289 367z" />
<glyph unicode="&#x428;" horiz-adv-x="1407" d="M160 0v1462h98v-1368h395v1368h99v-1368h397v1368h98v-1462h-1087z" />
<glyph unicode="&#x429;" horiz-adv-x="1413" d="M160 0v1462h98v-1368h395v1368h99v-1368h397v1368h98v-1368h111v-463h-94v369h-1104z" />
<glyph unicode="&#x42a;" horiz-adv-x="1030" d="M25 1366v96h389v-649h155q194 0 288.5 -96t94.5 -307q0 -191 -100.5 -300.5t-280.5 -109.5h-256v1366h-290zM414 90h161q135 0 206 82.5t71 237.5q0 161 -68 237t-211 76h-159v-633z" />
<glyph unicode="&#x42b;" horiz-adv-x="1284" d="M160 0v1462h98v-649h156q196 0 289.5 -97.5t93.5 -305.5q0 -192 -101.5 -301t-279.5 -109h-256zM258 90h162q134 0 205 82.5t71 237.5q0 161 -67 237t-211 76h-160v-633zM1026 0v1462h98v-1462h-98z" />
<glyph unicode="&#x42c;" horiz-adv-x="874" d="M160 0v1462h98v-649h156q196 0 289.5 -97.5t93.5 -305.5q0 -192 -101.5 -301t-279.5 -109h-256zM258 90h162q134 0 205 82.5t71 237.5q0 161 -67 237t-211 76h-160v-633z" />
<glyph unicode="&#x42d;" horiz-adv-x="860" d="M51 1421q103 64 232 64q141 0 247.5 -91t163 -262.5t56.5 -402.5q0 -346 -124.5 -547.5t-340.5 -201.5q-60 0 -116 11t-87 29v95q84 -41 205 -41q164 0 260 170.5t100 474.5h-461v94h459q-14 272 -110.5 425t-251.5 153q-103 0 -187 -54z" />
<glyph unicode="&#x42e;" horiz-adv-x="1384" d="M160 0v1462h98v-649h242q17 670 389 670q186 0 285.5 -193t99.5 -557q0 -361 -99.5 -557t-287.5 -196q-185 0 -285 189t-102 550h-242v-719h-98zM602 733q0 -326 73 -492.5t212 -166.5q140 0 212 167.5t72 491.5q0 327 -71.5 491.5t-210.5 164.5q-142 0 -214.5 -166.5 t-72.5 -489.5z" />
<glyph unicode="&#x42f;" horiz-adv-x="877" d="M43 0l291 653q-110 29 -172 132.5t-62 256.5q0 420 379 420h238v-1462h-99v637l-192 2l-272 -639h-111zM203 1047q0 -166 63 -244t201 -78h151v647h-124q-156 0 -223.5 -77t-67.5 -248z" />
<glyph unicode="&#x430;" horiz-adv-x="784" d="M78 291q0 155 93 245.5t261 98.5l117 6v90q0 152 -38 221.5t-126 69.5q-93 0 -190 -61l-41 75q113 70 237 70q134 0 193 -84.5t59 -282.5v-739h-78l-12 152h-4q-78 -172 -236 -172q-106 0 -170.5 84.5t-64.5 226.5zM178 289q0 -118 42 -173t114 -55q102 0 158.5 100.5 t56.5 284.5v113l-113 -6q-131 -7 -194.5 -72.5t-63.5 -191.5z" />
<glyph unicode="&#x431;" horiz-adv-x="864" d="M106 711q0 306 54.5 480.5t184 260t400.5 111.5l15 -86q-222 -17 -333 -78t-162.5 -188t-59.5 -369h8q37 78 100.5 121t137.5 43q150 0 234.5 -132.5t84.5 -379.5t-89 -380.5t-259 -133.5q-164 0 -240 179.5t-76 551.5zM205 690q4 -320 56.5 -472t162.5 -152 q248 0 248 428q0 421 -238 421q-73 0 -137 -64t-92 -161z" />
<glyph unicode="&#x432;" horiz-adv-x="784" d="M145 0v1085h230q143 0 218 -67.5t75 -192.5q0 -99 -36 -158.5t-114 -84.5v-9q88 -15 134 -81t46 -166q0 -154 -79 -240t-224 -86h-250zM240 86h157q106 0 154.5 57.5t48.5 184.5q0 110 -50.5 157t-148.5 47h-161v-446zM240 614h157q93 0 132.5 50t39.5 161 q0 174 -192 174h-137v-385z" />
<glyph unicode="&#x433;" horiz-adv-x="592" d="M145 0v1085h430v-90h-335v-995h-95z" />
<glyph unicode="&#x434;" horiz-adv-x="788" d="M10 90h84q84 195 127 451t43 544h369v-995h110v-459h-94v369h-545v-369h-94v459zM186 90h353v909h-187q-3 -240 -50.5 -502.5t-115.5 -406.5z" />
<glyph unicode="&#x435;" horiz-adv-x="803" d="M96 535q0 278 82.5 424.5t237.5 146.5q135 0 213 -128.5t78 -346.5v-88h-514q2 -237 67 -355t197 -118q102 0 215 67v-92q-104 -65 -219 -65q-172 0 -264.5 146.5t-92.5 408.5zM195 629h417q0 179 -54.5 285t-147.5 106q-196 0 -215 -391z" />
<glyph unicode="&#x436;" horiz-adv-x="958" d="M10 0l328 575l-301 510h106l289 -510v510h94v-510l289 510h107l-301 -510l327 -575h-110l-312 567v-567h-94v567l-311 -567h-111z" />
<glyph unicode="&#x437;" horiz-adv-x="643" d="M51 51v99q42 -33 94 -58.5t123 -25.5q90 0 139.5 61t49.5 178q0 103 -55 165t-150 62h-49v86h55q46 0 85.5 26t62 74.5t22.5 112.5q0 96 -43.5 143.5t-116.5 47.5q-76 0 -153 -49l-45 74q94 59 209 59q117 0 182 -71t65 -199q0 -89 -41.5 -155.5t-105.5 -92.5v-8 q85 -28 130.5 -98t45.5 -177q0 -149 -79.5 -237t-207.5 -88q-140 0 -217 71z" />
<glyph unicode="&#x438;" horiz-adv-x="883" d="M145 0v1085h95v-733l-7 -205l385 938h119v-1085h-94v702l4 236l-385 -938h-117z" />
<glyph unicode="&#x439;" horiz-adv-x="883" d="M145 0v1085h95v-733l-7 -205l385 938h119v-1085h-94v702l4 236l-385 -938h-117zM186 1522h92q11 -113 49.5 -160t118.5 -47q84 0 122.5 50t47.5 157h92q-17 -281 -262 -281q-122 0 -186 66.5t-74 214.5z" />
<glyph unicode="&#x43a;" horiz-adv-x="692" d="M145 0v1085h95v-510l307 510h108l-319 -510l346 -575h-113l-329 567v-567h-95z" />
<glyph unicode="&#x43b;" horiz-adv-x="776" d="M-10 -2v88q12 -6 35 -6q59 0 94.5 100t58.5 314t37 591h416v-1085h-94v995h-234q-11 -277 -31 -472.5t-48 -311t-70.5 -168.5t-118.5 -53q-24 0 -45 8z" />
<glyph unicode="&#x43c;" horiz-adv-x="1055" d="M145 0v1085h138l180 -708q39 -161 57 -271h8q1 15 18.5 91.5t225.5 887.5h137v-1085h-94v653q0 75 10 285h-8l-237 -938h-111l-236 938h-8q11 -231 11 -279v-659h-91z" />
<glyph unicode="&#x43d;" horiz-adv-x="883" d="M145 0v1085h95v-475h403v475h94v-1085h-94v524h-403v-524h-95z" />
<glyph unicode="&#x43e;" horiz-adv-x="850" d="M94 545q0 561 332 561q156 0 243 -147t87 -414q0 -274 -86.5 -419.5t-247.5 -145.5q-159 0 -243.5 145.5t-84.5 419.5zM193 545q0 -235 56 -355t175 -120q233 0 233 475q0 471 -233 471q-122 0 -176.5 -118t-54.5 -353z" />
<glyph unicode="&#x43f;" horiz-adv-x="883" d="M145 0v1085h592v-1085h-94v999h-403v-999h-95z" />
<glyph unicode="&#x440;" horiz-adv-x="893" d="M145 -492v1577h78l10 -149h9q40 82 102.5 126t136.5 44q318 0 318 -561q0 -271 -78 -418t-227 -147q-82 0 -149.5 45.5t-102.5 124.5h-9l7 -119v-523h-95zM240 551q0 -250 59 -367.5t180 -117.5q112 0 166.5 116.5t54.5 362.5q0 235 -51 353t-174 118q-119 0 -177 -105 t-58 -329v-31z" />
<glyph unicode="&#x441;" horiz-adv-x="635" d="M96 537q0 278 83.5 423.5t246.5 145.5q101 0 168 -37l-37 -84q-67 31 -123 31q-239 0 -239 -477q0 -473 239 -473q71 0 154 32v-80q-33 -18 -81 -28t-83 -10q-163 0 -245.5 141.5t-82.5 415.5z" />
<glyph unicode="&#x442;" horiz-adv-x="512" d="M16 999v86h480v-86h-193v-999h-94v999h-193z" />
<glyph unicode="&#x443;" horiz-adv-x="653" d="M-2 -389q40 -14 78 -14q60 0 95 51.5t62 165.5l48 188l-271 1083h96l164 -677q29 -122 56 -275h8q19 133 53 277l160 675h96l-317 -1290q-35 -143 -91.5 -215t-150.5 -72q-38 0 -86 17v86z" />
<glyph unicode="&#x444;" horiz-adv-x="997" d="M96 545q0 249 92 396t265 165v450h94v-450q172 -18 264 -165t92 -396q0 -250 -92.5 -398t-263.5 -167v-472h-94v472q-172 15 -264.5 159.5t-92.5 405.5zM195 545q0 -213 68.5 -338.5t189.5 -140.5v954q-127 -17 -192.5 -139.5t-65.5 -335.5zM547 66q122 17 190 143.5 t68 335.5q0 210 -67.5 333.5t-190.5 141.5v-954z" />
<glyph unicode="&#x445;" horiz-adv-x="676" d="M35 0l258 563l-238 522h103l182 -440l190 440h99l-242 -534l254 -551h-100l-203 469l-205 -469h-98z" />
<glyph unicode="&#x446;" horiz-adv-x="893" d="M145 0v1085h95v-995h403v995h94v-995h111v-459h-94v369h-609z" />
<glyph unicode="&#x447;" horiz-adv-x="862" d="M123 659v426h94v-448q0 -92 39 -134t104 -42q76 0 144 39.5t119 99.5v485h94v-1085h-94v498q-51 -59 -123.5 -92t-153.5 -33q-223 0 -223 286z" />
<glyph unicode="&#x448;" horiz-adv-x="1180" d="M145 0v1085h95v-995h303v995h94v-995h303v995h94v-1085h-889z" />
<glyph unicode="&#x449;" horiz-adv-x="1190" d="M145 0v1085h95v-995h303v995h94v-995h303v995h94v-995h111v-459h-94v369h-906z" />
<glyph unicode="&#x44a;" horiz-adv-x="889" d="M16 999v86h328v-475h141q158 0 242 -79.5t84 -225.5q0 -145 -86 -225t-242 -80h-233v999h-234zM344 86h139q230 0 230 219t-228 219h-141v-438z" />
<glyph unicode="&#x44b;" horiz-adv-x="1114" d="M145 0v1085h95v-475h141q158 0 242 -79.5t84 -225.5q0 -145 -86 -225t-242 -80h-234zM240 86h139q229 0 229 219t-227 219h-141v-438zM874 0v1085h95v-1085h-95z" />
<glyph unicode="&#x44c;" horiz-adv-x="784" d="M145 0v1085h95v-475h141q158 0 242 -79.5t84 -225.5q0 -145 -86 -225t-242 -80h-234zM240 86h139q229 0 229 219t-227 219h-141v-438z" />
<glyph unicode="&#x44d;" horiz-adv-x="682" d="M51 18v91q85 -39 168 -39q131 0 197 108.5t71 345.5h-294v86h292q-17 406 -252 406q-32 0 -71 -11.5t-58 -23.5l-36 86q81 39 176 39q167 0 254.5 -141t87.5 -416q0 -280 -90.5 -424.5t-270.5 -144.5q-46 0 -94 10.5t-80 27.5z" />
<glyph unicode="&#x44e;" horiz-adv-x="1174" d="M145 0v1085h95v-475h211q15 496 315 496q149 0 231 -146.5t82 -414.5q0 -271 -81.5 -418t-235.5 -147q-150 0 -229.5 143t-81.5 401h-211v-524h-95zM549 545q0 -479 215 -479q217 0 217 479q0 471 -217 471q-113 0 -164 -118t-51 -353z" />
<glyph unicode="&#x44f;" horiz-adv-x="797" d="M49 0l289 485q-122 22 -185 97.5t-63 199.5q0 146 90 224.5t250 78.5h221v-1085h-94v479h-125l-272 -479h-111zM188 782q0 -217 240 -217h129v434h-127q-242 0 -242 -217z" />
<glyph unicode="&#x450;" horiz-adv-x="803" d="M96 535q0 278 82.5 424.5t237.5 146.5q135 0 213 -128.5t78 -346.5v-88h-514q2 -237 67 -355t197 -118q102 0 215 67v-92q-104 -65 -219 -65q-172 0 -264.5 146.5t-92.5 408.5zM195 629h417q0 179 -54.5 285t-147.5 106q-196 0 -215 -391zM197 1552v17h125 q27 -63 82.5 -152t108.5 -155v-21h-48q-65 53 -148.5 148t-119.5 163z" />
<glyph unicode="&#x451;" horiz-adv-x="803" d="M96 535q0 278 82.5 424.5t237.5 146.5q135 0 213 -128.5t78 -346.5v-88h-514q2 -237 67 -355t197 -118q102 0 215 67v-92q-104 -65 -219 -65q-172 0 -264.5 146.5t-92.5 408.5zM195 629h417q0 179 -54.5 285t-147.5 106q-196 0 -215 -391zM195 1389q0 43 19.5 62t44.5 19 q23 0 42 -19t19 -62q0 -44 -19 -64t-42 -20q-25 0 -44.5 20t-19.5 64zM500 1389q0 43 19.5 62t42.5 19q25 0 44 -19t19 -62q0 -44 -19 -64t-44 -20q-23 0 -42.5 20t-19.5 64z" />
<glyph unicode="&#x452;" horiz-adv-x="870" d="M27 1270v84h118v202h95v-202h262v-84h-262v-219q0 -69 -4 -115h8q32 81 96.5 125.5t134.5 44.5q138 0 196 -90t58 -268v-949q0 -291 -176 -291q-40 0 -68 17v90q35 -16 64 -16q86 0 86 186v963q0 147 -38.5 208.5t-125.5 61.5q-115 0 -173 -102t-58 -322v-594h-95v1270 h-118z" />
<glyph unicode="&#x453;" horiz-adv-x="592" d="M145 0v1085h430v-90h-335v-995h-95zM275 1241v21q127 166 191 307h125v-17q-39 -70 -118.5 -161t-150.5 -150h-47z" />
<glyph unicode="&#x454;" horiz-adv-x="682" d="M96 537q0 278 88.5 423.5t261.5 145.5q98 0 179 -39l-35 -86q-22 13 -60.5 24t-74.5 11q-241 0 -260 -406h294v-86h-294q4 -454 258 -454q82 0 165 39v-91q-32 -17 -82 -27.5t-92 -10.5q-173 0 -260.5 141t-87.5 416z" />
<glyph unicode="&#x455;" horiz-adv-x="645" d="M74 41v111q37 -37 98 -59.5t125 -22.5q84 0 132 55t48 147q0 72 -34.5 121.5t-131.5 112.5q-111 70 -151.5 112t-63 94t-22.5 124q0 117 79 193.5t201 76.5q131 0 219 -62l-49 -83q-82 55 -174 55q-84 0 -134 -49.5t-50 -130.5q0 -72 34 -120.5t144 -117.5 q108 -71 148 -113.5t59.5 -94t19.5 -118.5q0 -137 -72 -214.5t-208 -77.5q-74 0 -130 19t-87 42z" />
<glyph unicode="&#x456;" horiz-adv-x="385" d="M131 1386q0 45 18.5 70t47.5 25q27 0 43 -25t16 -70q0 -43 -16 -68.5t-43 -25.5q-29 0 -47.5 25.5t-18.5 68.5zM145 0v1085h95v-1085h-95z" />
<glyph unicode="&#x457;" horiz-adv-x="385" d="M-20 1389q0 43 19.5 62t44.5 19q23 0 42 -19t19 -62q0 -44 -19 -64t-42 -20q-25 0 -44.5 20t-19.5 64zM145 0v1085h95v-1085h-95zM285 1389q0 43 19.5 62t42.5 19q25 0 44 -19t19 -62q0 -44 -19 -64t-44 -20q-23 0 -42.5 20t-19.5 64z" />
<glyph unicode="&#x458;" horiz-adv-x="385" d="M-4 -385q32 -16 63 -16q47 0 66.5 45.5t19.5 140.5v1300h95v-1286q0 -149 -43 -220t-134 -71q-42 0 -67 17v90zM131 1386q0 45 18.5 70t47.5 25q27 0 43 -25t16 -70q0 -43 -16 -68.5t-43 -25.5q-29 0 -47.5 25.5t-18.5 68.5z" />
<glyph unicode="&#x459;" horiz-adv-x="1143" d="M-10 -2v88q12 -6 35 -6q59 0 94.5 100t58.5 314t37 591h383v-475h141q158 0 242 -79.5t84 -225.5q0 -145 -86 -225t-242 -80h-233v995h-201q-11 -277 -31 -472.5t-48 -311t-70.5 -168.5t-118.5 -53q-24 0 -45 8zM598 86h139q230 0 230 219t-228 219h-141v-438z" />
<glyph unicode="&#x45a;" horiz-adv-x="1257" d="M145 0v1085h95v-475h378v475h95v-475h141q158 0 242 -79.5t84 -225.5q0 -145 -86 -225t-242 -80h-234v524h-378v-524h-95zM713 86h139q229 0 229 219t-227 219h-141v-438z" />
<glyph unicode="&#x45b;" horiz-adv-x="870" d="M27 1270v84h118v202h95v-202h262v-84h-262v-219q0 -69 -4 -115h8q32 81 96.5 125.5t134.5 44.5q138 0 196 -90t58 -268v-748h-94v748q0 147 -38.5 208.5t-125.5 61.5q-115 0 -173 -102t-58 -322v-594h-95v1270h-118z" />
<glyph unicode="&#x45c;" horiz-adv-x="692" d="M145 0v1085h95v-510l307 510h108l-319 -510l346 -575h-113l-329 567v-567h-95zM351 1241v21q127 166 191 307h125v-17q-39 -70 -118.5 -161t-150.5 -150h-47z" />
<glyph unicode="&#x45d;" horiz-adv-x="883" d="M145 0v1085h95v-733l-7 -205l385 938h119v-1085h-94v702l4 236l-385 -938h-117zM222 1552v17h125q27 -63 82.5 -152t108.5 -155v-21h-48q-65 53 -148.5 148t-119.5 163z" />
<glyph unicode="&#x45e;" horiz-adv-x="653" d="M-2 -389q40 -14 78 -14q60 0 95 51.5t62 165.5l48 188l-271 1083h96l164 -677q29 -122 56 -275h8q19 133 53 277l160 675h96l-317 -1290q-35 -143 -91.5 -215t-150.5 -72q-38 0 -86 17v86zM69 1522h92q11 -113 49.5 -160t118.5 -47q84 0 122.5 50t47.5 157h92 q-17 -281 -262 -281q-122 0 -186 66.5t-74 214.5z" />
<glyph unicode="&#x45f;" horiz-adv-x="883" d="M145 0v1085h95v-995h403v995h94v-1085h-250v-369h-94v369h-248z" />
<glyph unicode="&#x460;" horiz-adv-x="1380" d="M111 735q0 347 93.5 548.5t256.5 201.5q95 0 186 -62l-47 -82q-55 50 -131 50q-118 0 -187 -174.5t-69 -483.5q0 -204 33.5 -353t94 -227.5t140.5 -78.5q87 0 160 82v471h98v-471q69 -82 162 -82q77 0 137.5 79.5t94.5 229.5t34 350q0 310 -69 484t-187 174 q-76 0 -131 -50l-47 82q91 62 187 62q163 0 256.5 -200.5t93.5 -549.5q0 -232 -45 -403.5t-129 -261.5t-193 -90q-61 0 -112 22t-101 74q-52 -54 -102 -75t-113 -21q-108 0 -191 90.5t-128 261t-45 403.5z" />
<glyph unicode="&#x461;" horiz-adv-x="1161" d="M31 1085h96l125 -571q37 -164 78 -391h8l223 526l-92 436h92l143 -692q43 -193 54 -284h8q244 396 244 976h94q0 -325 -76.5 -584t-241.5 -501h-88l-110 518l-223 -518h-89z" />
<glyph unicode="&#x462;" horiz-adv-x="936" d="M10 1155v82h211v319h98v-319h263v-82h-263v-342h156q194 0 288.5 -96t94.5 -307q0 -191 -100.5 -300.5t-280.5 -109.5h-256v1155h-211zM319 90h162q134 0 205.5 82.5t71.5 237.5q0 161 -68 237t-211 76h-160v-633z" />
<glyph unicode="&#x463;" horiz-adv-x="784" d="M10 1004v81h135v234h95v-234h172v-81h-172v-394h141q158 0 242 -79.5t84 -225.5q0 -145 -86 -225t-242 -80h-234v1004h-135zM240 86h139q229 0 229 219t-227 219h-141v-438z" />
<glyph unicode="&#x464;" horiz-adv-x="1249" d="M160 0v1462h98v-649h244q14 315 132.5 493.5t315.5 178.5q141 0 248 -74l-45 -84q-95 64 -205 64q-150 0 -241 -153.5t-103 -424.5h457v-94h-459q2 -298 97.5 -471.5t254.5 -173.5q114 0 207 57v-94q-85 -57 -215 -57q-203 0 -323.5 197.5t-122.5 541.5h-242v-719h-98z " />
<glyph unicode="&#x465;" horiz-adv-x="1034" d="M145 0v1085h95v-475h209q11 244 100 370t250 126q97 0 178 -39l-35 -86q-22 13 -60.5 24t-74.5 11q-241 0 -260 -406h295v-86h-295q4 -454 258 -454q83 0 166 39v-91q-31 -17 -81.5 -27.5t-92.5 -10.5q-344 0 -348 544h-209v-524h-95z" />
<glyph unicode="&#x466;" horiz-adv-x="895" d="M0 0l397 1462h92l406 -1462h-100l-195 719h-104v-719h-95v719h-110l-189 -719h-102zM315 813h258l-94 354q-23 82 -37 174q-9 -87 -34 -174z" />
<glyph unicode="&#x467;" horiz-adv-x="778" d="M10 0l332 1085h98l328 -1085h-96l-156 524h-84v-524h-90v524h-82l-154 -524h-96zM287 610h202l-47 162q-18 60 -33 127.5t-16 85.5h-8q-4 -33 -14 -77t-84 -298z" />
<glyph unicode="&#x468;" horiz-adv-x="1284" d="M160 0v1462h98v-649h352l176 649h93l405 -1462h-100l-195 719h-104v-719h-94v719h-111l-188 -719h-103l195 719h-326v-719h-98zM705 813h258l-95 354q-23 82 -37 174q-9 -87 -34 -174z" />
<glyph unicode="&#x469;" horiz-adv-x="1126" d="M145 0v1085h95v-475h305l145 475h98l328 -1085h-96l-156 524h-84v-524h-90v524h-82l-153 -524h-97l160 524h-278v-524h-95zM635 610h203l-47 162q-15 52 -32 121t-18 92h-8q-11 -89 -51 -213z" />
<glyph unicode="&#x46a;" horiz-adv-x="1010" d="M10 0l101 457q42 203 111.5 286t189.5 88l-297 545v86h780v-86l-299 -545q119 -5 190.5 -90t112.5 -284l100 -457h-104l-102 483q-31 149 -79 204.5t-153 55.5h-8v-743h-98v743h-9q-71 0 -111 -22.5t-67.5 -76t-50.5 -161.5l-102 -483h-105zM231 1368l273 -520l274 520 h-547z" />
<glyph unicode="&#x46b;" horiz-adv-x="961" d="M16 0l99 328q40 135 72.5 188t79.5 81t118 34l-258 383v71h704v-71l-256 -383q72 -7 119 -35.5t79.5 -81t72.5 -186.5l98 -328h-104l-95 344q-33 121 -75.5 161t-120.5 40h-23v-545h-94v545h-20q-54 0 -88 -16.5t-57.5 -54.5t-49.5 -128l-96 -346h-105zM246 999l233 -354 l234 354h-467z" />
<glyph unicode="&#x46c;" horiz-adv-x="1430" d="M160 0v1462h98v-649h571l-294 563v86h780v-86l-299 -569q80 -4 136.5 -42t94.5 -112t72 -221l100 -432h-104l-103 459q-34 151 -81 205.5t-150 54.5h-8v-719h-99v719h-8q-71 0 -110.5 -23t-67 -76t-51.5 -161l-102 -459h-105l100 432q48 207 115 287h-387v-719h-98z M649 1368l275 -545l274 545h-549z" />
<glyph unicode="&#x46d;" horiz-adv-x="1329" d="M145 0v1085h95v-475h514l-258 404v71h704v-71l-258 -404q71 -5 118 -32.5t80 -78.5t74 -182l99 -317h-105l-98 334q-33 113 -72 151.5t-120 38.5h-23v-524h-94v524h-21q-81 0 -119 -35.5t-71 -152.5l-101 -336h-104l98 317q46 149 90 207h-333v-524h-95zM614 999 l234 -366l233 366h-467z" />
<glyph unicode="&#x46e;" horiz-adv-x="813" d="M61 -139q0 106 63.5 167t188.5 66q137 5 204 78t67 227q0 162 -76 237t-244 75h-100v94h106q141 0 218 82t77 241q0 132 -58.5 196.5t-164.5 64.5q-59 0 -109.5 -26t-82.5 -67l-66 68q77 86 188 111q-21 46 -62 119.5t-75 119.5v17h72q68 -80 153 -222q62 124 106 170.5 t87 46.5q27 0 51 -12v-84q-16 10 -33 10q-27 0 -55 -32t-76 -135q109 -26 167.5 -116t58.5 -229q0 -143 -67.5 -239.5t-182.5 -126.5v-8q138 -17 204 -109.5t66 -243.5q0 -192 -96 -293.5t-277 -107.5q-74 -3 -113.5 -39.5t-39.5 -99.5q0 -70 40.5 -108t118.5 -38 q48 0 87 7.5t83 7.5q55 0 107 -13v-98q-44 16 -104 16q-36 0 -78 -7t-90 -7q-131 0 -197 64t-66 176z" />
<glyph unicode="&#x46f;" horiz-adv-x="643" d="M41 1335v17h72q68 -80 153 -222q61 123 105 170.5t88 47.5q25 0 51 -13v-84q-18 11 -33 11q-59 0 -137 -166q87 -22 134.5 -90.5t47.5 -174.5q0 -85 -40.5 -149.5t-110.5 -93.5v-8q98 -37 141 -103.5t43 -161.5q0 -140 -69 -221.5t-207 -93.5q-73 -7 -106.5 -36.5 t-33.5 -88.5q0 -54 28.5 -82.5t96.5 -28.5q40 0 73.5 5.5t72.5 5.5q53 0 92 -11v-94q-36 15 -92 15q-32 0 -69.5 -5.5t-80.5 -5.5q-104 0 -159.5 52.5t-55.5 148.5q0 93 56 149t161 66q107 9 151 65t44 167q0 96 -55.5 153t-137.5 57h-69v86h55q46 0 87 26t64 74t23 111 q0 193 -172 193q-88 0 -146 -45l-45 74q46 33 121 47q-56 118 -141 237z" />
<glyph unicode="&#x470;" horiz-adv-x="1180" d="M143 1004v458h99v-456q0 -167 30 -267.5t92 -147t177 -46.5v917h98v-917q113 0 176 45.5t93 145.5t30 270v456h98v-458q0 -288 -94 -420.5t-303 -132.5v-451h-98v451q-210 0 -304 132.5t-94 420.5z" />
<glyph unicode="&#x471;" horiz-adv-x="977" d="M133 512v573h94v-565q0 -216 55.5 -329t170.5 -123v1488h94v-1488q120 8 176.5 139t56.5 387q0 241 -63 491h96q66 -258 66 -495q0 -290 -85 -446t-247 -164v-472h-94v472q-156 4 -238 141t-82 391z" />
<glyph unicode="&#x472;" horiz-adv-x="1065" d="M111 735q0 378 106 563t318 185q204 0 311.5 -194.5t107.5 -555.5q0 -363 -108.5 -558t-313.5 -195q-207 0 -314 196.5t-107 558.5zM213 698q2 -300 82.5 -462t236.5 -162q154 0 235 157.5t85 466.5h-639zM213 793h637q-6 295 -86 445.5t-229 150.5q-305 0 -322 -596z " />
<glyph unicode="&#x473;" horiz-adv-x="852" d="M94 545q0 561 332 561q156 0 243 -147t87 -414q0 -274 -86.5 -419.5t-247.5 -145.5q-159 0 -243.5 145.5t-84.5 419.5zM193 524q2 -458 231 -458q227 0 233 458h-464zM193 610h462q-16 406 -231 406q-114 0 -169 -102t-62 -304z" />
<glyph unicode="&#x474;" horiz-adv-x="887" d="M0 1462h102l240 -1028q36 -151 55 -313q18 121 49 249l183 783q29 127 59 196t68.5 98.5t101.5 29.5q38 0 70 -15v-90q-30 14 -62 14q-50 0 -78.5 -47t-62.5 -188l-272 -1151h-109z" />
<glyph unicode="&#x475;" horiz-adv-x="733" d="M10 1085h96l162 -698q28 -121 54 -264h8q16 111 53 266l92 393q28 123 58.5 192t69 98.5t102.5 29.5q33 0 65 -15v-86q-32 15 -61 15q-37 0 -59 -21.5t-41 -71t-42 -143.5l-188 -780h-113z" />
<glyph unicode="&#x476;" horiz-adv-x="887" d="M0 1462h102l240 -1028q36 -151 55 -313q18 121 49 249l183 783q29 127 59 196t68.5 98.5t101.5 29.5q38 0 70 -15v-90q-30 14 -62 14q-50 0 -78.5 -47t-62.5 -188l-272 -1151h-109zM82 1890v17h118q93 -205 170 -307v-21h-47q-57 51 -129.5 144t-111.5 167zM348 1890v17 h119q38 -90 86.5 -176.5t83.5 -130.5v-21h-47q-55 47 -128 141t-114 170z" />
<glyph unicode="&#x477;" horiz-adv-x="733" d="M6 1552v17h118q93 -205 170 -307v-21h-47q-57 51 -129.5 144t-111.5 167zM10 1085h96l162 -698q28 -121 54 -264h8q16 111 53 266l92 393q28 123 58.5 192t69 98.5t102.5 29.5q33 0 65 -15v-86q-32 15 -61 15q-37 0 -59 -21.5t-41 -71t-42 -143.5l-188 -780h-113z M272 1552v17h119q38 -90 86.5 -176.5t83.5 -130.5v-21h-47q-55 47 -128 141t-114 170z" />
<glyph unicode="&#x478;" horiz-adv-x="1718" d="M111 735q0 378 106 563t318 185q204 0 311.5 -194.5t107.5 -555.5q0 -363 -108.5 -558t-313.5 -195q-207 0 -314 196.5t-107 558.5zM213 733q0 -326 81.5 -492.5t237.5 -166.5q157 0 238.5 165t81.5 494q0 325 -80 490.5t-237 165.5q-161 0 -241.5 -167.5t-80.5 -488.5z M1063 -389q40 -14 78 -14q60 0 95 51.5t62 165.5l48 188l-271 1083h96l164 -677q29 -122 56 -275h8q19 133 53 277l160 675h96l-317 -1290q-35 -143 -91.5 -215t-150.5 -72q-38 0 -86 17v86z" />
<glyph unicode="&#x479;" horiz-adv-x="1503" d="M94 545q0 561 332 561q156 0 243 -147t87 -414q0 -274 -86.5 -419.5t-247.5 -145.5q-159 0 -243.5 145.5t-84.5 419.5zM193 545q0 -235 56 -355t175 -120q233 0 233 475q0 471 -233 471q-122 0 -176.5 -118t-54.5 -353zM848 -389q40 -14 78 -14q60 0 95 51.5t62 165.5 l48 188l-271 1083h96l164 -677q29 -122 56 -275h8q19 133 53 277l160 675h96l-317 -1290q-35 -143 -91.5 -215t-150.5 -72q-38 0 -86 17v86z" />
<glyph unicode="&#x47a;" horiz-adv-x="1167" d="M111 735q0 349 100.5 532t298.5 210q15 79 74 79q58 0 73 -79q194 -29 297 -219t103 -525q0 -331 -103.5 -523.5t-296.5 -223.5q-15 -80 -73 -80q-59 0 -74 80q-193 28 -296 220.5t-103 528.5zM213 733q0 -286 74.5 -452.5t220.5 -198.5q15 84 76 84q62 0 73 -86 q297 69 297 653q0 586 -297 647q-11 -84 -73 -84q-61 0 -76 84q-146 -34 -220.5 -198t-74.5 -449z" />
<glyph unicode="&#x47b;" horiz-adv-x="940" d="M94 545q0 504 303 555q14 76 74 76q57 0 72 -78q146 -30 224.5 -172t78.5 -381q0 -246 -79 -388t-224 -169q-15 -82 -72 -82q-61 0 -74 80q-148 26 -225.5 170.5t-77.5 388.5zM193 545q0 -412 202 -469q11 88 76 88q61 0 72 -88q205 62 205 469q0 399 -205 461 q-11 -88 -72 -88q-65 0 -76 88q-106 -28 -154 -143.5t-48 -317.5z" />
<glyph unicode="&#x47c;" horiz-adv-x="1489" d="M111 735q0 353 94.5 551.5t263.5 198.5q87 0 178 -62l-49 -82q-55 50 -129 50q-118 0 -187 -174.5t-69 -483.5q0 -199 35 -349t96.5 -230t136.5 -80q62 0 112.5 34.5t96.5 96.5q47 -62 96 -96.5t115 -34.5q77 0 138 80.5t94.5 230t33.5 348.5q0 310 -69 484t-187 174 q-74 0 -129 -50l-49 82q91 62 180 62q168 0 262.5 -198t94.5 -552q0 -229 -45.5 -400t-129.5 -263t-192 -92q-134 0 -213 100q-90 -100 -215 -100q-107 0 -190 92t-128.5 263t-45.5 400zM428 1892q0 199 164 199q82 0 184 -51q85 -43 131.5 -56.5t93.5 -13.5v-78h-10 q-91 0 -188 49q-97 48 -130.5 60t-64.5 12q-53 0 -73.5 -28.5t-20.5 -92.5h-86zM592 1554v56q113 36 113 106q0 24 -13 35t-29 20t-29 20.5t-13 37.5q0 31 18 49t49 18q43 0 68.5 -35t25.5 -92q0 -83 -46.5 -134.5t-143.5 -80.5z" />
<glyph unicode="&#x47d;" horiz-adv-x="1126" d="M94 537q0 277 69.5 423t207.5 146q74 0 141 -43l-31 -82q-47 35 -98 35q-190 0 -190 -477q0 -223 46 -348t128 -125q102 0 196 129q96 -129 191 -129q86 0 133 123t47 350q0 477 -191 477q-51 0 -98 -35l-31 82q67 43 142 43q137 0 206.5 -146t69.5 -423q0 -269 -68 -413 t-198 -144q-114 0 -203 94q-87 -94 -207 -94q-128 0 -195 145.5t-67 411.5zM305 1565q0 198 164 198q82 0 184 -51q85 -43 132 -56.5t94 -13.5v-77h-11q-88 0 -188 48l-51 25q-61 29 -90.5 38.5t-53.5 9.5q-51 0 -72.5 -28t-21.5 -93h-86zM469 1227v55q113 36 113 107 q0 24 -13 35t-29 19.5t-29 20.5t-13 37q0 31 18 49.5t49 18.5q44 0 69 -35t25 -92q0 -84 -46.5 -135t-143.5 -80z" />
<glyph unicode="&#x47e;" horiz-adv-x="1380" d="M111 735q0 347 93.5 548.5t256.5 201.5q95 0 186 -62l-47 -82q-55 50 -131 50q-118 0 -187 -174.5t-69 -483.5q0 -204 33.5 -353t94 -227.5t140.5 -78.5q87 0 160 82v471h98v-471q69 -82 162 -82q77 0 137.5 79.5t94.5 229.5t34 350q0 310 -69 484t-187 174 q-76 0 -131 -50l-47 82q91 62 187 62q163 0 256.5 -200.5t93.5 -549.5q0 -232 -45 -403.5t-129 -261.5t-193 -90q-61 0 -112 22t-101 74q-52 -54 -102 -75t-113 -21q-108 0 -191 90.5t-128 261t-45 403.5zM391 1749v27h590v-27l-59 -152h-13l-37 97h-141l-39 -97h-12l-39 97 h-141l-37 -97h-12z" />
<glyph unicode="&#x47f;" horiz-adv-x="1161" d="M31 1085h96l125 -571q37 -164 78 -391h8l223 526l-92 436h92l143 -692q43 -193 54 -284h8q244 396 244 976h94q0 -325 -76.5 -584t-241.5 -501h-88l-110 518l-223 -518h-89zM272 1395v26h590v-26l-59 -152h-12l-37 96h-142l-39 -96h-12l-39 96h-141l-37 -96h-12z" />
<glyph unicode="&#x480;" horiz-adv-x="844" d="M111 735q0 349 120 549.5t328 200.5q132 0 227 -62l-41 -86q-29 20 -79 37t-107 17q-158 0 -252 -173.5t-94 -484.5q0 -306 87 -482.5t235 -176.5q100 0 170 41v-607h-99v480q-32 -8 -84 -8q-124 0 -217.5 91t-143.5 263.5t-50 400.5z" />
<glyph unicode="&#x481;" horiz-adv-x="651" d="M96 537q0 278 83.5 423.5t246.5 145.5q101 0 168 -37l-35 -84q-24 12 -60.5 21.5t-64.5 9.5q-239 0 -239 -477q0 -473 219 -473q66 0 141 32v-590h-94v478q-32 -6 -60 -6q-150 0 -227.5 141t-77.5 416z" />
<glyph unicode="&#x482;" horiz-adv-x="924" d="M70 440l26 82l242 -86l156 445l-246 86l26 80l246 -86l109 319l88 -29l-113 -321l250 -82l-29 -82l-247 86l-150 -444l246 -86l-23 -80l-250 88l-108 -324l-88 29l108 321z" />
<glyph unicode="&#x483;" horiz-adv-x="1112" d="M328 1272q0 74 63 74h283q0 43 19.5 63.5t43.5 20.5q23 0 42.5 -20.5t19.5 -63.5q0 -74 -62 -74h-284q0 -44 -19.5 -64t-42.5 -20q-25 0 -44 20t-19 64z" />
<glyph unicode="&#x484;" horiz-adv-x="1126" d="M266 1257v78q46 0 92 13t134 57q102 51 184 51q164 0 164 -199h-86q0 64 -21 92.5t-74 28.5q-31 0 -65.5 -12.5t-128.5 -59.5q-97 -49 -189 -49h-10z" />
<glyph unicode="&#x485;" horiz-adv-x="1182" d="M502 1462q0 57 25.5 92t68.5 35q31 0 49.5 -18t18.5 -49q0 -26 -13 -37.5t-29 -20.5t-29 -20t-13 -35q0 -69 112 -106v-56q-97 29 -143.5 80.5t-46.5 134.5z" />
<glyph unicode="&#x486;" horiz-adv-x="1182" d="M496 1247v56q112 37 112 106q0 24 -13 35t-29 20t-29 20.5t-13 37.5q0 31 18.5 49t49.5 18q43 0 68.5 -35t25.5 -92q0 -83 -46.5 -134.5t-143.5 -80.5z" />
<glyph unicode="&#x488;" horiz-adv-x="1927" d="M41 457q3 89 56 141.5t149 52.5q187 0 196 -194h-67q-15 110 -133 110q-59 0 -91.5 -25.5t-41.5 -84.5h-68zM229 -41q3 90 56 142.5t149 52.5q188 0 197 -195h-68q-15 111 -133 111q-59 0 -91.5 -26t-41.5 -85h-68zM229 946q3 90 56 142.5t149 52.5q188 0 197 -195h-68 q-15 111 -133 111q-59 0 -91.5 -26t-41.5 -85h-68zM754 -319q3 89 55.5 141.5t148.5 52.5q188 0 197 -194h-68q-15 110 -133 110q-58 0 -90.5 -26t-42.5 -84h-67zM754 1231q3 90 55.5 142t148.5 52q188 0 197 -194h-68q-15 110 -133 110q-58 0 -90.5 -25.5t-42.5 -84.5h-67z M1294 -41q3 90 56 142.5t149 52.5q188 0 197 -195h-68q-15 111 -133 111q-59 0 -91.5 -26t-41.5 -85h-68zM1294 946q3 90 56 142.5t149 52.5q188 0 197 -195h-68q-15 111 -133 111q-59 0 -91.5 -26t-41.5 -85h-68zM1485 457q3 89 56 141.5t149 52.5q187 0 196 -194h-67 q-15 110 -133 110q-59 0 -91.5 -25.5t-42.5 -84.5h-67z" />
<glyph unicode="&#x489;" horiz-adv-x="1958" d="M66 588v37h20q155 -36 307 -50v-112h-20q-59 10 -153.5 48.5t-153.5 76.5zM281 -43l14 14q53 33 129.5 88.5t122.5 94.5l80 -80l-15 -15q-48 -34 -141.5 -74t-163.5 -55zM356 1225l27 26l14 -14q34 -55 93 -136t90 -116l-80 -80l-15 15q-34 48 -74 141.5t-55 163.5z M891 1141v20q10 59 48.5 153.5t76.5 153.5h37v-20q-35 -148 -49 -307h-113zM907 -342q35 148 49 307h113v-20q-10 -59 -48.5 -153.5t-76.5 -153.5h-37v20zM1333 1030l15 14q48 36 141 75.5t164 54.5l26 -25l-16 -14q-41 -27 -124.5 -87.5t-127.5 -97.5zM1376 121l80 78 l14 -15q36 -49 77 -145.5t55 -157.5l-27 -26l-14 14q-75 122 -185 252zM1565 528v113h20q62 -11 161 -51.5t146 -71.5v-37h-20q-67 16 -156 29.5t-151 17.5z" />
<glyph unicode="&#x48a;" horiz-adv-x="1090" d="M160 0v1462h96v-1022q0 -34 -0.5 -67.5t-9.5 -206.5h8l549 1296h127v-1368h106l-116 -463h-107l117 369h-96v1049q0 126 12 262h-8l-553 -1311h-125zM283 1860h88q10 -109 48.5 -156t123.5 -47q84 0 124.5 48t49.5 155h88q-17 -281 -262 -281q-122 0 -186 66.5t-74 214.5 z" />
<glyph unicode="&#x48b;" horiz-adv-x="883" d="M145 0v1085h95v-733l-7 -205l385 938h119v-991h107l-117 -463h-106l116 369h-94v702l4 236l-385 -938h-117zM184 1522h88q13 -113 51.5 -158t120.5 -45q85 0 125 48t49 155h89q-19 -281 -263 -281q-121 0 -185 66.5t-75 214.5z" />
<glyph unicode="&#x48c;" horiz-adv-x="874" d="M0 1155v82h160v225h98v-225h242v-82h-242v-342h156q196 0 289.5 -97.5t93.5 -305.5q0 -192 -101.5 -301t-279.5 -109h-256v1155h-160zM258 90h162q134 0 205 82.5t71 237.5q0 161 -67 237t-211 76h-160v-633z" />
<glyph unicode="&#x48d;" horiz-adv-x="784" d="M10 1208v82h135v266h95v-266h172v-82h-172v-598h141q158 0 242 -79.5t84 -225.5q0 -145 -86 -225t-242 -80h-234v1208h-135zM240 86h139q229 0 229 219t-227 219h-141v-438z" />
<glyph unicode="&#x48e;" horiz-adv-x="840" d="M160 0v1462h200q214 0 313 -101t99 -319q0 -267 -149 -372l120 -168l-69 -53l-131 182q-73 -27 -181 -27h-104v-604h-98zM258 694h98q80 0 131 15l-118 168l69 51l129 -183q54 41 79.5 113t25.5 184q0 177 -74.5 253.5t-230.5 76.5h-109v-678z" />
<glyph unicode="&#x48f;" horiz-adv-x="893" d="M145 -492v1577h78l10 -149h9q40 82 102.5 126t136.5 44q318 0 318 -561q0 -194 -39.5 -319.5t-106.5 -186.5l74 -160l-78 -39l-69 154q-35 -14 -86 -14q-82 0 -149.5 45.5t-102.5 124.5h-9l11 -119v-523h-99zM240 551q0 -250 59 -367.5t180 -117.5q37 0 64 10l-111 243 l80 37l102 -227q84 110 84 416q0 245 -52 358t-171 113t-177 -105t-58 -329v-31z" />
<glyph unicode="&#x490;" horiz-adv-x="686" d="M160 0v1462h383v301h94v-395h-379v-1368h-98z" />
<glyph unicode="&#x491;" horiz-adv-x="592" d="M145 0v1085h308v326h90v-416h-303v-995h-95z" />
<glyph unicode="&#x492;" horiz-adv-x="686" d="M61 680v90h99v692h510v-94h-412v-598h225v-90h-225v-680h-98v680h-99z" />
<glyph unicode="&#x493;" horiz-adv-x="592" d="M10 512v82h135v491h430v-90h-335v-401h172v-82h-172v-512h-95v512h-135z" />
<glyph unicode="&#x494;" horiz-adv-x="909" d="M160 0v1462h510v-94h-412v-588q71 23 145 23q192 0 300 -175t108 -474q0 -317 -93.5 -491.5t-266.5 -174.5q-103 0 -181 49v101q88 -56 168 -56q126 0 198.5 149t72.5 425q0 265 -82.5 411t-227.5 146q-69 0 -141 -25v-688h-98z" />
<glyph unicode="&#x495;" horiz-adv-x="805" d="M145 0v1085h430v-90h-335v-385q66 27 125 27q181 0 271.5 -147.5t90.5 -432.5q0 -267 -76 -413t-219 -146q-110 0 -180 58v100q85 -68 168 -68q102 0 155.5 123.5t53.5 347.5q0 237 -67 363.5t-197 126.5q-71 0 -125 -29v-520h-95z" />
<glyph unicode="&#x496;" horiz-adv-x="1171" d="M0 0l412 756l-400 706h107l393 -706v706h98v-706l394 706h106l-399 -706l360 -662h84v-463h-94v369h-49l-402 748v-748h-98v748l-401 -748h-111z" />
<glyph unicode="&#x497;" horiz-adv-x="991" d="M10 0l328 575l-301 510h106l289 -510v510h94v-510l289 510h107l-301 -510l276 -485h78v-459h-94v369h-43l-312 567v-567h-94v567l-311 -567h-111z" />
<glyph unicode="&#x498;" horiz-adv-x="813" d="M57 35v108q51 -32 119 -50.5t137 -18.5q271 0 271 315q0 166 -78 244t-242 78h-100v94h106q141 0 218 82t77 241q0 132 -58.5 196.5t-164.5 64.5q-59 0 -108.5 -26t-83.5 -67l-66 68q110 119 266 119q149 0 232.5 -94.5t83.5 -260.5q0 -143 -67.5 -239.5t-182.5 -126.5 v-8q133 -17 201.5 -111t68.5 -252q0 -195 -98 -303t-275 -108q-140 0 -256 55zM201 -360q18 -9 57 -9q97 0 97 109q0 64 -30.5 126.5t-101.5 133.5h78q63 -48 103.5 -124.5t40.5 -145.5q0 -176 -168 -176q-46 0 -76 12v74z" />
<glyph unicode="&#x499;" horiz-adv-x="643" d="M51 51v99q42 -33 94 -58.5t123 -25.5q90 0 139.5 61t49.5 178q0 103 -55 165t-150 62h-49v86h55q46 0 85.5 26t62 74.5t22.5 112.5q0 96 -43.5 143.5t-116.5 47.5q-76 0 -153 -49l-45 74q94 59 209 59q117 0 182 -71t65 -199q0 -89 -41.5 -155.5t-105.5 -92.5v-8 q85 -28 130.5 -98t45.5 -177q0 -149 -79.5 -237t-207.5 -88q-140 0 -217 71zM158 -360q18 -9 57 -9q97 0 97 109q0 64 -30.5 126.5t-101.5 133.5h78q63 -48 103.5 -124.5t40.5 -145.5q0 -176 -168 -176q-46 0 -76 12v74z" />
<glyph unicode="&#x49a;" horiz-adv-x="877" d="M160 0v1462h98v-774q51 96 432 774h107l-367 -643l348 -725h78v-463h-94v369h-47l-344 729l-113 -149v-580h-98z" />
<glyph unicode="&#x49b;" horiz-adv-x="721" d="M145 0v1085h95v-510l307 510h108l-319 -510l291 -485h78v-459h-95v369h-41l-329 567v-567h-95z" />
<glyph unicode="&#x49c;" horiz-adv-x="825" d="M160 0v1462h98v-774l102 186v365h86v-211l244 434h107l-351 -614v-64l379 -784h-110l-269 567v-276h-86v424l-102 -135v-580h-98z" />
<glyph unicode="&#x49d;" horiz-adv-x="795" d="M145 0v1085h95v-510l102 130v309h82v-207l221 278h113l-334 -409v-207l360 -469h-116l-244 322v-216h-82v324l-102 137v-567h-95z" />
<glyph unicode="&#x49e;" horiz-adv-x="825" d="M27 1182v90h133v190h98v-190h193v-90h-193v-494q51 96 432 774h107l-367 -643l395 -819h-110l-344 729l-113 -149v-580h-98v1182h-133z" />
<glyph unicode="&#x49f;" horiz-adv-x="711" d="M27 1270v84h118v202h95v-202h262v-84h-262v-551l-7 -182h9q29 58 92 163l237 385h103l-250 -399l272 -686h-100l-236 598l-120 -158v-440h-95v1270h-118z" />
<glyph unicode="&#x4a0;" horiz-adv-x="971" d="M14 1368v94h389v-774l97 176l336 598h106l-367 -643l396 -819h-111l-344 729l-113 -149v-580h-98v1368h-291z" />
<glyph unicode="&#x4a1;" horiz-adv-x="756" d="M16 999v86h287v-510l307 510h109l-320 -510l346 -575h-112l-330 567v-567h-94v999h-193z" />
<glyph unicode="&#x4a2;" horiz-adv-x="1036" d="M160 0v1462h98v-649h510v649h98v-1368h111v-463h-94v369h-115v719h-510v-719h-98z" />
<glyph unicode="&#x4a3;" horiz-adv-x="893" d="M145 0v1085h95v-475h403v475h94v-995h111v-459h-94v369h-111v524h-403v-524h-95z" />
<glyph unicode="&#x4a4;" horiz-adv-x="1174" d="M160 0v1462h98v-649h510v649h389v-94h-291v-1368h-98v719h-510v-719h-98z" />
<glyph unicode="&#x4a5;" horiz-adv-x="946" d="M145 0v1085h95v-475h403v475h287v-86h-193v-999h-94v524h-403v-524h-95z" />
<glyph unicode="&#x4a6;" horiz-adv-x="1462" d="M160 0v1462h655v-682q71 23 146 23q192 0 299.5 -175t107.5 -474q0 -317 -93.5 -491.5t-266.5 -174.5q-103 0 -181 49v101q88 -56 168 -56q126 0 198.5 149t72.5 425q0 265 -82.5 411t-227.5 146q-69 0 -141 -25v-688h-98v1368h-459v-1368h-98z" />
<glyph unicode="&#x4a7;" horiz-adv-x="1288" d="M145 0v1085h578v-475q69 27 125 27q181 0 271.5 -147.5t90.5 -432.5q0 -267 -76 -413t-219 -146q-110 0 -180 58v100q85 -68 168 -68q102 0 155.5 123.5t53.5 347.5q0 237 -67 363.5t-197 126.5q-69 0 -125 -29v-520h-94v995h-389v-995h-95z" />
<glyph unicode="&#x4a8;" horiz-adv-x="1145" d="M111 725q0 231 54.5 403.5t155.5 264.5t234 92q107 0 184 -41l-37 -88q-57 35 -147 35q-157 0 -249.5 -179.5t-92.5 -488.5q0 -199 45 -347t124.5 -225t180.5 -77q63 0 119 22q-78 96 -121 249.5t-43 332.5q0 244 70 380t192 136q130 0 198.5 -133.5t68.5 -382.5 q0 -183 -58.5 -347.5t-159.5 -252.5q68 -68 148 -68q49 0 102 21v-92q-42 -23 -110 -23q-119 0 -226 107q-30 -17 -83.5 -30t-102.5 -13q-203 0 -324.5 201.5t-121.5 543.5zM618 678q0 -336 146 -535q85 73 132.5 214.5t47.5 322.5q0 207 -41.5 313.5t-122.5 106.5 q-75 0 -118.5 -112t-43.5 -310z" />
<glyph unicode="&#x4a9;" horiz-adv-x="983" d="M94 535q0 269 93.5 420t263.5 151q67 0 116 -19l-20 -90q-52 19 -98 19q-122 0 -189 -123.5t-67 -357.5q0 -213 73 -339t203 -126q74 0 113 22q-136 154 -136 406q0 183 60 282t164 99q107 0 161 -99t54 -278q0 -127 -45 -240.5t-123 -179.5q18 -18 56.5 -31.5 t76.5 -13.5q53 0 86 12v-88q-38 -14 -88 -14q-114 0 -201 78q-70 -45 -180 -45q-176 0 -274.5 147t-98.5 408zM545 496q0 -122 28 -207t80 -150q60 51 96.5 143.5t36.5 219.5q0 139 -27 212.5t-89 73.5q-60 0 -92.5 -73.5t-32.5 -218.5z" />
<glyph unicode="&#x4aa;" horiz-adv-x="860" d="M111 735q0 350 124.5 550t339.5 200q134 0 234 -62l-45 -86q-84 54 -191 54q-165 0 -262.5 -174.5t-97.5 -483.5q0 -201 45 -350t129 -229t195 -80q114 0 196 41v-90q-78 -45 -205 -45q-139 0 -243.5 90t-161.5 260.5t-57 404.5zM434 -360q18 -9 57 -9q97 0 97 109 q0 64 -30.5 126.5t-101.5 133.5h78q63 -48 103.5 -124.5t40.5 -145.5q0 -176 -168 -176q-46 0 -76 12v74z" />
<glyph unicode="&#x4ab;" horiz-adv-x="635" d="M96 537q0 278 83.5 423.5t246.5 145.5q101 0 168 -37l-37 -84q-67 31 -123 31q-239 0 -239 -477q0 -473 239 -473q71 0 154 32v-80q-33 -18 -81 -28t-83 -10q-163 0 -245.5 141.5t-82.5 415.5zM277 -350q18 -9 57 -9q97 0 97 109q0 64 -30.5 126.5t-101.5 133.5h78 q63 -48 103.5 -124.5t40.5 -145.5q0 -176 -168 -176q-46 0 -76 12v74z" />
<glyph unicode="&#x4ac;" horiz-adv-x="711" d="M14 1368v94h680v-94h-291v-1274h111v-463h-94v369h-115v1368h-291z" />
<glyph unicode="&#x4ad;" horiz-adv-x="512" d="M16 999v86h480v-86h-193v-909h111v-459h-95v369h-110v999h-193z" />
<glyph unicode="&#x4ae;" horiz-adv-x="686" d="M0 1462h104l240 -755l238 755h104l-295 -891v-571h-98v571z" />
<glyph unicode="&#x4af;" horiz-adv-x="653" d="M10 1085h96q98 -414 151.5 -640.5t64.5 -301.5h8q15 108 53 267l164 675h96l-274 -1085v-492h-95v492z" />
<glyph unicode="&#x4b0;" horiz-adv-x="686" d="M0 1462h104l240 -755l238 755h104l-295 -891v-75h174v-90h-174v-406h-98v406h-174v90h174v75z" />
<glyph unicode="&#x4b1;" horiz-adv-x="653" d="M10 1085h96q98 -414 151.5 -640.5t64.5 -301.5h8q15 108 53 267l164 675h96l-274 -1085h163v-82h-163v-410h-95v410h-163v82h163z" />
<glyph unicode="&#x4b2;" horiz-adv-x="762" d="M20 0l306 776l-263 686h103l217 -608l211 608h100l-258 -708l226 -660h83v-463h-94v369h-59l-219 672l-254 -672h-99z" />
<glyph unicode="&#x4b3;" horiz-adv-x="694" d="M35 0l258 563l-238 522h103l182 -440l190 440h99l-242 -534l213 -461h78v-459h-94v369h-43l-203 469l-205 -469h-98z" />
<glyph unicode="&#x4b4;" horiz-adv-x="1178" d="M14 1368v94h680v-94h-291v-1274h510v1368h99v-1368h110v-463h-94v369h-723v1368h-291z" />
<glyph unicode="&#x4b5;" horiz-adv-x="956" d="M16 999v86h480v-86h-193v-909h404v995h94v-995h110v-459h-94v369h-608v999h-193z" />
<glyph unicode="&#x4b6;" horiz-adv-x="1012" d="M135 899v563h98v-567q0 -135 48.5 -201.5t150.5 -66.5q77 0 144.5 16.5t166.5 69.5v749h99v-1368h110v-463h-94v369h-115v627q-84 -48 -164 -71.5t-155 -23.5q-145 0 -217 91.5t-72 275.5z" />
<glyph unicode="&#x4b7;" horiz-adv-x="872" d="M123 659v426h94v-448q0 -92 39 -134t104 -42q76 0 144 39.5t119 99.5v485h94v-995h110v-459h-94v369h-110v498q-51 -59 -123.5 -92t-153.5 -33q-223 0 -223 286z" />
<glyph unicode="&#x4b8;" horiz-adv-x="1001" d="M135 899v563h98v-567q0 -135 48.5 -201.5t150.5 -66.5h12v372h86v-366q99 18 213 80v749h99v-1462h-99v627q-101 -59 -213 -84v-330h-86v319h-20q-289 0 -289 367z" />
<glyph unicode="&#x4b9;" horiz-adv-x="862" d="M123 659v426h94v-448q0 -92 39 -134t104 -42h19v313h82v-295q91 38 162 121v485h94v-1085h-94v498q-63 -72 -162 -107v-262h-82v244h-33q-223 0 -223 286z" />
<glyph unicode="&#x4ba;" horiz-adv-x="1001" d="M160 0v1462h98v-626q78 44 162.5 69t157.5 25q288 0 288 -367v-563h-98v567q0 135 -48.5 202t-150.5 67q-77 0 -144.5 -16.5t-166.5 -69.5v-750h-98z" />
<glyph unicode="&#x4bb;" horiz-adv-x="862" d="M145 0v1085h95v-497q51 59 123.5 92t152.5 33q223 0 223 -287v-426h-94v449q0 92 -39 134t-104 42q-76 0 -143.5 -40t-118.5 -100v-485h-95z" />
<glyph unicode="&#x4bc;" horiz-adv-x="1186" d="M20 879q0 31 6.5 69t14.5 53h98q-20 -45 -20 -114q0 -56 33.5 -80.5t97.5 -24.5q9 327 124 515t312 188q193 0 291 -184t98 -551v-62h-721q26 -612 363 -612q72 0 134 19t134 55v-99q-137 -71 -283 -71q-214 0 -330 182t-122 526q-111 0 -170.5 48t-59.5 143zM354 782 h617q0 297 -74 453t-215 156q-146 0 -232 -159t-96 -450z" />
<glyph unicode="&#x4bd;" horiz-adv-x="944" d="M20 733q0 70 21 115h90q-20 -47 -20 -115q0 -104 129 -104q13 232 94.5 354.5t222.5 122.5q135 0 213 -128.5t78 -346.5v-88h-514q4 -477 264 -477q102 0 215 67v-88q-104 -65 -219 -65q-170 0 -263 145t-93 410v8q-107 2 -162.5 47.5t-55.5 142.5zM336 629h418 q0 181 -55 285t-148 104q-196 0 -215 -389z" />
<glyph unicode="&#x4be;" horiz-adv-x="1186" d="M20 879q0 31 6.5 69t14.5 53h98q-20 -45 -20 -114q0 -56 33.5 -80.5t97.5 -24.5q9 327 124 515t312 188q193 0 291 -184t98 -551v-62h-721q26 -612 363 -612q72 0 134 19t134 55v-99q-114 -60 -240 -69v-351h-94v353q-190 19 -292.5 200t-108.5 504q-111 0 -170.5 48 t-59.5 143zM354 782h617q0 297 -74 453t-215 156q-146 0 -232 -159t-96 -450z" />
<glyph unicode="&#x4bf;" horiz-adv-x="944" d="M20 733q0 70 21 115h90q-20 -47 -20 -115q0 -104 129 -104q13 232 94.5 354.5t222.5 122.5q135 0 213 -128.5t78 -346.5v-88h-514q4 -477 264 -477q102 0 215 67v-88q-88 -57 -186 -63v-351h-95v355q-140 24 -217 166t-77 383v8q-107 2 -162.5 47.5t-55.5 142.5zM336 629 h418q0 181 -55 285t-148 104q-196 0 -215 -389z" />
<glyph unicode="&#x4c0;" horiz-adv-x="418" d="M160 0v1462h98v-1462h-98z" />
<glyph unicode="&#x4c1;" horiz-adv-x="1122" d="M0 0l412 756l-400 706h107l393 -706v706h98v-706l394 706h106l-399 -706l411 -756h-110l-402 748v-748h-98v748l-401 -748h-111zM304 1860h92q11 -113 49.5 -160t118.5 -47q84 0 122.5 50t47.5 157h92q-17 -281 -262 -281q-122 0 -186 66.5t-74 214.5z" />
<glyph unicode="&#x4c2;" horiz-adv-x="958" d="M10 0l328 575l-301 510h106l289 -510v510h94v-510l289 510h107l-301 -510l327 -575h-110l-312 567v-567h-94v567l-311 -567h-111zM218 1522h92q11 -113 49.5 -160t118.5 -47q84 0 122.5 50t47.5 157h92q-17 -281 -262 -281q-122 0 -186 66.5t-74 214.5z" />
<glyph unicode="&#x4c3;" horiz-adv-x="905" d="M160 0v1462h98v-682l414 682h106l-405 -661l15 2h15q192 0 300 -175t108 -474q0 -317 -93.5 -491.5t-266.5 -174.5q-103 0 -181 49v101q88 -56 168 -56q126 0 198.5 149t72.5 425q0 265 -82.5 411t-227.5 146q-69 0 -141 -25v-688h-98z" />
<glyph unicode="&#x4c4;" horiz-adv-x="809" d="M145 0v1085h95v-510l307 510h108l-280 -448q356 -9 356 -580q0 -267 -76 -413t-219 -146q-110 0 -180 58v100q85 -68 168 -68q102 0 155.5 123.5t53.5 347.5q0 237 -67 363.5t-197 126.5q-84 0 -129 -29v-520h-95z" />
<glyph unicode="&#x4c5;" horiz-adv-x="930" d="M-20 4v92q23 -16 69 -16q33 0 55.5 13t41 50.5t33 107.5t28 184t92.5 1027h471v-1368h104l-116 -463h-107l117 369h-96v1368h-287l-39 -476q-43 -520 -71 -655t-76.5 -193t-143.5 -58q-46 0 -75 18z" />
<glyph unicode="&#x4c6;" horiz-adv-x="776" d="M-10 -2v88q12 -6 35 -6q59 0 94.5 100t58.5 314t37 591h416v-991h106l-116 -463h-107l117 369h-94v995h-234q-11 -277 -31 -472.5t-48 -311t-70.5 -168.5t-118.5 -53q-24 0 -45 8z" />
<glyph unicode="&#x4c7;" horiz-adv-x="1026" d="M160 0v1462h98v-649h510v649h98v-1437q0 -249 -92 -393t-254 -144q-112 0 -190 49v101q40 -26 85 -41t111 -15q71 0 125.5 53.5t85.5 155.5t31 242v686h-510v-719h-98z" />
<glyph unicode="&#x4c8;" horiz-adv-x="883" d="M145 0v1085h95v-475h403v475h94v-1028q0 -283 -68 -421t-212 -138q-125 0 -195 58v100q85 -68 187 -68t148 115.5t46 355.5v465h-403v-524h-95z" />
<glyph unicode="&#x4c9;" horiz-adv-x="1026" d="M160 0v1462h98v-649h510v649h98v-1368h105l-117 -463h-106l116 369h-96v719h-510v-719h-98z" />
<glyph unicode="&#x4ca;" horiz-adv-x="883" d="M145 0v1085h95v-475h403v475h94v-991h107l-117 -463h-106l116 369h-94v524h-403v-524h-95z" />
<glyph unicode="&#x4cb;" horiz-adv-x="1001" d="M135 899v563h98v-567q0 -135 48.5 -201.5t150.5 -66.5q77 0 144.5 16.5t166.5 69.5v749h99v-1462h-115v-369h-94v463h110v533q-168 -95 -319 -95q-289 0 -289 367z" />
<glyph unicode="&#x4cc;" horiz-adv-x="862" d="M123 659v426h94v-448q0 -92 39 -134t104 -42q76 0 144 39.5t119 99.5v485h94v-1085h-111v-369h-94v459h111v408q-51 -59 -123.5 -92t-153.5 -33q-223 0 -223 286z" />
<glyph unicode="&#x4cd;" horiz-adv-x="1395" d="M160 0v1462h145l328 -1118q44 -148 57 -252h8q10 74 62 250l325 1120h150v-1368h104l-116 -463h-107l117 369h-96v1057q0 62 10 272h-8l-387 -1329h-111l-389 1331h-8q10 -210 10 -266v-1065h-94z" />
<glyph unicode="&#x4ce;" horiz-adv-x="1055" d="M145 0v1085h140l178 -700q13 -51 23.5 -96t33.5 -174h8q1 14 17 86t225 884h139v-991h107l-117 -463h-106l116 369h-94v651q0 103 10 273h-8l-237 -924h-111l-236 924h-8l7 -136l4 -131v-657h-91z" />
<glyph unicode="&#x4cf;" horiz-adv-x="418" d="M160 0v1462h98v-1462h-98z" />
<glyph unicode="&#x4d0;" horiz-adv-x="813" d="M0 0l352 1462h101l360 -1462h-100l-129 530h-355l-127 -530h-102zM147 1860h92q11 -113 49.5 -160t118.5 -47q84 0 122.5 50t47.5 157h92q-17 -281 -262 -281q-122 0 -186 66.5t-74 214.5zM248 629h313l-129 545q-20 92 -31 174q-9 -87 -28 -174z" />
<glyph unicode="&#x4d1;" horiz-adv-x="784" d="M78 291q0 155 93 245.5t261 98.5l117 6v90q0 152 -38 221.5t-126 69.5q-93 0 -190 -61l-41 75q113 70 237 70q134 0 193 -84.5t59 -282.5v-739h-78l-12 152h-4q-78 -172 -236 -172q-106 0 -170.5 84.5t-64.5 226.5zM110 1522h92q11 -113 49.5 -160t118.5 -47 q84 0 122.5 50t47.5 157h92q-17 -281 -262 -281q-122 0 -186 66.5t-74 214.5zM178 289q0 -118 42 -173t114 -55q102 0 158.5 100.5t56.5 284.5v113l-113 -6q-131 -7 -194.5 -72.5t-63.5 -191.5z" />
<glyph unicode="&#x4d2;" horiz-adv-x="813" d="M0 0l352 1462h101l360 -1462h-100l-129 530h-355l-127 -530h-102zM193 1727q0 43 19.5 62t44.5 19q23 0 42 -19t19 -62q0 -44 -19 -64t-42 -20q-25 0 -44.5 20t-19.5 64zM248 629h313l-129 545q-20 92 -31 174q-9 -87 -28 -174zM498 1727q0 43 19.5 62t42.5 19 q25 0 44 -19t19 -62q0 -44 -19 -64t-44 -20q-23 0 -42.5 20t-19.5 64z" />
<glyph unicode="&#x4d3;" horiz-adv-x="784" d="M78 291q0 155 93 245.5t261 98.5l117 6v90q0 152 -38 221.5t-126 69.5q-93 0 -190 -61l-41 75q113 70 237 70q134 0 193 -84.5t59 -282.5v-739h-78l-12 152h-4q-78 -172 -236 -172q-106 0 -170.5 84.5t-64.5 226.5zM178 289q0 -118 42 -173t114 -55q102 0 158.5 100.5 t56.5 284.5v113l-113 -6q-131 -7 -194.5 -72.5t-63.5 -191.5zM179 1389q0 43 19.5 62t44.5 19q23 0 42 -19t19 -62q0 -44 -19 -64t-42 -20q-25 0 -44.5 20t-19.5 64zM484 1389q0 43 19.5 62t42.5 19q25 0 44 -19t19 -62q0 -44 -19 -64t-44 -20q-23 0 -42.5 20t-19.5 64z" />
<glyph unicode="&#x4d4;" horiz-adv-x="1153" d="M0 0l434 1462h621v-96h-432v-553h407v-94h-407v-625h432v-94h-531v530h-268l-152 -530h-104zM283 629h241v735h-28z" />
<glyph unicode="&#x4d5;" horiz-adv-x="1260" d="M78 291q0 155 93 245.5t261 98.5l117 6v90q0 146 -39.5 218.5t-124.5 72.5q-93 0 -190 -61l-41 75q47 29 102.5 49.5t132.5 20.5q178 0 229 -172q84 172 250 172q137 0 216 -127.5t79 -347.5v-88h-514q9 -477 258 -477q50 0 109.5 17.5t111.5 49.5v-88q-100 -65 -223 -65 q-105 0 -185.5 63t-119.5 178q-46 -129 -117 -185t-170 -56q-106 0 -170.5 84.5t-64.5 226.5zM178 289q0 -118 42 -173t114 -55q102 0 158.5 100.5t56.5 284.5v113l-113 -6q-132 -7 -195 -69.5t-63 -194.5zM651 629h418v12q0 172 -55 274.5t-148 102.5q-194 0 -215 -389z " />
<glyph unicode="&#x4d6;" horiz-adv-x="788" d="M160 0v1462h530v-94h-432v-555h408v-94h-408v-625h432v-94h-530zM171 1860h92q11 -113 49.5 -160t118.5 -47q84 0 122.5 50t47.5 157h92q-17 -281 -262 -281q-122 0 -186 66.5t-74 214.5z" />
<glyph unicode="&#x4d7;" horiz-adv-x="803" d="M96 535q0 278 82.5 424.5t237.5 146.5q135 0 213 -128.5t78 -346.5v-88h-514q2 -237 67 -355t197 -118q102 0 215 67v-92q-104 -65 -219 -65q-172 0 -264.5 146.5t-92.5 408.5zM161 1522h92q11 -113 49.5 -160t118.5 -47q84 0 122.5 50t47.5 157h92q-17 -281 -262 -281 q-122 0 -186 66.5t-74 214.5zM195 629h417q0 179 -54.5 285t-147.5 106q-196 0 -215 -391z" />
<glyph unicode="&#x4d8;" horiz-adv-x="1047" d="M111 715v61h720q-21 613 -362 613q-72 0 -134 -19.5t-134 -54.5v98q86 43 150.5 57.5t131.5 14.5q221 0 337 -193t116 -563q0 -349 -117 -549t-319 -200q-193 0 -291 184t-98 551zM215 682q0 -296 73.5 -452t215.5 -156q144 0 230 156t97 452h-616z" />
<glyph unicode="&#x4d9;" horiz-adv-x="803" d="M96 455v88h514q-5 248 -70.5 362.5t-193.5 114.5q-100 0 -215 -68v88q106 66 219 66q170 0 263.5 -146.5t93.5 -408.5q0 -277 -83 -424t-237 -147q-135 0 -213 128.5t-78 346.5zM190 457q0 -181 55 -285t148 -104q196 0 215 389h-418z" />
<glyph unicode="&#x4da;" horiz-adv-x="1047" d="M111 715v61h720q-21 613 -362 613q-72 0 -134 -19.5t-134 -54.5v98q86 43 150.5 57.5t131.5 14.5q221 0 337 -193t116 -563q0 -349 -117 -549t-319 -200q-193 0 -291 184t-98 551zM215 682q0 -296 73.5 -452t215.5 -156q144 0 230 156t97 452h-616zM286 1727 q0 43 19.5 62t44.5 19q23 0 42 -19t19 -62q0 -44 -19 -64t-42 -20q-25 0 -44.5 20t-19.5 64zM591 1727q0 43 19.5 62t42.5 19q25 0 44 -19t19 -62q0 -44 -19 -64t-44 -20q-23 0 -42.5 20t-19.5 64z" />
<glyph unicode="&#x4db;" horiz-adv-x="803" d="M96 455v88h514q-5 248 -70.5 362.5t-193.5 114.5q-100 0 -215 -68v88q106 66 219 66q170 0 263.5 -146.5t93.5 -408.5q0 -277 -83 -424t-237 -147q-135 0 -213 128.5t-78 346.5zM156 1389q0 43 19.5 62t44.5 19q23 0 42 -19t19 -62q0 -44 -19 -64t-42 -20q-25 0 -44.5 20 t-19.5 64zM190 457q0 -181 55 -285t148 -104q196 0 215 389h-418zM461 1389q0 43 19.5 62t42.5 19q25 0 44 -19t19 -62q0 -44 -19 -64t-44 -20q-23 0 -42.5 20t-19.5 64z" />
<glyph unicode="&#x4dc;" horiz-adv-x="1122" d="M0 0l412 756l-400 706h107l393 -706v706h98v-706l394 706h106l-399 -706l411 -756h-110l-402 748v-748h-98v748l-401 -748h-111zM347 1727q0 43 19.5 62t44.5 19q23 0 42 -19t19 -62q0 -44 -19 -64t-42 -20q-25 0 -44.5 20t-19.5 64zM652 1727q0 43 19.5 62t42.5 19 q25 0 44 -19t19 -62q0 -44 -19 -64t-44 -20q-23 0 -42.5 20t-19.5 64z" />
<glyph unicode="&#x4dd;" horiz-adv-x="958" d="M10 0l328 575l-301 510h106l289 -510v510h94v-510l289 510h107l-301 -510l327 -575h-110l-312 567v-567h-94v567l-311 -567h-111zM265 1389q0 43 19.5 62t44.5 19q23 0 42 -19t19 -62q0 -44 -19 -64t-42 -20q-25 0 -44.5 20t-19.5 64zM570 1389q0 43 19.5 62t42.5 19 q25 0 44 -19t19 -62q0 -44 -19 -64t-44 -20q-23 0 -42.5 20t-19.5 64z" />
<glyph unicode="&#x4de;" horiz-adv-x="813" d="M57 35v108q51 -32 119 -50.5t137 -18.5q271 0 271 315q0 166 -78 244t-242 78h-100v94h106q141 0 218 82t77 241q0 132 -58.5 196.5t-164.5 64.5q-59 0 -108.5 -26t-83.5 -67l-66 68q110 119 266 119q149 0 232.5 -94.5t83.5 -260.5q0 -143 -67.5 -239.5t-182.5 -126.5 v-8q133 -17 201.5 -111t68.5 -252q0 -195 -98 -303t-275 -108q-140 0 -256 55zM130 1727q0 43 19.5 62t44.5 19q23 0 42 -19t19 -62q0 -44 -19 -64t-42 -20q-25 0 -44.5 20t-19.5 64zM435 1727q0 43 19.5 62t42.5 19q25 0 44 -19t19 -62q0 -44 -19 -64t-44 -20 q-23 0 -42.5 20t-19.5 64z" />
<glyph unicode="&#x4df;" horiz-adv-x="643" d="M51 51v99q42 -33 94 -58.5t123 -25.5q90 0 139.5 61t49.5 178q0 103 -55 165t-150 62h-49v86h55q46 0 85.5 26t62 74.5t22.5 112.5q0 96 -43.5 143.5t-116.5 47.5q-76 0 -153 -49l-45 74q94 59 209 59q117 0 182 -71t65 -199q0 -89 -41.5 -155.5t-105.5 -92.5v-8 q85 -28 130.5 -98t45.5 -177q0 -149 -79.5 -237t-207.5 -88q-140 0 -217 71zM68 1389q0 43 19.5 62t44.5 19q23 0 42 -19t19 -62q0 -44 -19 -64t-42 -20q-25 0 -44.5 20t-19.5 64zM373 1389q0 43 19.5 62t42.5 19q25 0 44 -19t19 -62q0 -44 -19 -64t-44 -20q-23 0 -42.5 20 t-19.5 64z" />
<glyph unicode="&#x4e0;" horiz-adv-x="797" d="M57 63v109q47 -48 115.5 -73t136.5 -25q152 0 219.5 87.5t67.5 250.5q0 319 -289 319h-90v86l318 549h-447v96h557v-90l-323 -547q181 -4 278.5 -111.5t97.5 -297.5q0 -213 -100.5 -324.5t-290.5 -111.5q-71 0 -141.5 24t-108.5 59z" />
<glyph unicode="&#x4e1;" horiz-adv-x="676" d="M41 -322q99 -79 227 -79q107 0 171.5 108.5t64.5 294.5q0 171 -65.5 260.5t-188.5 89.5h-82v74l297 573h-379v86h492v-71l-299 -576q158 -8 240.5 -119.5t82.5 -318.5q0 -230 -92 -361t-248 -131q-129 0 -221 68v102z" />
<glyph unicode="&#x4e2;" horiz-adv-x="1090" d="M160 0v1462h96v-1022q0 -34 -0.5 -67.5t-9.5 -206.5h8l549 1296h127v-1462h-96v1049q0 126 12 262h-8l-553 -1311h-125zM340 1589v82h452v-82h-452z" />
<glyph unicode="&#x4e3;" horiz-adv-x="883" d="M145 0v1085h95v-733l-7 -205l385 938h119v-1085h-94v702l4 236l-385 -938h-117zM208 1251v82h452v-82h-452z" />
<glyph unicode="&#x4e4;" horiz-adv-x="1090" d="M160 0v1462h96v-1022q0 -34 -0.5 -67.5t-9.5 -206.5h8l549 1296h127v-1462h-96v1049q0 126 12 262h-8l-553 -1311h-125zM335 1727q0 43 19.5 62t44.5 19q23 0 42 -19t19 -62q0 -44 -19 -64t-42 -20q-25 0 -44.5 20t-19.5 64zM640 1727q0 43 19.5 62t42.5 19q25 0 44 -19 t19 -62q0 -44 -19 -64t-44 -20q-23 0 -42.5 20t-19.5 64z" />
<glyph unicode="&#x4e5;" horiz-adv-x="883" d="M145 0v1085h95v-733l-7 -205l385 938h119v-1085h-94v702l4 236l-385 -938h-117zM232 1389q0 43 19.5 62t44.5 19q23 0 42 -19t19 -62q0 -44 -19 -64t-42 -20q-25 0 -44.5 20t-19.5 64zM537 1389q0 43 19.5 62t42.5 19q25 0 44 -19t19 -62q0 -44 -19 -64t-44 -20 q-23 0 -42.5 20t-19.5 64z" />
<glyph unicode="&#x4e6;" horiz-adv-x="1065" d="M111 735q0 378 106 563t318 185q204 0 311.5 -194.5t107.5 -555.5q0 -363 -108.5 -558t-313.5 -195q-207 0 -314 196.5t-107 558.5zM213 733q0 -326 81.5 -492.5t237.5 -166.5q157 0 238.5 165t81.5 494q0 325 -80 490.5t-237 165.5q-161 0 -241.5 -167.5t-80.5 -488.5z M331 1727q0 43 19.5 62t44.5 19q23 0 42 -19t19 -62q0 -44 -19 -64t-42 -20q-25 0 -44.5 20t-19.5 64zM636 1727q0 43 19.5 62t42.5 19q25 0 44 -19t19 -62q0 -44 -19 -64t-44 -20q-23 0 -42.5 20t-19.5 64z" />
<glyph unicode="&#x4e7;" horiz-adv-x="850" d="M94 545q0 561 332 561q156 0 243 -147t87 -414q0 -274 -86.5 -419.5t-247.5 -145.5q-159 0 -243.5 145.5t-84.5 419.5zM193 545q0 -235 56 -355t175 -120q233 0 233 475q0 471 -233 471q-122 0 -176.5 -118t-54.5 -353zM210 1389q0 43 19.5 62t44.5 19q23 0 42 -19 t19 -62q0 -44 -19 -64t-42 -20q-25 0 -44.5 20t-19.5 64zM515 1389q0 43 19.5 62t42.5 19q25 0 44 -19t19 -62q0 -44 -19 -64t-44 -20q-23 0 -42.5 20t-19.5 64z" />
<glyph unicode="&#x4e8;" horiz-adv-x="1065" d="M111 735q0 378 106 563t318 185q204 0 311.5 -194.5t107.5 -555.5q0 -363 -108.5 -558t-313.5 -195q-207 0 -314 196.5t-107 558.5zM213 698q2 -300 82.5 -462t236.5 -162q154 0 235 157.5t85 466.5h-639zM213 793h637q-6 295 -86 445.5t-229 150.5q-305 0 -322 -596z " />
<glyph unicode="&#x4e9;" horiz-adv-x="852" d="M94 545q0 561 332 561q156 0 243 -147t87 -414q0 -274 -86.5 -419.5t-247.5 -145.5q-159 0 -243.5 145.5t-84.5 419.5zM193 524q2 -458 231 -458q227 0 233 458h-464zM193 610h462q-16 406 -231 406q-114 0 -169 -102t-62 -304z" />
<glyph unicode="&#x4ea;" horiz-adv-x="1065" d="M111 735q0 378 106 563t318 185q204 0 311.5 -194.5t107.5 -555.5q0 -363 -108.5 -558t-313.5 -195q-207 0 -314 196.5t-107 558.5zM213 698q2 -300 82.5 -462t236.5 -162q154 0 235 157.5t85 466.5h-639zM213 793h637q-6 295 -86 445.5t-229 150.5q-305 0 -322 -596z M329 1727q0 43 19.5 62t44.5 19q23 0 42 -19t19 -62q0 -44 -19 -64t-42 -20q-25 0 -44.5 20t-19.5 64zM634 1727q0 43 19.5 62t42.5 19q25 0 44 -19t19 -62q0 -44 -19 -64t-44 -20q-23 0 -42.5 20t-19.5 64z" />
<glyph unicode="&#x4eb;" horiz-adv-x="852" d="M94 545q0 561 332 561q156 0 243 -147t87 -414q0 -274 -86.5 -419.5t-247.5 -145.5q-159 0 -243.5 145.5t-84.5 419.5zM193 524q2 -458 231 -458q227 0 233 458h-464zM193 610h462q-16 406 -231 406q-114 0 -169 -102t-62 -304zM212 1389q0 43 19.5 62t44.5 19 q23 0 42 -19t19 -62q0 -44 -19 -64t-42 -20q-25 0 -44.5 20t-19.5 64zM517 1389q0 43 19.5 62t42.5 19q25 0 44 -19t19 -62q0 -44 -19 -64t-44 -20q-23 0 -42.5 20t-19.5 64z" />
<glyph unicode="&#x4ec;" horiz-adv-x="860" d="M51 1421q103 64 232 64q141 0 247.5 -91t163 -262.5t56.5 -402.5q0 -346 -124.5 -547.5t-340.5 -201.5q-60 0 -116 11t-87 29v95q84 -41 205 -41q164 0 260 170.5t100 474.5h-461v94h459q-14 272 -110.5 425t-251.5 153q-103 0 -187 -54zM107 1727q0 43 19.5 62t44.5 19 q23 0 42 -19t19 -62q0 -44 -19 -64t-42 -20q-25 0 -44.5 20t-19.5 64zM412 1727q0 43 19.5 62t42.5 19q25 0 44 -19t19 -62q0 -44 -19 -64t-44 -20q-23 0 -42.5 20t-19.5 64z" />
<glyph unicode="&#x4ed;" horiz-adv-x="682" d="M51 18v91q85 -39 168 -39q131 0 197 108.5t71 345.5h-294v86h292q-17 406 -252 406q-32 0 -71 -11.5t-58 -23.5l-36 86q81 39 176 39q167 0 254.5 -141t87.5 -416q0 -280 -90.5 -424.5t-270.5 -144.5q-46 0 -94 10.5t-80 27.5zM93 1389q0 43 19.5 62t44.5 19q23 0 42 -19 t19 -62q0 -44 -19 -64t-42 -20q-25 0 -44.5 20t-19.5 64zM398 1389q0 43 19.5 62t42.5 19q25 0 44 -19t19 -62q0 -44 -19 -64t-44 -20q-23 0 -42.5 20t-19.5 64z" />
<glyph unicode="&#x4ee;" horiz-adv-x="686" d="M0 1462h102l222 -749q11 -39 34 -144h9q12 85 28 144l189 749h102l-326 -1220q-37 -139 -92 -200.5t-143 -61.5q-48 0 -88 20v92q44 -18 86 -18q50 0 84 44.5t63 147.5l43 162zM130 1589v82h452v-82h-452z" />
<glyph unicode="&#x4ef;" horiz-adv-x="653" d="M-2 -389q40 -14 78 -14q60 0 95 51.5t62 165.5l48 188l-271 1083h96l164 -677q29 -122 56 -275h8q19 133 53 277l160 675h96l-317 -1290q-35 -143 -91.5 -215t-150.5 -72q-38 0 -86 17v86zM93 1251v82h452v-82h-452z" />
<glyph unicode="&#x4f0;" horiz-adv-x="686" d="M0 1462h102l222 -749q11 -39 34 -144h9q12 85 28 144l189 749h102l-326 -1220q-37 -139 -92 -200.5t-143 -61.5q-48 0 -88 20v92q44 -18 86 -18q50 0 84 44.5t63 147.5l43 162zM124 1727q0 43 19.5 62t44.5 19q23 0 42 -19t19 -62q0 -44 -19 -64t-42 -20q-25 0 -44.5 20 t-19.5 64zM429 1727q0 43 19.5 62t42.5 19q25 0 44 -19t19 -62q0 -44 -19 -64t-44 -20q-23 0 -42.5 20t-19.5 64z" />
<glyph unicode="&#x4f1;" horiz-adv-x="653" d="M-2 -389q40 -14 78 -14q60 0 95 51.5t62 165.5l48 188l-271 1083h96l164 -677q29 -122 56 -275h8q19 133 53 277l160 675h96l-317 -1290q-35 -143 -91.5 -215t-150.5 -72q-38 0 -86 17v86zM118 1389q0 43 19.5 62t44.5 19q23 0 42 -19t19 -62q0 -44 -19 -64t-42 -20 q-25 0 -44.5 20t-19.5 64zM423 1389q0 43 19.5 62t42.5 19q25 0 44 -19t19 -62q0 -44 -19 -64t-44 -20q-23 0 -42.5 20t-19.5 64z" />
<glyph unicode="&#x4f2;" horiz-adv-x="686" d="M0 1462h102l222 -749q11 -39 34 -144h9q12 85 28 144l189 749h102l-326 -1220q-37 -139 -92 -200.5t-143 -61.5q-48 0 -88 20v92q44 -18 86 -18q50 0 84 44.5t63 147.5l43 162zM138 1579v21q45 59 93 149.5t77 157.5h119v-17q-42 -75 -110 -164.5t-132 -146.5h-47z M404 1579v21q45 59 93 149.5t77 157.5h119v-17q-38 -73 -109.5 -164.5t-132.5 -146.5h-47z" />
<glyph unicode="&#x4f3;" horiz-adv-x="653" d="M-2 -389q40 -14 78 -14q60 0 95 51.5t62 165.5l48 188l-271 1083h96l164 -677q29 -122 56 -275h8q19 133 53 277l160 675h96l-317 -1290q-35 -143 -91.5 -215t-150.5 -72q-38 0 -86 17v86zM95 1241v21q45 59 93 149.5t77 157.5h119v-17q-42 -75 -110 -164.5t-132 -146.5 h-47zM361 1241v21q45 59 93 149.5t77 157.5h119v-17q-38 -73 -109.5 -164.5t-132.5 -146.5h-47z" />
<glyph unicode="&#x4f4;" horiz-adv-x="1001" d="M135 899v563h98v-567q0 -135 48.5 -201.5t150.5 -66.5q77 0 144.5 16.5t166.5 69.5v749h99v-1462h-99v627q-168 -95 -319 -95q-289 0 -289 367zM281 1727q0 43 19.5 62t44.5 19q23 0 42 -19t19 -62q0 -44 -19 -64t-42 -20q-25 0 -44.5 20t-19.5 64zM586 1727 q0 43 19.5 62t42.5 19q25 0 44 -19t19 -62q0 -44 -19 -64t-44 -20q-23 0 -42.5 20t-19.5 64z" />
<glyph unicode="&#x4f5;" horiz-adv-x="862" d="M123 659v426h94v-448q0 -92 39 -134t104 -42q76 0 144 39.5t119 99.5v485h94v-1085h-94v498q-51 -59 -123.5 -92t-153.5 -33q-223 0 -223 286zM208 1389q0 43 19.5 62t44.5 19q23 0 42 -19t19 -62q0 -44 -19 -64t-42 -20q-25 0 -44.5 20t-19.5 64zM513 1389q0 43 19.5 62 t42.5 19q25 0 44 -19t19 -62q0 -44 -19 -64t-44 -20q-23 0 -42.5 20t-19.5 64z" />
<glyph unicode="&#x4f6;" horiz-adv-x="686" d="M160 0v1462h510v-94h-412v-1274h111v-463h-95v369h-114z" />
<glyph unicode="&#x4f7;" horiz-adv-x="592" d="M145 0v1085h430v-90h-335v-905h110v-459h-94v369h-111z" />
<glyph unicode="&#x4f8;" horiz-adv-x="1284" d="M160 0v1462h98v-649h156q196 0 289.5 -97.5t93.5 -305.5q0 -192 -101.5 -301t-279.5 -109h-256zM258 90h162q134 0 205 82.5t71 237.5q0 161 -67 237t-211 76h-160v-633zM432 1727q0 43 19.5 62t44.5 19q23 0 42 -19t19 -62q0 -44 -19 -64t-42 -20q-25 0 -44.5 20 t-19.5 64zM737 1727q0 43 19.5 62t42.5 19q25 0 44 -19t19 -62q0 -44 -19 -64t-44 -20q-23 0 -42.5 20t-19.5 64zM1026 0v1462h98v-1462h-98z" />
<glyph unicode="&#x4f9;" horiz-adv-x="1114" d="M145 0v1085h95v-475h141q158 0 242 -79.5t84 -225.5q0 -145 -86 -225t-242 -80h-234zM240 86h139q229 0 229 219t-227 219h-141v-438zM358 1389q0 43 19.5 62t44.5 19q23 0 42 -19t19 -62q0 -44 -19 -64t-42 -20q-25 0 -44.5 20t-19.5 64zM663 1389q0 43 19.5 62t42.5 19 q25 0 44 -19t19 -62q0 -44 -19 -64t-44 -20q-23 0 -42.5 20t-19.5 64zM874 0v1085h95v-1085h-95z" />
<glyph unicode="&#x4fa;" horiz-adv-x="686" d="M61 680v90h99v692h510v-94h-412v-598h225v-90h-225v-586h102v-235q0 -211 -176 -211q-58 0 -98 16v80q45 -18 84 -18q98 0 98 124v150h-108v680h-99z" />
<glyph unicode="&#x4fb;" horiz-adv-x="592" d="M10 512v82h135v491h430v-90h-335v-401h172v-82h-172v-426h96v-227q0 -211 -170 -211q-58 0 -98 16v80q45 -18 84 -18q98 0 98 124v150h-105v512h-135z" />
<glyph unicode="&#x4fc;" horiz-adv-x="774" d="M20 0l306 776l-263 686h103l217 -608l211 608h100l-258 -708l226 -660h96v-235q0 -104 -45 -157.5t-131 -53.5q-56 0 -99 16v80q45 -18 84 -18q99 0 99 124v150h-74l-219 672l-254 -672h-99z" />
<glyph unicode="&#x4fd;" horiz-adv-x="700" d="M35 0l258 563l-238 522h103l182 -440l190 440h99l-242 -534l213 -465h90v-227q0 -211 -170 -211q-58 0 -98 16v80q45 -18 84 -18q98 0 98 124v150h-63l-203 469l-205 -469h-98z" />
<glyph unicode="&#x4fe;" horiz-adv-x="715" d="M20 0l279 741h-180v90h172l-228 631h103l211 -612l217 612h100l-233 -631h172v-90h-180l241 -741h-102l-217 698l-256 -698h-99z" />
<glyph unicode="&#x4ff;" horiz-adv-x="676" d="M35 0l231 524h-168v82h164l-207 479h103l182 -450l190 450h99l-213 -479h166v-82h-172l231 -524h-100l-203 479l-205 -479h-98z" />
<glyph unicode="&#x500;" horiz-adv-x="840" d="M78 440q0 219 94 318.5t291 99.5h119v604h98v-1462h-272q-330 0 -330 440zM178 440q0 -189 57 -269.5t187 -80.5h160v678h-119q-156 0 -220.5 -72.5t-64.5 -255.5z" />
<glyph unicode="&#x501;" horiz-adv-x="893" d="M94 541q0 276 79 420.5t233 144.5q73 0 138.5 -42t104.5 -116h8l-4 121v487h95v-1556h-78l-8 152h-9q-39 -83 -101 -127.5t-142 -44.5q-316 0 -316 561zM193 539q0 -234 53 -355t170 -121q114 0 175.5 105.5t61.5 310.5v62q0 246 -59.5 360.5t-181.5 114.5 q-117 0 -168 -122.5t-51 -354.5z" />
<glyph unicode="&#x502;" horiz-adv-x="1290" d="M78 440q0 161 39.5 245.5t123.5 128.5t222 44h119v604h98v-1112q0 -143 46 -209.5t140 -66.5t140.5 66.5t46.5 209.5v498h98v-471q0 -208 -68.5 -302.5t-216.5 -94.5q-97 0 -153 41t-84 126q-29 -78 -88.5 -122.5t-169.5 -44.5q-293 0 -293 460zM178 440 q0 -149 19.5 -222t62 -108.5t115.5 -35.5q109 0 158 66.5t49 209.5v418h-119q-156 0 -220.5 -72.5t-64.5 -255.5z" />
<glyph unicode="&#x503;" horiz-adv-x="1280" d="M94 541q0 276 79 420.5t233 144.5q73 0 138.5 -42t104.5 -116h8l-4 121v487h95v-1214q0 -143 39.5 -209.5t119.5 -66.5q81 0 120.5 66.5t39.5 209.5v358h94v-362q0 -180 -59.5 -269t-194.5 -89q-94 0 -147.5 47.5t-75.5 138.5h-8q-65 -186 -266 -186q-316 0 -316 561z M193 539q0 -234 53 -355t170 -121q119 0 178 106.5t59 309.5v62q0 246 -59.5 360.5t-181.5 114.5q-117 0 -168 -122.5t-51 -354.5z" />
<glyph unicode="&#x504;" horiz-adv-x="1296" d="M84 1364q109 119 266 119q148 0 232 -90.5t84 -264.5q0 -143 -67.5 -239.5t-182.5 -126.5v-8q270 -33 270 -381q0 -158 44 -228.5t142 -70.5q94 0 140.5 66.5t46.5 209.5v498h98v-471q0 -208 -68.5 -302.5t-216.5 -94.5q-149 0 -216.5 94.5t-67.5 306.5q0 170 -78.5 250 t-245.5 80h-100v94h106q141 0 218 82t77 241q0 132 -54 196.5t-169 64.5q-52 0 -103 -25t-89 -70z" />
<glyph unicode="&#x505;" horiz-adv-x="1075" d="M51 1047q96 59 209 59q117 0 182.5 -70.5t65.5 -199.5q0 -89 -41.5 -155t-106.5 -93v-8q95 -24 139 -85t44 -163q0 -143 39.5 -204.5t119.5 -61.5q81 0 120.5 66.5t39.5 209.5v358h94v-362q0 -180 -59.5 -269t-194.5 -89q-132 0 -192.5 84.5t-60.5 267.5q0 200 -195 200 h-70v86h56q69 0 119.5 59.5t50.5 153.5q0 96 -44 143.5t-116 47.5q-70 0 -154 -49z" />
<glyph unicode="&#x506;" horiz-adv-x="852" d="M84 1364q110 119 266 119q148 0 232 -90.5t84 -264.5q0 -143 -67.5 -239.5t-182.5 -126.5v-8q133 -17 201.5 -111t68.5 -252v-297h111v-463h-95v369h-114v389q0 166 -80.5 244t-243.5 78h-100v94h106q141 0 218 82t77 241q0 132 -54 196.5t-169 64.5q-113 0 -192 -93z " />
<glyph unicode="&#x507;" horiz-adv-x="698" d="M51 1047q96 59 209 59q117 0 182.5 -70.5t65.5 -199.5q0 -89 -41.5 -155t-106.5 -93v-8q92 -23 137.5 -94.5t45.5 -180.5v-215h110v-459h-94v369h-110v311q0 99 -54 160t-141 61h-70v86h56q69 0 119.5 59.5t50.5 153.5q0 96 -44 143.5t-116 47.5q-70 0 -154 -49z" />
<glyph unicode="&#x508;" horiz-adv-x="1380" d="M-20 4v92q23 -16 69 -16q33 0 55.5 13t41 50.5t33 107.5t28 184t92.5 1027h471v-1112q0 -143 46 -209.5t140 -66.5t140.5 66.5t46.5 209.5v498h98v-471q0 -208 -68.5 -302.5t-216.5 -94.5t-216 93t-68 304v991h-287l-39 -476q-43 -520 -71 -655t-76.5 -193t-143.5 -58 q-46 0 -75 18z" />
<glyph unicode="&#x509;" horiz-adv-x="1163" d="M-10 -2v88q12 -6 35 -6q59 0 94.5 100t58.5 314t37 591h416v-743q0 -143 39.5 -209.5t120.5 -66.5q80 0 119.5 66.5t39.5 209.5v358h94v-362q0 -180 -59.5 -269t-193.5 -89q-131 0 -192.5 88t-61.5 274v653h-234q-11 -277 -31 -472.5t-48 -311t-70.5 -168.5t-118.5 -53 q-24 0 -45 8z" />
<glyph unicode="&#x50a;" horiz-adv-x="1477" d="M160 0v1462h98v-649h510v649h98v-1112q0 -143 46.5 -209.5t140.5 -66.5t140 66.5t46 209.5v498h98v-471q0 -208 -68.5 -302.5t-215.5 -94.5q-149 0 -217 95t-68 302v342h-510v-719h-98z" />
<glyph unicode="&#x50b;" horiz-adv-x="1270" d="M145 0v1085h95v-475h403v475h94v-743q0 -143 40 -209.5t120 -66.5q81 0 120.5 66.5t39.5 209.5v358h94v-362q0 -180 -59.5 -269t-194.5 -89q-131 0 -192.5 88t-61.5 274v182h-403v-524h-95z" />
<glyph unicode="&#x50c;" horiz-adv-x="1055" d="M111 735q0 356 129 552t360 196q158 0 297 -94l-49 -86q-126 88 -248 88q-189 0 -287 -168.5t-98 -489.5q0 -204 42 -352.5t119 -227.5t177 -79q112 0 177.5 58t98.5 184.5t33 326.5h-250v94h349v-92q0 -347 -98.5 -506t-313.5 -159q-132 0 -231.5 91t-153 263t-53.5 401 z" />
<glyph unicode="&#x50d;" horiz-adv-x="838" d="M94 545q0 270 100 415.5t283 145.5q126 0 232 -64l-41 -84q-98 58 -191 58q-135 0 -209.5 -120t-74.5 -351q0 -234 57.5 -356.5t185.5 -122.5q110 0 168 102t58 291h-205v86h299v-66q0 -243 -82.5 -371t-237.5 -128q-169 0 -255.5 145t-86.5 420z" />
<glyph unicode="&#x50e;" horiz-adv-x="1014" d="M14 1368v94h680v-94h-291v-1018q0 -143 46.5 -209.5t140.5 -66.5t140 66.5t46 209.5v498h98v-471q0 -210 -68 -303.5t-216 -93.5q-149 0 -217 95t-68 302v991h-291z" />
<glyph unicode="&#x50f;" horiz-adv-x="836" d="M16 999v86h480v-86h-193v-657q0 -143 39.5 -209.5t120.5 -66.5q80 0 120 66.5t40 209.5v358h94v-362q0 -182 -60.5 -270t-193.5 -88q-131 0 -192.5 88t-61.5 274v657h-193z" />
<glyph unicode="&#x510;" horiz-adv-x="752" d="M82 385q0 149 63 245t172 126v8q-93 27 -142.5 115t-49.5 229q0 171 80 273t219 102q72 0 134 -25t124 -86l-66 -72q-44 50 -89 69.5t-111 19.5q-85 0 -138 -78t-53 -209q0 -142 57.5 -219.5t157.5 -77.5h115v-94h-104q-128 0 -197.5 -85t-69.5 -243q0 -152 66.5 -230.5 t187.5 -78.5q135 0 236 86v-101q-95 -79 -256 -79q-164 0 -250 105.5t-86 299.5z" />
<glyph unicode="&#x511;" horiz-adv-x="643" d="M86 295q0 108 49 180t139 100v9q-149 62 -149 254q0 120 74 194t192 74q105 0 199 -62l-47 -79q-74 51 -154 51q-83 0 -126.5 -49.5t-43.5 -132.5q0 -103 49.5 -159.5t137.5 -56.5h43v-86h-56q-103 0 -156 -63t-53 -180q0 -73 24.5 -121t66.5 -73t94 -25q51 0 109 16.5 t102 48.5v-94q-43 -30 -95.5 -45.5t-128.5 -15.5q-122 0 -196 84.5t-74 230.5z" />
<glyph unicode="&#x512;" horiz-adv-x="940" d="M-20 4v92q23 -16 69 -16q33 0 55.5 13t41 50.5t33 107.5t28 184t92.5 1027h471v-1368h102v-235q0 -211 -176 -211q-58 0 -98 16v80q45 -18 84 -18q98 0 98 124v150h-108v1368h-287l-39 -476q-43 -520 -71 -655t-76.5 -193t-143.5 -58q-46 0 -75 18z" />
<glyph unicode="&#x513;" horiz-adv-x="786" d="M-10 -2v88q12 -6 35 -6q59 0 94.5 100t58.5 314t37 591h416v-999h96v-227q0 -211 -170 -211q-58 0 -98 16v80q45 -18 84 -18q98 0 98 124v150h-104v995h-234q-11 -277 -31 -472.5t-48 -311t-70.5 -168.5t-118.5 -53q-24 0 -45 8z" />
<glyph unicode="&#x1e00;" horiz-adv-x="813" d="M0 0l352 1462h101l360 -1462h-100l-129 530h-355l-127 -530h-102zM204 -319q0 85 53.5 135.5t145.5 50.5q87 0 143 -49.5t56 -132.5q0 -89 -54 -140t-145 -51q-93 0 -146 50.5t-53 136.5zM248 629h313l-129 545q-20 92 -31 174q-9 -87 -28 -174zM282 -319q0 -53 30.5 -85 t90.5 -32q54 0 87.5 32t33.5 85q0 51 -31 83.5t-90 32.5q-54 0 -87.5 -32.5t-33.5 -83.5z" />
<glyph unicode="&#x1e01;" horiz-adv-x="784" d="M78 291q0 155 93 245.5t261 98.5l117 6v90q0 152 -38 221.5t-126 69.5q-93 0 -190 -61l-41 75q113 70 237 70q134 0 193 -84.5t59 -282.5v-739h-78l-12 152h-4q-78 -172 -236 -172q-106 0 -170.5 84.5t-64.5 226.5zM164 -319q0 85 53.5 135.5t145.5 50.5q87 0 143 -49.5 t56 -132.5q0 -89 -54 -140t-145 -51q-93 0 -146 50.5t-53 136.5zM178 289q0 -118 42 -173t114 -55q102 0 158.5 100.5t56.5 284.5v113l-113 -6q-131 -7 -194.5 -72.5t-63.5 -191.5zM242 -319q0 -53 30.5 -85t90.5 -32q54 0 87.5 32t33.5 85q0 51 -31 83.5t-90 32.5 q-54 0 -87.5 -32.5t-33.5 -83.5z" />
<glyph unicode="&#x1e3e;" horiz-adv-x="1395" d="M160 0v1462h145l328 -1118q44 -148 57 -252h8q10 74 62 250l325 1120h150v-1462h-98v1057q0 62 10 272h-8l-387 -1329h-111l-389 1331h-8q10 -210 10 -266v-1065h-94zM608 1581v21q127 166 191 307h125v-17q-39 -70 -118.5 -161t-150.5 -150h-47z" />
<glyph unicode="&#x1e3f;" horiz-adv-x="1303" d="M145 0v1085h80l8 -151h9q65 172 221 172q90 0 142 -48t75 -140q39 100 96 144t148 44q123 0 180 -94.5t57 -302.5v-709h-94v739q0 273 -160 273q-110 0 -158.5 -95.5t-48.5 -281.5v-635h-94v739q0 138 -39 205.5t-121 67.5q-108 0 -157 -98t-49 -318v-596h-95zM575 1241 v21q127 166 191 307h125v-17q-39 -70 -118.5 -161t-150.5 -150h-47z" />
<glyph unicode="&#x1e80;" horiz-adv-x="1395" d="M10 1462h103l206 -1007q48 -246 62 -344q22 160 57 340l205 1011h111l204 -1007q32 -164 46 -270l10 -74q29 211 57 344l213 1007h100l-311 -1462h-119l-223 1094q-6 27 -35 239l-14 -95l-23 -142l-219 -1096h-116zM477 1890v17h125q27 -63 82.5 -152t108.5 -155v-21h-48 q-65 53 -148.5 148t-119.5 163z" />
<glyph unicode="&#x1e81;" horiz-adv-x="1124" d="M20 1085h95l135 -632l63 -330h6q18 143 58 332l135 630h100l136 -632q16 -71 57 -330h6q3 33 29.5 166t169.5 796h94l-244 -1085h-112l-150 735q-2 8 -3.5 17t-31.5 192h-2l-14 -85l-23 -124l-155 -735h-113zM347 1552v17h125q27 -63 82.5 -152t108.5 -155v-21h-48 q-65 53 -148.5 148t-119.5 163z" />
<glyph unicode="&#x1e82;" horiz-adv-x="1395" d="M10 1462h103l206 -1007q48 -246 62 -344q22 160 57 340l205 1011h111l204 -1007q32 -164 46 -270l10 -74q29 211 57 344l213 1007h100l-311 -1462h-119l-223 1094q-6 27 -35 239l-14 -95l-23 -142l-219 -1096h-116zM610 1579v21q127 166 191 307h125v-17 q-39 -70 -118.5 -161t-150.5 -150h-47z" />
<glyph unicode="&#x1e83;" horiz-adv-x="1124" d="M20 1085h95l135 -632l63 -330h6q18 143 58 332l135 630h100l136 -632q16 -71 57 -330h6q3 33 29.5 166t169.5 796h94l-244 -1085h-112l-150 735q-2 8 -3.5 17t-31.5 192h-2l-14 -85l-23 -124l-155 -735h-113zM504 1241v21q127 166 191 307h125v-17q-39 -70 -118.5 -161 t-150.5 -150h-47z" />
<glyph unicode="&#x1e84;" horiz-adv-x="1395" d="M10 1462h103l206 -1007q48 -246 62 -344q22 160 57 340l205 1011h111l204 -1007q32 -164 46 -270l10 -74q29 211 57 344l213 1007h100l-311 -1462h-119l-223 1094q-6 27 -35 239l-14 -95l-23 -142l-219 -1096h-116zM481 1727q0 43 19.5 62t44.5 19q23 0 42 -19t19 -62 q0 -44 -19 -64t-42 -20q-25 0 -44.5 20t-19.5 64zM786 1727q0 43 19.5 62t42.5 19q25 0 44 -19t19 -62q0 -44 -19 -64t-44 -20q-23 0 -42.5 20t-19.5 64z" />
<glyph unicode="&#x1e85;" horiz-adv-x="1124" d="M20 1085h95l135 -632l63 -330h6q18 143 58 332l135 630h100l136 -632q16 -71 57 -330h6q3 33 29.5 166t169.5 796h94l-244 -1085h-112l-150 735q-2 8 -3.5 17t-31.5 192h-2l-14 -85l-23 -124l-155 -735h-113zM347 1389q0 43 19.5 62t44.5 19q23 0 42 -19t19 -62 q0 -44 -19 -64t-42 -20q-25 0 -44.5 20t-19.5 64zM652 1389q0 43 19.5 62t42.5 19q25 0 44 -19t19 -62q0 -44 -19 -64t-44 -20q-23 0 -42.5 20t-19.5 64z" />
<glyph unicode="&#x1ea0;" horiz-adv-x="813" d="M0 0l352 1462h101l360 -1462h-100l-129 530h-355l-127 -530h-102zM248 629h313l-129 545q-20 92 -31 174q-9 -87 -28 -174zM340 -225q0 45 18 69.5t47 24.5q28 0 44 -24.5t16 -69.5q0 -44 -16 -69t-44 -25q-29 0 -47 25t-18 69z" />
<glyph unicode="&#x1ea1;" horiz-adv-x="784" d="M78 291q0 155 93 245.5t261 98.5l117 6v90q0 152 -38 221.5t-126 69.5q-93 0 -190 -61l-41 75q113 70 237 70q134 0 193 -84.5t59 -282.5v-739h-78l-12 152h-4q-78 -172 -236 -172q-106 0 -170.5 84.5t-64.5 226.5zM178 289q0 -118 42 -173t114 -55q102 0 158.5 100.5 t56.5 284.5v113l-113 -6q-131 -7 -194.5 -72.5t-63.5 -191.5zM344 -225q0 45 18 69.5t47 24.5q28 0 44 -24.5t16 -69.5q0 -44 -16 -69t-44 -25q-29 0 -47 25t-18 69z" />
<glyph unicode="&#x1ea2;" horiz-adv-x="813" d="M0 0l352 1462h101l360 -1462h-100l-129 530h-355l-127 -530h-102zM248 629h313l-129 545q-20 92 -31 174q-9 -87 -28 -174zM285 1931v70q48 12 100 12q101 0 154 -43.5t53 -126.5q0 -139 -156 -176l-10 -121h-70l-6 178q66 0 111 31.5t45 83.5q0 101 -137 101 q-39 0 -84 -9z" />
<glyph unicode="&#x1ea3;" horiz-adv-x="784" d="M78 291q0 155 93 245.5t261 98.5l117 6v90q0 152 -38 221.5t-126 69.5q-93 0 -190 -61l-41 75q113 70 237 70q134 0 193 -84.5t59 -282.5v-739h-78l-12 152h-4q-78 -172 -236 -172q-106 0 -170.5 84.5t-64.5 226.5zM178 289q0 -118 42 -173t114 -55q102 0 158.5 100.5 t56.5 284.5v113l-113 -6q-131 -7 -194.5 -72.5t-63.5 -191.5zM262 1593v70q48 12 100 12q101 0 154 -43.5t53 -126.5q0 -139 -156 -176l-10 -121h-70l-6 178q66 0 111 31.5t45 83.5q0 101 -137 101q-39 0 -84 -9z" />
<glyph unicode="&#x1ea4;" horiz-adv-x="813" d="M0 0l352 1462h101l360 -1462h-100l-129 530h-355l-127 -530h-102zM168 1585v21q105 129 174 248h115q83 -139 174 -248v-21h-53q-70 59 -178 183q-121 -132 -178 -183h-54zM248 629h313l-129 545q-20 92 -31 174q-9 -87 -28 -174zM582 1772v20q41 52 75.5 110.5 t51.5 98.5h123v-16q-88 -125 -203 -213h-47z" />
<glyph unicode="&#x1ea5;" horiz-adv-x="784" d="M78 291q0 155 93 245.5t261 98.5l117 6v90q0 152 -38 221.5t-126 69.5q-93 0 -190 -61l-41 75q113 70 237 70q134 0 193 -84.5t59 -282.5v-739h-78l-12 152h-4q-78 -172 -236 -172q-106 0 -170.5 84.5t-64.5 226.5zM147 1247v21q105 129 174 248h115q83 -139 174 -248 v-21h-53q-70 59 -178 183q-121 -132 -178 -183h-54zM178 289q0 -118 42 -173t114 -55q102 0 158.5 100.5t56.5 284.5v113l-113 -6q-131 -7 -194.5 -72.5t-63.5 -191.5zM561 1434v20q41 52 75.5 110.5t51.5 98.5h123v-16q-88 -125 -203 -213h-47z" />
<glyph unicode="&#x1ea6;" horiz-adv-x="813" d="M-43 1985v16h123q20 -50 58 -110.5t69 -98.5v-20h-48q-113 86 -202 213zM0 0l352 1462h101l360 -1462h-100l-129 530h-355l-127 -530h-102zM157 1585v21q105 129 174 248h115q83 -139 174 -248v-21h-53q-70 59 -178 183q-121 -132 -178 -183h-54zM248 629h313l-129 545 q-20 92 -31 174q-9 -87 -28 -174z" />
<glyph unicode="&#x1ea7;" horiz-adv-x="784" d="M-59 1647v16h123q20 -50 58 -110.5t69 -98.5v-20h-48q-113 86 -202 213zM78 291q0 155 93 245.5t261 98.5l117 6v90q0 152 -38 221.5t-126 69.5q-93 0 -190 -61l-41 75q113 70 237 70q134 0 193 -84.5t59 -282.5v-739h-78l-12 152h-4q-78 -172 -236 -172 q-106 0 -170.5 84.5t-64.5 226.5zM141 1247v21q105 129 174 248h115q83 -139 174 -248v-21h-53q-70 59 -178 183q-121 -132 -178 -183h-54zM178 289q0 -118 42 -173t114 -55q102 0 158.5 100.5t56.5 284.5v113l-113 -6q-131 -7 -194.5 -72.5t-63.5 -191.5z" />
<glyph unicode="&#x1ea8;" horiz-adv-x="813" d="M0 0l352 1462h101l360 -1462h-100l-129 530h-355l-127 -530h-102zM161 1585v21q105 129 174 248h115q83 -139 174 -248v-21h-53q-70 59 -178 183q-121 -132 -178 -183h-54zM248 629h313l-129 545q-20 92 -31 174q-9 -87 -28 -174zM550 2024v67q27 10 80 10 q67 0 111.5 -35.5t44.5 -99.5q0 -49 -36 -83t-89 -38l-6 -75h-57l-7 124q57 0 85 15t28 61q0 62 -90 62q-42 0 -64 -8z" />
</font>
</defs>
</svg>
